<svg width="119" height="17" viewBox="0 0 119 17" fill="none" xmlns="http://www.w3.org/2000/svg">
<path fill-rule="evenodd" clip-rule="evenodd" d="M12.6555 13.5307H6.98895L5.98771 16.1557H0.875L7.39371 1.09426H12.336L18.8547 16.1557H13.6568L12.6555 13.5307ZM11.2709 9.87295L9.82225 6.08607L8.37365 9.87295H11.2709ZM22.9023 15.4995C21.6383 14.8325 20.6477 13.9001 19.9305 12.7024C19.2133 11.5046 18.8547 10.1455 18.8547 8.625C18.8547 7.1045 19.2133 5.7454 19.9305 4.54764C20.6477 3.34989 21.6383 2.41752 22.9023 1.75051C24.1663 1.0835 25.5864 0.75 27.1629 0.75C28.6115 0.75 29.9038 1.00819 31.04 1.52459C32.1762 2.04099 33.1135 2.78688 33.852 3.7623L30.6779 6.62398C29.7547 5.44774 28.6683 4.85963 27.4185 4.85963C26.3676 4.85963 25.5225 5.2003 24.8835 5.88166C24.2444 6.56302 23.9248 7.47745 23.9248 8.625C23.9248 9.77255 24.2444 10.687 24.8835 11.3683C25.5225 12.0497 26.3676 12.3904 27.4185 12.3904C28.6683 12.3904 29.7547 11.8023 30.6779 10.626L33.852 13.4877C33.1135 14.4631 32.1762 15.209 31.04 15.7254C29.9038 16.2418 28.6115 16.5 27.1629 16.5C25.5864 16.5 24.1663 16.1665 22.9023 15.4995ZM45.2491 13.5307H39.5825L38.5813 16.1557H33.4686L39.9873 1.09426H44.9296L51.4483 16.1557H46.2503L45.2491 13.5307ZM43.8644 9.87295L42.4158 6.08607L40.9672 9.87295H43.8644ZM52.2578 1.09426H59.6073C61.2689 1.09426 62.7353 1.39907 64.0064 2.00871C65.2775 2.61834 66.2645 3.48975 66.9675 4.62295C67.6705 5.75615 68.022 7.09016 68.022 8.625C68.022 10.1598 67.6705 11.4938 66.9675 12.627C66.2645 13.7603 65.2775 14.6317 64.0064 15.2413C62.7353 15.8509 61.2689 16.1557 59.6073 16.1557H52.2578V1.09426ZM59.3943 12.1967C60.4736 12.1967 61.3364 11.8847 61.9826 11.2608C62.6288 10.6368 62.9519 9.7582 62.9519 8.625C62.9519 7.4918 62.6288 6.61322 61.9826 5.98924C61.3364 5.36526 60.4736 5.05328 59.3943 5.05328H57.2853V12.1967H59.3943ZM82.2524 12.3258V16.1557H69.854V1.09426H81.9754V4.92418H74.7963V6.68852H81.102V10.3463H74.7963V12.3258H82.2524ZM97.5053 16.1557L97.4627 9.29201L94.2246 14.8002H92.0091L88.7711 9.52869V16.1557H84.1909V1.09426H88.3237L93.1808 9.11988L97.9101 1.09426H102.043L102.085 16.1557H97.5053ZM113.376 10.6906V16.1557H108.349V10.626L102.725 1.09426H108.029L111.075 6.30123L114.143 1.09426H119L113.376 10.6906Z" fill="#232F3C"/>
</svg>
