<svg width="34" height="34" viewBox="0 0 34 34" fill="none" xmlns="http://www.w3.org/2000/svg">
<path d="M17.7083 31.1666L16.2917 31.1666C15.9005 31.1666 15.5833 30.8495 15.5833 30.4583L15.5833 7.55075L9.29334 13.8549C9.16034 13.989 8.97929 14.0644 8.79042 14.0644C8.60156 14.0644 8.42051 13.989 8.28751 13.8549L7.29584 12.8491C7.16174 12.7161 7.08632 12.535 7.08632 12.3462C7.08632 12.1573 7.16174 11.9763 7.29584 11.8433L15.98 3.14492C16.1791 2.9456 16.4491 2.8335 16.7308 2.83325L17.2692 2.83325C17.5503 2.83652 17.8192 2.94817 18.02 3.14492L26.7042 11.8433C26.8383 11.9763 26.9137 12.1573 26.9137 12.3462C26.9137 12.535 26.8383 12.7161 26.7042 12.8491L25.6983 13.8549C25.5678 13.9882 25.3891 14.0633 25.2025 14.0633C25.0159 14.0633 24.8372 13.9882 24.7067 13.8549L18.4167 7.55075L18.4167 30.4583C18.4167 30.8495 18.0995 31.1666 17.7083 31.1666Z" fill="#EF5B63"/>
</svg>
