<svg width="40" height="40" viewBox="0 0 40 40" fill="none" xmlns="http://www.w3.org/2000/svg">
<rect x="0.5" y="0.5" width="39" height="39" rx="9.5" stroke="#333333"/>
<path d="M25.85 24.4401C25.9447 24.534 25.9979 24.6618 25.9979 24.7951C25.9979 24.9284 25.9447 25.0562 25.85 25.1501L25.15 25.8501C25.0561 25.9448 24.9283 25.998 24.795 25.998C24.6617 25.998 24.5339 25.9448 24.44 25.8501L20 21.4101L15.56 25.8501C15.4661 25.9448 15.3383 25.998 15.205 25.998C15.0717 25.998 14.9439 25.9448 14.85 25.8501L14.15 25.1501C14.0553 25.0562 14.0021 24.9284 14.0021 24.7951C14.0021 24.6618 14.0553 24.534 14.15 24.4401L18.59 20.0001L14.15 15.5601C14.0553 15.4662 14.0021 15.3384 14.0021 15.2051C14.0021 15.0718 14.0553 14.944 14.15 14.8501L14.85 14.1501C14.9439 14.0554 15.0717 14.0022 15.205 14.0022C15.3383 14.0022 15.4661 14.0554 15.56 14.1501L20 18.5901L24.44 14.1501C24.5339 14.0554 24.6617 14.0022 24.795 14.0022C24.9283 14.0022 25.0561 14.0554 25.15 14.1501L25.85 14.8501C25.9447 14.944 25.9979 15.0718 25.9979 15.2051C25.9979 15.3384 25.9447 15.4662 25.85 15.5601L21.41 20.0001L25.85 24.4401Z" fill="#333333"/>
</svg>
