<svg width="48" height="48" viewBox="0 0 48 48" fill="none" xmlns="http://www.w3.org/2000/svg">
<path fill-rule="evenodd" clip-rule="evenodd" d="M24 48C37.2548 48 48 37.2548 48 24C48 10.7452 37.2548 0 24 0C10.7452 0 0 10.7452 0 24C0 37.2548 10.7452 48 24 48Z" fill="white"/>
<path d="M24.7083 38.1666L23.2917 38.1666C22.9005 38.1666 22.5833 37.8495 22.5833 37.4583L22.5833 14.5508L16.2933 20.8549C16.1603 20.989 15.9793 21.0644 15.7904 21.0644C15.6016 21.0644 15.4205 20.989 15.2875 20.8549L14.2958 19.8491C14.1617 19.7161 14.0863 19.535 14.0863 19.3462C14.0863 19.1573 14.1617 18.9763 14.2958 18.8433L22.98 10.1449C23.1791 9.9456 23.4491 9.8335 23.7308 9.83325L24.2692 9.83325C24.5503 9.83652 24.8192 9.94817 25.02 10.1449L33.7042 18.8433C33.8383 18.9763 33.9137 19.1573 33.9137 19.3462C33.9137 19.535 33.8383 19.7161 33.7042 19.8491L32.6983 20.8549C32.5678 20.9882 32.3891 21.0633 32.2025 21.0633C32.0159 21.0633 31.8372 20.9882 31.7067 20.8549L25.4167 14.5508L25.4167 37.4583C25.4167 37.8495 25.0995 38.1666 24.7083 38.1666Z" fill="#EF5B63"/>
</svg>
