<svg width="58" height="58" viewBox="0 0 58 58" fill="none" xmlns="http://www.w3.org/2000/svg">
<path d="M28.9421 58C41.6238 58 48.6769 58 53.2632 53.4045C57.8842 48.7743 57.8842 41.707 57.8842 28.9999C57.8842 16.2928 57.8842 9.22556 53.2632 4.63012C48.6422 0.034668 41.6238 0.034668 28.9421 0.034668C16.2604 0.034668 9.20727 0.034668 4.62101 4.63012C0 9.22556 0 16.2928 0 28.9999C0 41.707 0 48.7743 4.62101 53.3697C9.20727 58 16.2604 58 28.9421 58Z" fill="black"/>
<path fill-rule="evenodd" clip-rule="evenodd" d="M35.995 27.0159C35.995 24.9619 37.628 23.256 39.8169 23.256H45.5497V35.1972H43.1176V30.7758H41.1372L38.4966 35.1972H35.6128L38.705 30.4277C37.1763 30.0447 35.995 28.7218 35.995 27.0159ZM38.5307 27.0853C38.5307 27.9905 39.1214 28.7564 40.129 28.7564H43.117V25.3446H40.129C39.0866 25.3446 38.5307 26.1802 38.5307 27.0853Z" fill="white"/>
<path d="M26.5444 23.2559L25.7453 25.484L29.046 25.4491L27.1003 32.6208C26.5444 34.7097 28.7333 36.2763 30.5748 35.0578L34.7788 32.2031L33.528 30.3579L29.324 33.2823L32.173 23.2559H26.5444V23.2559Z" fill="white"/>
<path d="M32.7638 20.2268C32.7638 21.0623 32.3816 21.7238 31.0961 21.7238C29.8453 21.7238 29.4283 21.0623 29.4283 20.2268C29.4283 19.3912 29.8453 18.7298 31.0961 18.7298C32.4164 18.695 32.7638 19.3912 32.7638 20.2268Z" fill="white"/>
<path fill-rule="evenodd" clip-rule="evenodd" d="M22.5494 20.4706V33.0036H24.2171V38.4694H21.8545V35.2317H13.0642V38.4694H10.7015V33.0036H11.8134C12.3693 32.2377 13.2726 30.2881 13.2726 27.1549V20.4706H22.5494ZM15.6359 22.6987V27.0156C15.6359 29.94 14.8367 32.1333 14.3156 33.0036H20.1526V22.6987H15.6359Z" fill="white"/>
</svg>
