<svg width="186" height="56" viewBox="0 0 186 56" fill="none" xmlns="http://www.w3.org/2000/svg">
<g clip-path="url(#clip0_162_1701)">
<path opacity="0.7" d="M61.8664 2.54541H26.1423C12.0495 2.54541 0.625061 13.9418 0.625061 28C0.625061 42.0581 12.0495 53.4545 26.1423 53.4545H61.8664C75.9592 53.4545 87.3837 42.0581 87.3837 28C87.3837 13.9418 75.9592 2.54541 61.8664 2.54541Z" fill="#9FA1A4"/>
<path d="M112.038 39.8211C113.202 39.8211 114.343 39.6072 115.46 39.1796C116.578 38.752 117.565 38.2022 118.423 37.5302L117.32 35.9723C116.616 36.5527 115.812 37.0261 114.909 37.3927C114.006 37.7592 113.064 37.9425 112.084 37.9425C110.615 37.9425 109.313 37.5912 108.18 36.8887C107.047 36.1861 106.167 35.2545 105.539 34.0938C105.475 33.978 105.417 33.8609 105.361 33.7425L105.306 33.6254L120.628 27.7251C120.03 25.8542 119.084 24.3103 117.786 23.0962L117.481 22.8225C116.027 21.5702 114.228 20.944 112.084 20.944C110.308 20.944 108.693 21.3716 107.239 22.2269C105.784 23.0822 104.628 24.2276 103.771 25.6632C102.913 27.0989 102.485 28.6872 102.485 30.4283C102.485 32.2 102.89 33.796 103.702 35.2163C104.513 36.6367 105.639 37.7592 107.078 38.584C108.517 39.4087 110.171 39.8211 112.038 39.8211ZM104.774 32.0218L104.748 31.906C104.647 31.3969 104.598 30.8751 104.598 30.3367C104.598 28.9011 104.927 27.6182 105.585 26.488C106.243 25.3578 107.124 24.4567 108.226 23.7847C109.328 23.1127 110.569 22.7767 111.947 22.7767C113.478 22.7767 114.771 23.2196 115.828 24.1054C116.884 24.9912 117.673 26.0451 118.193 27.2669L118.013 26.8736L104.774 32.0218ZM134.039 39.8211C135.05 39.8211 136.007 39.676 136.91 39.3858C137.813 39.0956 138.64 38.6985 139.39 38.1945C140.141 37.6905 140.776 37.1407 141.296 36.5451C141.52 36.2905 141.715 36.0334 141.881 35.7751L141.94 35.6783V39.4545H144.098V21.5396H142.169L141.957 25.4469L141.876 25.2865C141.314 24.2709 140.526 23.3927 139.508 22.652L139.161 22.4102C137.737 21.4632 136.229 20.9898 134.636 20.9898C132.769 20.9898 131.1 21.364 129.63 22.1123C128.16 22.8607 126.997 23.9451 126.139 25.3654C125.282 26.7858 124.853 28.4887 124.853 30.4742C124.853 32.3374 125.259 33.9716 126.07 35.3767C126.882 36.7818 127.984 37.8738 129.377 38.6527C130.771 39.4316 132.325 39.8211 134.039 39.8211ZM134.499 37.9883C133.151 37.9883 131.904 37.6447 130.755 36.9574C129.607 36.2702 128.696 35.3538 128.022 34.2083C127.349 33.0629 127.012 31.7876 127.012 30.3825C127.012 28.8552 127.349 27.5265 128.022 26.3963C128.696 25.2662 129.599 24.388 130.732 23.7618C131.865 23.1356 133.105 22.8225 134.453 22.8225C135.678 22.8225 136.811 23.0822 137.852 23.6014C138.893 24.1207 139.773 24.8232 140.493 25.7091C141.212 26.5949 141.695 27.6029 141.94 28.7331V31.2989C141.848 32.6123 141.465 33.7731 140.791 34.7811C140.118 35.7891 139.237 36.5756 138.15 37.1407C137.063 37.7058 135.846 37.9883 134.499 37.9883ZM156.5 39.8211C157.878 39.8211 159.018 39.5843 159.921 39.1109C160.825 38.6374 161.506 37.9807 161.965 37.1407C162.425 36.3007 162.654 35.3614 162.654 34.3229C162.654 33.2843 162.402 32.452 161.897 31.8258C161.391 31.1996 160.748 30.6956 159.967 30.3138C159.187 29.932 158.352 29.6036 157.464 29.3287C156.791 29.0843 156.14 28.8247 155.512 28.5498C154.884 28.2749 154.372 27.916 153.973 27.4731C153.575 27.0302 153.376 26.4574 153.376 25.7549C153.376 25.0829 153.568 24.5407 153.95 24.1283C154.333 23.716 154.808 23.4029 155.374 23.1891C155.941 22.9752 156.484 22.8683 157.005 22.8683C157.617 22.8989 158.329 23.0363 159.141 23.2807C159.952 23.5251 160.603 23.9832 161.093 24.6552L162.057 23.1432C161.292 22.4102 160.442 21.8909 159.508 21.5854C158.574 21.28 157.633 21.1272 156.683 21.1272C155.642 21.1272 154.708 21.3334 153.882 21.7458C153.055 22.1582 152.404 22.7309 151.929 23.464C151.455 24.1971 151.218 25.0523 151.218 26.0298C151.218 27.3738 151.639 28.4123 152.481 29.1454C153.323 29.8785 154.402 30.4589 155.719 30.8865C156.515 31.1309 157.273 31.3982 157.992 31.6883C158.712 31.9785 159.309 32.3527 159.784 32.8109C160.258 33.2691 160.496 33.9258 160.496 34.7811C160.496 35.6058 160.297 36.2625 159.899 36.7512C159.5 37.24 158.988 37.5836 158.36 37.7822C157.732 37.9807 157.066 38.08 156.362 38.08C155.413 38.08 154.517 37.8891 153.675 37.5072C152.833 37.1254 152.106 36.6138 151.493 35.9723L150.483 37.3927C151.187 38.248 152.106 38.8665 153.239 39.2483C154.371 39.6301 155.459 39.8211 156.5 39.8211ZM176.985 39.8211C178.148 39.8211 179.289 39.6072 180.407 39.1796C181.524 38.752 182.512 38.2022 183.369 37.5302L182.267 35.9723C181.563 36.5527 180.759 37.0261 179.856 37.3927C178.952 37.7592 178.011 37.9425 177.031 37.9425C175.561 37.9425 174.26 37.5912 173.127 36.8887C171.994 36.1861 171.113 35.2545 170.486 34.0938C170.422 33.978 170.363 33.8609 170.307 33.7425L170.252 33.6254L185.574 27.7251C184.977 25.8542 184.03 24.3103 182.733 23.0962L182.428 22.8225C180.973 21.5702 179.174 20.944 177.031 20.944C175.255 20.944 173.64 21.3716 172.185 22.2269C170.731 23.0822 169.575 24.2276 168.717 25.6632C167.86 27.0989 167.431 28.6872 167.431 30.4283C167.431 32.2 167.837 33.796 168.648 35.2163C169.46 36.6367 170.585 37.7592 172.024 38.584C173.464 39.4087 175.117 39.8211 176.985 39.8211ZM169.72 32.0231L169.695 31.906C169.594 31.3969 169.544 30.8751 169.544 30.3367C169.544 28.9011 169.873 27.6182 170.532 26.488C171.19 25.3578 172.07 24.4567 173.173 23.7847C174.275 23.1127 175.515 22.7767 176.893 22.7767C178.424 22.7767 179.718 23.2196 180.774 24.1054C181.831 24.9912 182.619 26.0451 183.14 27.2669L182.96 26.8736L169.72 32.0231Z" fill="#102762"/>
<g filter="url(#filter0_d_162_1701)">
<path d="M61.8664 50.909C74.5499 50.909 84.8319 40.6523 84.8319 27.9999C84.8319 15.3476 74.5499 5.09082 61.8664 5.09082C49.1829 5.09082 38.9009 15.3476 38.9009 27.9999C38.9009 40.6523 49.1829 50.909 61.8664 50.909Z" fill="black"/>
</g>
<path d="M61.8664 50.909C74.5499 50.909 84.8319 40.6523 84.8319 27.9999C84.8319 15.3476 74.5499 5.09082 61.8664 5.09082C49.1829 5.09082 38.9009 15.3476 38.9009 27.9999C38.9009 40.6523 49.1829 50.909 61.8664 50.909Z" fill="white"/>
<path d="M61.8665 44.5454C71.0268 44.5454 78.4527 37.1377 78.4527 27.9999C78.4527 18.8621 71.0268 11.4545 61.8665 11.4545C52.7062 11.4545 45.2803 18.8621 45.2803 27.9999C45.2803 37.1377 52.7062 44.5454 61.8665 44.5454Z" fill="url(#paint0_linear_162_1701)"/>
</g>
<defs>
<filter id="filter0_d_162_1701" x="34.9009" y="1.09082" width="53.931" height="53.8182" filterUnits="userSpaceOnUse" color-interpolation-filters="sRGB">
<feFlood flood-opacity="0" result="BackgroundImageFix"/>
<feColorMatrix in="SourceAlpha" type="matrix" values="0 0 0 0 0 0 0 0 0 0 0 0 0 0 0 0 0 0 127 0" result="hardAlpha"/>
<feOffset/>
<feGaussianBlur stdDeviation="2"/>
<feColorMatrix type="matrix" values="0 0 0 0 0 0 0 0 0 0 0 0 0 0 0 0 0 0 1 0"/>
<feBlend mode="normal" in2="BackgroundImageFix" result="effect1_dropShadow_162_1701"/>
<feBlend mode="normal" in="SourceGraphic" in2="effect1_dropShadow_162_1701" result="shape"/>
</filter>
<linearGradient id="paint0_linear_162_1701" x1="45.2803" y1="27.9999" x2="78.4527" y2="27.9999" gradientUnits="userSpaceOnUse">
<stop stop-color="#012E65"/>
<stop offset="1" stop-color="#0060AD"/>
</linearGradient>
<clipPath id="clip0_162_1701">
<rect width="185" height="56" fill="white" transform="translate(0.625061)"/>
</clipPath>
</defs>
</svg>
