<svg width="280" height="231" viewBox="0 0 280 231" fill="none" xmlns="http://www.w3.org/2000/svg">
<g opacity="0.1">
<path d="M215.657 12.6274C214.798 11.665 214.146 10.6683 213.665 9.56842C213.185 8.46858 212.944 7.4031 212.944 6.40637C212.944 5.37526 213.185 4.61912 213.665 4.0692C214.146 3.55365 214.833 3.27869 215.657 3.31306C216.515 3.34743 217.477 3.65676 218.541 4.27542C219.434 4.79097 220.258 5.40964 220.979 6.16578C221.7 6.88755 222.318 7.71244 222.798 8.57169L221.253 9.08724C220.567 7.88429 219.674 6.95629 218.644 6.372C217.992 5.99393 217.442 5.82208 216.927 5.78771C216.412 5.78771 216.034 5.95955 215.76 6.26889C215.485 6.61259 215.348 7.09377 215.348 7.7468C215.348 8.39984 215.485 9.05287 215.76 9.7059C216.034 10.3589 216.446 10.9776 216.927 11.5619C217.442 12.1462 217.992 12.593 218.644 12.9711C219.674 13.5554 220.532 13.6585 221.253 13.246L222.798 15.5488C222.318 15.8582 221.7 15.9613 220.979 15.8582C220.258 15.755 219.434 15.4457 218.541 14.9302C217.477 14.3459 216.515 13.5554 215.657 12.6274Z" fill="#55CBDC"/>
<path d="M225.339 18.5733C224.584 17.9203 223.966 17.2672 223.519 16.6486L224.343 15.3081C224.79 15.8924 225.305 16.4423 225.923 16.9923C226.541 17.5422 227.159 17.989 227.743 18.3327C228.429 18.7108 228.91 18.917 229.253 18.8826C229.562 18.8826 229.734 18.7108 229.734 18.3671C229.734 18.1265 229.631 17.8515 229.459 17.5766C229.288 17.3016 229.013 17.0266 228.738 16.7517C228.429 16.4767 228.017 16.133 227.537 15.7206C226.747 15.0675 226.095 14.5176 225.614 14.0364C225.099 13.5553 224.687 13.0053 224.309 12.3867C223.966 11.768 223.76 11.115 223.76 10.4276C223.76 9.84328 223.931 9.3621 224.24 9.08714C224.549 8.7778 225.064 8.67469 225.717 8.7778C226.369 8.88091 227.159 9.19024 228.12 9.74017C228.773 10.1182 229.425 10.565 230.043 11.0806C230.661 11.5962 231.21 12.1461 231.691 12.7304L230.97 14.1052C230.009 13.0053 229.047 12.1804 228.12 11.6305C227.468 11.2525 226.953 11.0806 226.644 11.115C226.335 11.1493 226.163 11.3556 226.163 11.6993C226.163 12.043 226.335 12.421 226.713 12.7991C227.09 13.1772 227.64 13.6927 228.395 14.277C229.185 14.9301 229.837 15.48 230.318 15.9612C230.833 16.4423 231.245 16.9923 231.622 17.5766C231.966 18.1952 232.172 18.8483 232.172 19.5357C232.172 20.1199 232 20.5668 231.691 20.8761C231.348 21.1854 230.867 21.2885 230.215 21.1854C229.562 21.0823 228.738 20.773 227.811 20.2231C226.884 19.7762 226.095 19.2263 225.339 18.5733Z" fill="#55CBDC"/>
<path d="M234.747 24.004C233.991 23.351 233.373 22.698 232.927 22.0793L233.751 20.7389C234.198 21.3232 234.713 21.8731 235.331 22.423C235.949 22.9729 236.532 23.4197 237.15 23.7635C237.837 24.1415 238.318 24.3477 238.661 24.3134C238.97 24.3134 239.142 24.1415 239.142 23.7978C239.142 23.5572 239.039 23.2823 238.867 23.0073C238.661 22.7323 238.421 22.4574 238.146 22.1824C237.871 21.9075 237.425 21.5638 236.944 21.1513C236.155 20.4983 235.502 19.9484 235.022 19.4672C234.507 18.986 234.095 18.4361 233.717 17.8174C233.373 17.1988 233.167 16.5457 233.167 15.8583C233.167 15.274 233.339 14.7928 233.648 14.5179C233.957 14.2429 234.472 14.1054 235.125 14.2086C235.777 14.3117 236.567 14.621 237.528 15.1709C238.18 15.549 238.833 15.9958 239.451 16.5113C240.069 17.0269 240.618 17.5768 241.099 18.1611L240.378 19.5359C239.416 18.4361 238.455 17.6112 237.528 17.0613C236.876 16.6832 236.361 16.5114 236.052 16.5457C235.743 16.5801 235.571 16.7863 235.571 17.13C235.571 17.4737 235.743 17.8518 236.12 18.2299C236.498 18.6079 237.047 19.1235 237.803 19.7078C238.592 20.3608 239.245 20.9107 239.725 21.3919C240.24 21.8731 240.652 22.423 241.03 23.0073C241.373 23.626 241.579 24.279 241.579 24.9664C241.579 25.5507 241.408 25.9975 241.099 26.3068C240.755 26.6162 240.275 26.7193 239.622 26.6162C238.97 26.5131 238.146 26.2037 237.219 25.6538C236.292 25.207 235.502 24.6571 234.747 24.004Z" fill="#55CBDC"/>
<path d="M15.4163 151.345C15.4163 151.345 15.5536 150.83 15.5536 153.511C15.5536 155.16 16.2403 156.913 18.5751 158.254L136.069 225.069C139.846 227.2 145.579 227.372 148.841 225.482L196.91 197.195" stroke="#55CBDC" stroke-miterlimit="10"/>
<path d="M169.751 157.669L90.8498 112.782C87.1073 110.651 81.3391 110.444 78.0773 112.369L17.6481 147.977C14.3863 149.901 14.7983 153.201 18.5408 155.366L136.069 222.147C139.811 224.278 145.579 224.45 148.841 222.56L194.438 195.717" stroke="#55CBDC" stroke-miterlimit="10"/>
<path d="M169.854 177.467C169.682 177.535 169.545 177.604 169.408 177.673L164.841 180.354C163.811 180.972 163.949 182.003 165.116 182.656L182.112 192.315C183.279 193.002 185.064 193.036 186.095 192.452L187.502 191.627M169.854 164.062C169.133 164.028 168.412 164.165 167.897 164.475L163.331 167.156C162.301 167.74 162.438 168.771 163.64 169.458L169.854 172.895M73.5451 123.162C74.5752 122.543 76.3606 122.612 77.5623 123.299L94.5923 132.992C95.7597 133.645 95.8971 134.71 94.867 135.294L79.6567 144.231C78.6267 144.815 76.8413 144.781 75.6739 144.093L58.6782 134.435C57.5108 133.748 57.3734 132.717 58.3691 132.132L73.5451 123.162ZM152.652 173.411C151.622 174.03 151.76 175.061 152.927 175.748L158.18 178.738C159.348 179.391 161.167 179.46 162.198 178.841L166.764 176.161C167.794 175.576 167.657 174.511 166.489 173.858L161.236 170.868C160.069 170.214 158.249 170.146 157.253 170.73L152.652 173.411ZM140.738 166.64C139.708 167.224 139.811 168.29 141.013 168.943L146.266 171.933C147.434 172.586 149.253 172.655 150.283 172.036L154.85 169.355C155.88 168.737 155.777 167.705 154.575 167.052L149.322 164.062C148.155 163.375 146.335 163.34 145.305 163.925L140.738 166.64ZM128.755 159.835C127.76 160.453 127.863 161.484 129.03 162.138L134.318 165.128C135.485 165.781 137.305 165.849 138.301 165.265L142.867 162.584C143.863 161.966 143.76 160.935 142.592 160.282L137.305 157.291C136.137 156.604 134.318 156.57 133.288 157.154L128.755 159.835ZM116.807 153.029C115.777 153.614 115.914 154.679 117.116 155.332L122.369 158.322C123.571 159.01 125.356 159.044 126.386 158.46L130.953 155.779C131.983 155.16 131.846 154.129 130.678 153.476L125.391 150.486C124.223 149.833 122.404 149.764 121.373 150.383L116.807 153.029ZM104.858 146.224C103.828 146.808 103.966 147.874 105.133 148.527L110.386 151.517C111.588 152.205 113.373 152.239 114.403 151.655L118.97 148.974C119.966 148.355 119.863 147.324 118.661 146.671L113.408 143.681C112.24 143.028 110.421 142.959 109.391 143.578L104.858 146.224ZM92.9099 139.419C91.8799 140.038 92.0172 141.069 93.1846 141.722L98.4378 144.712C99.6395 145.399 101.425 145.434 102.455 144.849L107.022 142.168C108.017 141.584 107.914 140.519 106.747 139.866L101.494 136.875C100.326 136.188 98.5065 136.154 97.5108 136.738L92.9099 139.419ZM142.077 179.735C141.047 180.354 141.185 181.35 142.352 182.038L171.434 198.57C172.601 199.257 174.421 199.292 175.451 198.707L180.017 196.026C181.047 195.442 180.91 194.411 179.743 193.724L150.661 177.192C149.494 176.539 147.708 176.47 146.678 177.054L142.077 179.735ZM130.06 172.895C129.03 173.48 129.167 174.545 130.335 175.198L135.622 178.188C136.79 178.841 138.61 178.91 139.605 178.326L144.172 175.645C145.167 175.061 145.064 173.995 143.897 173.342L138.644 170.352C137.476 169.665 135.657 169.63 134.661 170.215L130.06 172.895ZM118.077 166.09C117.047 166.674 117.185 167.74 118.386 168.393L123.64 171.383C124.807 172.036 126.627 172.105 127.657 171.521L132.223 168.84C133.253 168.255 133.15 167.19 131.949 166.537L126.695 163.547C125.528 162.894 123.708 162.825 122.678 163.409L118.077 166.09ZM106.129 159.285C105.133 159.869 105.236 160.935 106.438 161.588L111.691 164.578C112.858 165.231 114.678 165.3 115.674 164.681L120.24 162C121.236 161.416 121.133 160.35 119.966 159.697L114.713 156.707C113.545 156.054 111.76 155.985 110.73 156.57L106.129 159.285ZM94.1803 152.48C93.1503 153.064 93.2876 154.129 94.455 154.782L99.7082 157.773C100.876 158.426 102.695 158.494 103.725 157.91L108.292 155.229C109.322 154.61 109.185 153.579 108.017 152.926L102.73 149.936C101.562 149.283 99.7769 149.214 98.7468 149.799L94.1803 152.48ZM82.2318 145.709C81.2018 146.327 81.3391 147.358 82.5408 148.011L87.794 151.002C88.9614 151.655 90.7812 151.723 91.8112 151.139L96.3777 148.458C97.4078 147.874 97.2704 146.843 96.1031 146.155L90.8155 143.165C89.6138 142.512 87.8284 142.443 86.8327 143.028L82.2318 145.709ZM151.382 160.35C150.352 160.969 150.489 162 151.691 162.653L156.944 165.643C158.112 166.296 159.931 166.365 160.927 165.781L165.494 163.1C166.524 162.481 166.386 161.45 165.185 160.797L159.931 157.807C158.73 157.154 156.944 157.085 155.914 157.669L151.382 160.35ZM139.434 153.579C138.404 154.164 138.541 155.229 139.708 155.882L144.961 158.872C146.163 159.56 147.949 159.594 148.979 159.01L153.545 156.329C154.575 155.745 154.438 154.679 153.27 154.026L148.017 151.036C146.85 150.383 145.03 150.314 144 150.898L139.434 153.579ZM127.451 146.774C126.455 147.393 126.558 148.424 127.725 149.077L132.979 152.067C134.146 152.754 135.966 152.789 136.961 152.205L141.528 149.524C142.558 148.905 142.421 147.874 141.253 147.221L136 144.231C134.833 143.543 133.013 143.509 131.983 144.093L127.451 146.774ZM115.502 139.969C114.472 140.553 114.61 141.619 115.811 142.272L121.064 145.262C122.232 145.915 124.017 145.984 125.082 145.399L129.614 142.718C130.644 142.134 130.507 141.103 129.339 140.416L124.086 137.425C122.919 136.738 121.099 136.704 120.069 137.288L115.502 139.969ZM103.554 133.163C102.524 133.748 102.661 134.813 103.828 135.466L109.082 138.456C110.249 139.11 112.069 139.178 113.064 138.594L117.631 135.913C118.627 135.294 118.524 134.263 117.356 133.61L112.103 130.62C110.936 129.933 109.116 129.898 108.12 130.483L103.554 133.163ZM91.6395 126.358C90.6095 126.942 90.7468 128.008 91.9142 128.661L97.1674 131.651C98.3348 132.339 100.155 132.373 101.15 131.789L105.717 129.108C106.747 128.524 106.61 127.492 105.442 126.805L100.189 123.815C99.0215 123.162 97.2018 123.093 96.1717 123.677L91.6395 126.358ZM79.6567 119.587C78.6267 120.206 78.764 121.237 79.9314 121.89L85.2189 124.88C86.3863 125.533 88.2061 125.602 89.2361 125.018L93.8026 122.337C94.8327 121.718 94.6953 120.687 93.528 120.034L88.2747 117.044C87.1074 116.391 85.2876 116.322 84.2576 116.906L79.6567 119.587ZM155.228 199.567C154.198 200.151 154.335 201.182 155.502 201.869L160.755 204.86C161.923 205.547 163.743 205.581 164.738 204.997L169.305 202.316C170.301 201.698 170.198 200.666 169.03 200.013L163.743 197.023C162.541 196.37 160.755 196.301 159.76 196.886L155.228 199.567ZM143.313 192.761C142.283 193.38 142.386 194.411 143.588 195.064L148.841 198.054C150.009 198.707 151.828 198.776 152.858 198.192L157.425 195.511C158.455 194.927 158.318 193.896 157.15 193.208L151.863 190.218C150.695 189.565 148.91 189.496 147.88 190.08L143.313 192.761ZM131.331 185.956C130.301 186.575 130.438 187.606 131.605 188.259L136.893 191.249C138.06 191.936 139.88 191.971 140.876 191.387L145.476 188.706C146.472 188.121 146.369 187.09 145.202 186.403L139.914 183.413C138.713 182.725 136.927 182.656 135.931 183.275L131.331 185.956ZM119.382 179.151C118.352 179.769 118.455 180.8 119.657 181.454L124.91 184.444C126.077 185.097 127.897 185.166 128.927 184.581L133.494 181.9C134.524 181.316 134.421 180.251 133.219 179.598L127.966 176.607C126.798 175.92 124.979 175.886 123.949 176.47L119.382 179.151ZM107.434 172.345C106.438 172.93 106.541 173.995 107.708 174.648L112.996 177.638C114.163 178.291 115.983 178.36 116.979 177.776L121.545 175.095C122.575 174.511 122.438 173.445 121.27 172.792L116.017 169.802C114.85 169.115 113.03 169.08 112.034 169.665L107.434 172.345ZM95.485 165.54C94.455 166.124 94.5923 167.19 95.7597 167.843L101.013 170.833C102.18 171.521 104 171.555 104.996 170.971L109.562 168.29C110.592 167.671 110.455 166.64 109.253 165.987L104 162.997C102.833 162.344 101.013 162.275 100.017 162.859L95.485 165.54ZM83.5365 158.769C82.5065 159.388 82.6438 160.419 83.8112 161.072L89.0644 164.062C90.2662 164.75 92.0516 164.784 93.0816 164.2L97.6481 161.519C98.6782 160.9 98.5408 159.869 97.3735 159.216L92.0859 156.226C90.9185 155.538 89.1331 155.504 88.1031 156.088L83.5365 158.769ZM71.588 151.964C70.558 152.548 70.6953 153.614 71.8627 154.267L77.1159 157.257C78.2833 157.944 80.0687 157.979 81.0988 157.394L85.6653 154.714C86.661 154.129 86.558 153.064 85.3563 152.411L80.1031 149.421C78.9357 148.733 77.1159 148.699 76.1202 149.283L71.588 151.964ZM59.6052 145.159C58.5752 145.743 58.7125 146.808 59.8799 147.461L65.1674 150.452C66.3691 151.105 68.1546 151.173 69.1503 150.589L73.7168 147.908C74.7468 147.324 74.6095 146.259 73.4421 145.605L68.1546 142.581C66.9528 141.928 65.1674 141.859 64.1717 142.443L59.6052 145.159ZM47.6567 138.353C46.661 138.938 46.764 140.003 47.9314 140.656L53.1846 143.646C54.352 144.299 56.1717 144.368 57.1674 143.784L61.7339 141.103C62.764 140.519 62.6267 139.453 61.4249 138.8L56.1717 135.81C55.0043 135.157 53.1846 135.088 52.1545 135.673L47.6567 138.353ZM60.8756 174.476L99.8456 196.645L119.039 185.234L80.0687 163.065L60.8756 174.476Z" stroke="#55CBDC" stroke-miterlimit="10"/>
<path d="M225.751 137.46L236.944 89.8228C237.974 85.4578 235.88 80.1992 232.309 78.1713L120.034 14.6209C118.215 13.5898 116.395 13.5555 114.85 14.346C113.339 15.1021 111.725 16.4082 111.725 16.4082" stroke="#55CBDC" stroke-miterlimit="10"/>
<path d="M93.4592 87.8635L89.5793 104.499C88.927 107.248 89.5107 110.342 90.9184 112.748M224.103 136.325L234.678 91.2662C235.708 86.9012 233.614 81.6426 230.009 79.6147L117.734 16.0643C116.532 15.4113 115.33 15.1707 114.232 15.2738C111.931 15.5488 110.009 17.3704 109.322 20.3262L107.468 28.197" stroke="#55CBDC" stroke-miterlimit="10"/>
<path d="M111.21 30.1904L113.202 21.6322M169.682 150.761L96.5494 109.345C94.5923 108.245 93.6652 105.049 93.9399 103.88L97.1674 90.0631M113.236 21.6322L227.708 86.4199C229.631 87.5198 230.592 90.7162 230.283 91.8848L220.326 134.298" stroke="#55CBDC" stroke-miterlimit="10"/>
<path d="M73.4765 8.74372L153.992 55.2809V122.475L73.4765 75.9717V8.74372ZM73.1332 8.15942V76.1436L154.335 123.059V55.0747L73.1332 8.15942Z" fill="#55CBDC"/>
<path d="M73.4765 8.74372L153.992 55.2809V62.9454L73.4765 16.4083V8.74372ZM73.1332 8.15942V16.6145L154.335 63.5297V55.0747L73.1332 8.15942Z" fill="#55CBDC"/>
<path d="M139.193 50.194V50.6408L137.477 49.6441V49.1973L139.193 50.194Z" fill="#55CBDC"/>
<path d="M145.923 54.4554C145.923 55.6927 145.064 55.7615 144.24 55.2803C143.313 54.7647 142.627 53.6649 142.627 52.5994C142.627 51.4652 143.348 51.2246 144.309 51.7745C145.27 52.3588 145.923 53.4243 145.923 54.4554ZM143.245 52.9431C143.245 53.6649 143.657 54.4898 144.275 54.8335C144.858 55.1772 145.305 54.8679 145.305 54.1117C145.305 53.5274 145.03 52.6338 144.309 52.2214C143.554 51.8433 143.245 52.3245 143.245 52.9431Z" fill="#55CBDC"/>
<path d="M148.464 54.2836L148.944 55.2803C149.082 55.5553 149.185 55.7615 149.288 56.0365H149.322C149.425 55.899 149.562 55.7959 149.665 55.6584L150.146 55.2116L150.798 55.5897L149.665 56.552L150.833 58.9923L150.146 58.5799L149.665 57.5488C149.528 57.2738 149.425 57.0332 149.288 56.7582C149.185 56.8957 149.047 56.9988 148.944 57.1363L148.464 57.6175L147.777 57.2394L148.979 56.2083L147.846 53.9055L148.464 54.2836Z" fill="#55CBDC"/>
<path d="M105.854 47.6845L93.288 40.3981V38.3702L105.854 45.6223V47.6845Z" stroke="#55CBDC" stroke-miterlimit="10"/>
<path d="M91.056 39.1269L81.6139 33.6621V31.5999L91.056 37.0647V39.1269Z" stroke="#55CBDC" stroke-miterlimit="10"/>
<path d="M135.451 64.7666L113.957 52.359V50.2968L135.451 62.7387V64.7666Z" stroke="#55CBDC" stroke-miterlimit="10"/>
<path d="M111.726 51.053L108.086 48.9564V46.8942L111.726 49.0251V51.053Z" stroke="#55CBDC" stroke-miterlimit="10"/>
<path d="M141.322 68.1693L137.682 66.0727V64.0105L141.322 66.1071V68.1693Z" stroke="#55CBDC" stroke-miterlimit="10"/>
<path d="M91.0561 51.6373L81.614 46.1725V44.1447L91.0561 49.5751V51.6373Z" stroke="#55CBDC" stroke-miterlimit="10"/>
<path d="M105.854 60.1953L93.288 52.9432V50.881L105.854 58.1331V60.1953Z" stroke="#55CBDC" stroke-miterlimit="10"/>
<path d="M126.524 72.1564L113.958 64.8699V62.8077L126.524 70.0942V72.1564Z" stroke="#55CBDC" stroke-miterlimit="10"/>
<path d="M111.726 63.5979L108.086 61.5013V59.4391L111.726 61.5357V63.5979Z" stroke="#55CBDC" stroke-miterlimit="10"/>
<path d="M91.0561 47.4787L81.614 42.0139V39.9517L91.0561 45.4165V47.4787Z" stroke="#55CBDC" stroke-miterlimit="10"/>
<path d="M96.9275 50.8467L93.288 48.7501V46.6879L96.9275 48.8188V50.8467Z" stroke="#55CBDC" stroke-miterlimit="10"/>
<path d="M130.987 70.541L105.03 55.5556V53.4934L130.987 68.4788V70.541Z" stroke="#55CBDC" stroke-miterlimit="10"/>
<path d="M102.799 54.2496L99.1592 52.153V50.0908L102.799 52.1874V54.2496Z" stroke="#55CBDC" stroke-miterlimit="10"/>
<path d="M145.82 79.0988L133.219 71.8468V69.7845L145.82 77.0366V79.0988Z" stroke="#55CBDC" stroke-miterlimit="10"/>
<path d="M111.726 55.2462L99.1592 47.9597V45.9319L111.726 53.184V55.2462Z" stroke="#55CBDC" stroke-miterlimit="10"/>
<path d="M126.524 63.8044L113.958 56.5179V54.4901L126.524 61.7422V63.8044Z" stroke="#55CBDC" stroke-miterlimit="10"/>
<path d="M91.0561 43.2853L81.614 37.8204V35.7926L91.0561 41.2231V43.2853Z" stroke="#55CBDC" stroke-miterlimit="10"/>
<path d="M96.9275 46.6877L93.288 44.5911V42.5289L96.9275 44.6255V46.6877Z" stroke="#55CBDC" stroke-miterlimit="10"/>
<path d="M91.0561 55.8303L81.614 50.3654V48.3032L91.0561 53.7681V55.8303Z" stroke="#55CBDC" stroke-miterlimit="10"/>
<path d="M108.086 63.5978L129.614 76.0398V78.102L108.086 65.66V63.5978Z" stroke="#55CBDC" stroke-miterlimit="10"/>
<path d="M93.288 55.0397L105.854 62.3261V64.354L93.288 57.1019V55.0397Z" stroke="#55CBDC" stroke-miterlimit="10"/>
<path d="M131.846 77.3115L135.451 79.4081V81.4703L131.846 79.3737V77.3115Z" stroke="#55CBDC" stroke-miterlimit="10"/>
<path d="M91.0561 76.6932L81.614 71.2283V69.1661L91.0561 74.631V76.6932Z" stroke="#55CBDC" stroke-miterlimit="10"/>
<path d="M128.756 96.4215L141.322 103.674V105.736L128.756 98.4837V96.4215Z" stroke="#55CBDC" stroke-miterlimit="10"/>
<path d="M99.1592 79.3052L120.653 91.7472V93.8094L99.1592 81.3674V79.3052Z" stroke="#55CBDC" stroke-miterlimit="10"/>
<path d="M122.885 93.0189L126.524 95.1155V97.1777L122.885 95.0811V93.0189Z" stroke="#55CBDC" stroke-miterlimit="10"/>
<path d="M93.288 75.9026L96.9275 78.0335V80.0614L93.288 77.9648V75.9026Z" stroke="#55CBDC" stroke-miterlimit="10"/>
<path d="M91.0561 64.148L81.614 58.7175V56.6553L91.0561 62.1201V64.148Z" stroke="#55CBDC" stroke-miterlimit="10"/>
<path d="M113.958 75.3522L126.524 82.6043V84.6665L113.958 77.4144V75.3522Z" stroke="#55CBDC" stroke-miterlimit="10"/>
<path d="M93.288 63.3915L105.854 70.6779V72.7058L93.288 65.4537V63.3915Z" stroke="#55CBDC" stroke-miterlimit="10"/>
<path d="M108.086 71.9498L111.726 74.0464V76.1086L108.086 74.012V71.9498Z" stroke="#55CBDC" stroke-miterlimit="10"/>
<path d="M91.0561 68.3411L81.614 62.8763V60.8141L91.0561 66.2789V68.3411Z" stroke="#55CBDC" stroke-miterlimit="10"/>
<path d="M142.181 95.8031L145.786 97.9341V99.9619L142.181 97.8653V95.8031Z" stroke="#55CBDC" stroke-miterlimit="10"/>
<path d="M108.086 76.1436L134.077 91.1289V93.1911L108.086 78.1714V76.1436Z" stroke="#55CBDC" stroke-miterlimit="10"/>
<path d="M136.309 92.4349L139.949 94.5315V96.5937L136.309 94.4628V92.4349Z" stroke="#55CBDC" stroke-miterlimit="10"/>
<path d="M93.288 67.5852L105.854 74.8373V76.8995L93.288 69.6131V67.5852Z" stroke="#55CBDC" stroke-miterlimit="10"/>
<path d="M91.0561 72.5L81.614 67.0352V65.0073L91.0561 70.4722V72.5Z" stroke="#55CBDC" stroke-miterlimit="10"/>
<path d="M103.623 77.7236L116.189 84.9757V87.0379L103.623 79.7858V77.7236Z" stroke="#55CBDC" stroke-miterlimit="10"/>
<path d="M93.288 71.7437L101.391 76.418V78.4802L93.288 73.8059V71.7437Z" stroke="#55CBDC" stroke-miterlimit="10"/>
<path d="M118.421 86.2822L122.06 88.3788V90.441L118.421 88.3444V86.2822Z" stroke="#55CBDC" stroke-miterlimit="10"/>
<path d="M91.0561 59.9891L81.614 54.5242V52.462L91.0561 57.9269V59.9891Z" stroke="#55CBDC" stroke-miterlimit="10"/>
<path d="M120.653 77.1058L99.1592 64.6638V62.6016L120.653 75.0436V77.1058Z" stroke="#55CBDC" stroke-miterlimit="10"/>
<path d="M135.451 85.6636L122.885 78.3771V76.3492L135.451 83.6013V85.6636Z" stroke="#55CBDC" stroke-miterlimit="10"/>
<path d="M96.9275 63.3919L93.288 61.261V59.2332L96.9275 61.3297V63.3919Z" stroke="#55CBDC" stroke-miterlimit="10"/>
<path d="M198.936 96.5938C198.112 95.7689 197.459 94.8753 196.944 93.9129L198.764 92.7787C199.554 94.291 200.412 95.3221 201.408 95.872C202.747 96.6625 203.434 96.2501 203.434 94.6691V87.8638L198.421 84.9767V82.3302L206.73 87.142V96.422C206.73 98.1748 206.283 99.2403 205.425 99.6184C204.567 99.9964 203.262 99.6871 201.58 98.7248C200.618 98.1061 199.76 97.4187 198.936 96.5938Z" fill="#55CBDC"/>
<path d="M219.09 105.496L212.464 101.646L211.193 103.983L207.794 102.024L214.146 91.4039L217.408 93.2943L223.794 111.27L220.326 109.276L219.09 105.496ZM218.06 102.368L215.794 95.5971L213.528 99.7559L218.06 102.368Z" fill="#55CBDC"/>
<path d="M238.283 105.324L232.103 116.047L228.841 114.157L222.695 96.2844L226.266 98.3466L230.627 111.064L235.022 103.399L238.283 105.324Z" fill="#55CBDC"/>
<path d="M248.412 122.406L241.786 118.556L240.515 120.893L237.116 118.934L243.468 108.314L246.73 110.204L253.116 128.18L249.648 126.186L248.412 122.406ZM247.382 119.312L245.116 112.507L242.85 116.666L247.382 119.312Z" fill="#55CBDC"/>
<path d="M156.67 7.74687V21.1169L153.58 19.3296V13.8648L147.502 10.359V15.8239L144.412 14.0366V0.666626L147.502 2.45387V7.7125L153.58 11.2183V5.95963L156.67 7.74687Z" fill="#55CBDC"/>
<path d="M162.609 13.6933L158.352 11.2186V8.70959L169.991 15.4461V17.9552L165.734 15.4805V26.3415L162.644 24.5542V13.6933H162.609Z" fill="#55CBDC"/>
<path d="M183.794 36.7555L183.76 28.7128L179.845 33.0435L178.438 32.253L174.524 23.5573V31.3937L171.639 29.7096V16.3396L174.18 17.8175L179.193 29.0222L184.103 23.5573L186.644 25.0352L186.678 38.4396L183.794 36.7555Z" fill="#55CBDC"/>
<path d="M189.837 26.9257L192.927 28.7129V39.5739L199.622 43.4577V45.9667L189.837 40.2613V26.9257Z" fill="#55CBDC"/>
<path d="M9.4764 57.1709C10.4034 58.1332 11.1245 59.13 11.6395 60.1954C12.1545 61.2609 12.3949 62.3264 12.3949 63.3919C12.3949 64.423 12.1545 65.2135 11.6395 65.6946C11.1245 66.1758 10.4034 66.3821 9.4764 66.2446C8.54936 66.1071 7.45065 65.6947 6.18026 64.9729L3.29614 63.3231V67.2757L0 65.3509V51.053L6.18026 54.6275C7.41631 55.3492 8.51503 56.2085 9.4764 57.1709ZM8.24035 62.8419C8.75537 62.7045 9.03005 62.2576 9.03005 61.4671C9.03005 60.6766 8.75537 59.8861 8.24035 59.1643C7.72533 58.4426 6.96996 57.7895 5.97425 57.2052L3.29614 55.6586V60.6079L5.97425 62.1545C6.96996 62.7388 7.72533 62.9794 8.24035 62.8419Z" fill="#55CBDC"/>
<path d="M27.8113 67.138V81.436L24.5151 79.5112V73.6683L18.0259 69.8876V75.7305L14.7297 73.8058V59.5078L18.0259 61.4325V67.0692L24.5151 70.8156V65.1789L27.8113 67.138Z" fill="#55CBDC"/>
<path d="M40.6524 75.1812C41.5795 76.1436 42.3005 77.1403 42.8155 78.2058C43.3305 79.2713 43.5709 80.3368 43.5709 81.4022C43.5709 82.4333 43.3305 83.2239 42.8155 83.705C42.3005 84.1862 41.5795 84.3924 40.6524 84.2549C39.7254 84.1175 38.6267 83.705 37.3563 82.9833L34.4722 81.3335V85.2861L31.176 83.3613V69.0634L37.3563 72.6378C38.6267 73.394 39.7254 74.2189 40.6524 75.1812ZM39.4507 80.8867C39.9657 80.7492 40.2404 80.3024 40.2404 79.5119C40.2404 78.7214 39.9657 77.9308 39.4507 77.2091C38.9357 76.4873 38.1803 75.8343 37.1846 75.25L34.5065 73.7033V78.6526L37.1846 80.1993C38.1803 80.7836 38.9357 80.9898 39.4507 80.8867Z" fill="#55CBDC"/>
<path d="M267.125 190.596C266.953 190.768 266.644 190.836 266.232 190.733C266.644 191.077 266.919 191.421 267.125 191.833C267.296 192.211 267.399 192.692 267.399 193.277V195.992C267.399 196.404 267.502 196.782 267.708 197.092C267.914 197.435 268.223 197.71 268.67 197.917L268.979 198.088V200.151L267.983 199.601C266.919 199.016 266.095 198.329 265.545 197.504C264.996 196.679 264.721 195.786 264.721 194.789V191.696C264.721 191.421 264.652 191.214 264.515 191.008C264.378 190.802 264.206 190.63 263.966 190.493L263.382 190.183V188.121L263.966 188.43C264.206 188.568 264.412 188.602 264.515 188.533C264.652 188.465 264.721 188.293 264.721 188.052V184.959C264.721 183.962 264.996 183.378 265.545 183.137C266.095 182.897 266.919 183.069 267.983 183.653L268.979 184.203V186.265L268.67 186.093C268.258 185.887 267.949 185.818 267.708 185.921C267.502 186.024 267.399 186.265 267.399 186.677V189.393C267.399 190.011 267.296 190.389 267.125 190.596Z" fill="#55CBDC"/>
<path d="M280 197.023V199.086L279.416 198.776C279.176 198.639 278.97 198.604 278.867 198.673C278.73 198.742 278.661 198.914 278.661 199.154V202.248C278.661 203.244 278.386 203.829 277.837 204.069C277.288 204.31 276.464 204.138 275.399 203.554L274.403 203.004V200.942L274.712 201.113C275.124 201.32 275.433 201.388 275.64 201.285C275.846 201.182 275.949 200.942 275.949 200.529V197.814C275.949 197.23 276.052 196.852 276.223 196.68C276.395 196.508 276.704 196.439 277.116 196.542C276.704 196.198 276.429 195.855 276.223 195.442C276.052 195.064 275.949 194.583 275.949 193.999V191.284C275.949 190.871 275.846 190.493 275.64 190.184C275.433 189.84 275.124 189.565 274.712 189.359L274.403 189.187V187.125L275.399 187.675C276.464 188.259 277.288 188.946 277.837 189.771C278.386 190.596 278.661 191.49 278.661 192.487V195.58C278.661 195.855 278.73 196.061 278.867 196.267C279.004 196.473 279.176 196.645 279.416 196.783L280 197.023Z" fill="#55CBDC"/>
<path d="M232.996 52.1189C232.309 51.4658 231.76 50.7097 231.314 49.9192L232.859 48.9224C233.511 50.1598 234.266 50.9847 235.125 51.4315C236.258 52.0501 236.842 51.6721 236.842 50.366V44.6949L232.584 42.4265V40.2268L239.623 43.9731V51.7064C239.623 53.1843 239.245 54.078 238.524 54.4217C237.769 54.7654 236.704 54.5592 235.262 53.7686C234.438 53.3562 233.683 52.8063 232.996 52.1189Z" fill="#55CBDC"/>
<path d="M243.09 57.5837C242.335 56.9994 241.751 56.4494 241.339 55.9339L242.232 54.5247C242.644 55.0059 243.159 55.4871 243.743 55.9683C244.326 56.4494 244.91 56.8275 245.459 57.1368C246.592 57.7555 247.176 57.7555 247.176 57.2056C247.176 56.9306 247.004 56.69 246.695 56.3807C246.386 56.1057 245.906 55.762 245.253 55.3152C244.498 54.7997 243.846 54.3185 243.365 53.9061C242.884 53.4936 242.438 53.0124 242.06 52.4281C241.683 51.8439 241.511 51.2252 241.511 50.5378C241.511 49.9535 241.683 49.541 242.026 49.2661C242.369 48.9911 242.85 48.9224 243.502 49.0255C244.155 49.1286 244.91 49.4036 245.803 49.8847C246.455 50.2284 247.107 50.6409 247.76 51.1564C248.412 51.6376 248.962 52.1188 249.374 52.6L248.481 54.0092C247.657 53.1155 246.764 52.4281 245.803 51.9126C245.219 51.6033 244.807 51.4658 244.498 51.4658C244.223 51.4658 244.052 51.6033 244.052 51.8438C244.052 52.1188 244.223 52.3938 244.532 52.7031C244.841 52.9781 245.356 53.3561 246.009 53.8029C246.764 54.3185 247.382 54.7997 247.863 55.2121C248.344 55.6246 248.756 56.1057 249.133 56.6557C249.477 57.2056 249.683 57.8242 249.683 58.5117C249.683 59.0959 249.511 59.5084 249.168 59.749C248.824 60.0239 248.309 60.0927 247.657 59.9552C247.004 59.8521 246.215 59.5428 245.288 59.0616C244.567 58.6835 243.811 58.168 243.09 57.5837Z" fill="#55CBDC"/>
<path d="M69.7339 100.306C69.4249 98.9651 69.2532 97.659 69.2532 96.3186C69.2532 95.0125 69.4249 93.844 69.7339 92.8472C70.0429 91.8505 70.5236 91.0944 71.1073 90.5444L73.3047 91.713C72.6867 92.4692 72.2403 93.294 71.9656 94.2564C71.691 95.2188 71.5536 96.3186 71.5536 97.5216C71.5536 98.7589 71.691 99.9962 71.9656 101.268C72.2403 102.54 72.6867 103.846 73.3047 105.255L71.1073 104.086C70.4892 102.883 70.0429 101.612 69.7339 100.306Z" fill="#55CBDC"/>
<path d="M77.7339 107.627C78.3519 106.871 78.7983 106.046 79.1073 105.083C79.382 104.121 79.5536 103.055 79.5536 101.818C79.5536 100.581 79.4163 99.3435 79.1073 98.0718C78.8326 96.8001 78.3519 95.494 77.7339 94.0848L79.9313 95.2534C80.515 96.422 80.9957 97.6937 81.3047 98.9998C81.6137 100.34 81.7854 101.646 81.7854 102.987C81.7854 104.327 81.6137 105.461 81.3047 106.458C80.9957 107.455 80.515 108.211 79.9313 108.761L77.7339 107.627Z" fill="#55CBDC"/>
<path d="M158.798 207.472L153.03 206.475L158.798 211.596V213.727L150.558 206.269V204.069L158.798 205.375V207.472Z" fill="#55CBDC"/>
<path d="M165.013 204.481L167.416 205.752L161.682 218.744L159.279 217.473L165.013 204.481Z" fill="#55CBDC"/>
<path d="M175.966 217.577V219.776L167.725 218.47V216.339L173.494 217.336L167.725 212.181V210.118L175.966 217.577Z" fill="#55CBDC"/>
<path d="M170.026 105.633L254.215 154.301V229.881L170.026 181.247V105.633ZM169.682 105.049V181.454L254.558 230.5V154.095L169.682 105.049Z" fill="#55CBDC"/>
<path d="M170.026 105.633L254.215 154.301V162.344L170.026 113.676V105.633ZM169.682 105.049V113.882L254.558 162.928V154.095L169.682 105.049Z" fill="#55CBDC"/>
<path d="M238.764 148.973V149.455L236.979 148.424V147.942L238.764 148.973Z" fill="#55CBDC"/>
<path d="M245.802 153.476C245.802 154.782 244.91 154.817 244.051 154.335C243.09 153.785 242.369 152.651 242.369 151.551C242.369 150.383 243.124 150.142 244.12 150.692C245.116 151.242 245.802 152.376 245.802 153.476ZM243.021 151.895C243.021 152.651 243.468 153.511 244.086 153.854C244.704 154.198 245.15 153.889 245.15 153.098C245.15 152.514 244.841 151.586 244.086 151.139C243.33 150.692 243.021 151.208 243.021 151.895Z" fill="#55CBDC"/>
<path d="M248.446 153.27L248.961 154.301C249.099 154.576 249.202 154.816 249.305 155.091H249.339C249.442 154.954 249.579 154.816 249.682 154.713L250.163 154.232L250.85 154.644L249.648 155.641L250.884 158.185L250.163 157.772L249.648 156.672C249.511 156.397 249.408 156.122 249.27 155.847C249.167 155.985 249.03 156.122 248.893 156.26L248.378 156.775L247.656 156.363L248.893 155.298L247.691 152.892L248.446 153.27Z" fill="#55CBDC"/>
<path d="M184.618 157.016L176.069 152.101V150.245L184.618 155.16V157.016Z" stroke="#55CBDC" stroke-miterlimit="10"/>
<path d="M184.618 153.236L176.069 148.321V146.465L184.618 151.414V153.236Z" stroke="#55CBDC" stroke-miterlimit="10"/>
<path d="M184.618 160.797L176.069 155.847V153.991L184.618 158.941V160.797Z" stroke="#55CBDC" stroke-miterlimit="10"/>
<path d="M184.618 179.632L176.069 174.683V172.827L184.618 177.776V179.632Z" stroke="#55CBDC" stroke-miterlimit="10"/>
<path d="M184.618 168.324L176.069 163.409V161.553L184.618 166.468V168.324Z" stroke="#55CBDC" stroke-miterlimit="10"/>
<path d="M184.618 172.07L176.069 167.156V165.3L184.618 170.215V172.07Z" stroke="#55CBDC" stroke-miterlimit="10"/>
<path d="M184.618 175.851L176.069 170.936V169.08L184.618 173.995V175.851Z" stroke="#55CBDC" stroke-miterlimit="10"/>
<path d="M184.618 164.543L176.069 159.628V157.772L184.618 162.687V164.543Z" stroke="#55CBDC" stroke-miterlimit="10"/>
<path d="M197.323 168.118L188.807 163.203V161.347L197.323 166.262V168.118Z" stroke="#55CBDC" stroke-miterlimit="10"/>
<path d="M197.322 186.953L188.807 182.038V180.182L197.322 185.097V186.953Z" stroke="#55CBDC" stroke-miterlimit="10"/>
<path d="M197.322 175.679L188.807 170.73V168.874L197.322 173.823V175.679Z" stroke="#55CBDC" stroke-miterlimit="10"/>
<path d="M197.322 179.426L188.807 174.511V172.655L197.322 177.57V179.426Z" stroke="#55CBDC" stroke-miterlimit="10"/>
<path d="M197.322 183.206L188.807 178.257V176.435L197.322 181.35V183.206Z" stroke="#55CBDC" stroke-miterlimit="10"/>
<path d="M197.322 171.899L188.807 166.984V165.128L197.322 170.043V171.899Z" stroke="#55CBDC" stroke-miterlimit="10"/>
<path d="M210.026 171.727L201.511 166.778V164.922L210.026 169.871V171.727Z" stroke="#55CBDC" stroke-miterlimit="10"/>
<path d="M210.026 167.946L201.511 163.031V161.175L210.026 166.09V167.946Z" stroke="#55CBDC" stroke-miterlimit="10"/>
<path d="M210.026 175.473L201.511 170.558V168.702L210.026 173.617V175.473Z" stroke="#55CBDC" stroke-miterlimit="10"/>
<path d="M210.026 194.308L201.511 189.393V187.537L210.026 192.452V194.308Z" stroke="#55CBDC" stroke-miterlimit="10"/>
<path d="M210.026 183L201.511 178.085V176.229L210.026 181.144V183Z" stroke="#55CBDC" stroke-miterlimit="10"/>
<path d="M210.026 186.781L201.511 181.866V180.01L210.026 184.925V186.781Z" stroke="#55CBDC" stroke-miterlimit="10"/>
<path d="M210.026 190.527L201.511 185.612V183.756L210.026 188.706V190.527Z" stroke="#55CBDC" stroke-miterlimit="10"/>
<path d="M210.026 179.254L201.511 174.305V172.483L210.026 177.398V179.254Z" stroke="#55CBDC" stroke-miterlimit="10"/>
<path d="M222.73 201.663L214.215 196.748V194.892L222.73 199.807V201.663Z" stroke="#55CBDC" stroke-miterlimit="10"/>
<path d="M222.729 194.136L214.214 189.186V187.33L222.729 192.28V194.136Z" stroke="#55CBDC" stroke-miterlimit="10"/>
<path d="M222.73 197.882L214.215 192.968V191.112L222.73 196.026V197.882Z" stroke="#55CBDC" stroke-miterlimit="10"/>
<path d="M235.433 175.095L226.918 170.18V168.324L235.433 173.239V175.095Z" stroke="#55CBDC" stroke-miterlimit="10"/>
<path d="M235.433 186.403L226.918 181.488V179.632L235.433 184.547V186.403Z" stroke="#55CBDC" stroke-miterlimit="10"/>
<path d="M235.433 182.656L226.918 177.707V175.851L235.433 180.8V182.656Z" stroke="#55CBDC" stroke-miterlimit="10"/>
<path d="M235.433 178.876L226.918 173.961V172.105L235.433 177.02V178.876Z" stroke="#55CBDC" stroke-miterlimit="10"/>
<path d="M235.433 190.183L226.918 185.234V183.378L235.433 188.327V190.183Z" stroke="#55CBDC" stroke-miterlimit="10"/>
<path d="M235.433 209.018L226.918 204.069V202.213L235.433 207.162V209.018Z" stroke="#55CBDC" stroke-miterlimit="10"/>
<path d="M235.433 197.71L226.918 192.796V190.94L235.433 195.855V197.71Z" stroke="#55CBDC" stroke-miterlimit="10"/>
<path d="M235.433 201.456L226.918 196.541V194.685L235.433 199.6V201.456Z" stroke="#55CBDC" stroke-miterlimit="10"/>
<path d="M235.433 205.237L226.918 200.323V198.467L235.433 203.381V205.237Z" stroke="#55CBDC" stroke-miterlimit="10"/>
<path d="M235.433 193.93L226.918 189.015V187.159L235.433 192.074V193.93Z" stroke="#55CBDC" stroke-miterlimit="10"/>
<path d="M248.172 197.505L239.656 192.59V190.734L248.172 195.649V197.505Z" stroke="#55CBDC" stroke-miterlimit="10"/>
<path d="M248.172 216.339L239.656 211.424V209.568L248.172 214.483V216.339Z" stroke="#55CBDC" stroke-miterlimit="10"/>
<path d="M248.172 205.066L239.656 200.117V198.261L248.172 203.21V205.066Z" stroke="#55CBDC" stroke-miterlimit="10"/>
<path d="M248.172 208.812L239.656 203.897V202.041L248.172 206.956V208.812Z" stroke="#55CBDC" stroke-miterlimit="10"/>
<path d="M248.172 212.593L239.656 207.643V205.787L248.172 210.737V212.593Z" stroke="#55CBDC" stroke-miterlimit="10"/>
<path d="M248.172 201.285L239.656 196.37V194.514L248.172 199.429V201.285Z" stroke="#55CBDC" stroke-miterlimit="10"/>
</g>
</svg>
