<svg width="282" height="159" viewBox="0 0 282 159" fill="none" xmlns="http://www.w3.org/2000/svg">
<g opacity="0.1">
<path d="M232.323 97.0781L132.852 154.583C125.021 159.123 113.139 159.607 106.336 155.673L70.3878 134.88" stroke="#55CBDC" stroke-miterlimit="10"/>
<path d="M245.384 89.542L241.877 91.5698" stroke="#55CBDC" stroke-miterlimit="10"/>
<path d="M281 58.5197C281 58.5197 280.94 56.0682 281 58.5197C281 58.7316 281 64.361 280.97 64.5729C280.728 67.4179 278.551 70.3839 274.5 72.7144L254.364 84.3364" stroke="#55CBDC" stroke-miterlimit="10"/>
<path d="M171.612 28.95L176.087 26.3472" stroke="#55CBDC" stroke-miterlimit="10"/>
<path d="M202.754 14.8162C207.742 14.5135 212.64 15.361 216.147 17.419L276.374 52.2246C283.177 56.1591 282.33 62.9992 274.469 67.539L132.852 149.408C125.021 153.948 113.139 154.432 106.336 150.497L74.681 132.217" stroke="#55CBDC" stroke-miterlimit="10"/>
<path d="M246.291 89.3605L253.457 85.2141C254.364 84.6996 255.089 83.3073 255.089 82.127C255.089 80.9466 254.364 80.3716 253.457 80.9164L246.291 85.0628C245.384 85.5773 244.658 86.9695 244.658 88.1499C244.689 89.3302 245.414 89.9053 246.291 89.3605Z" stroke="#55CBDC" stroke-miterlimit="10"/>
<path d="M245.656 89.1486C245.777 89.1486 245.928 89.0881 246.079 88.9973L253.245 84.8509C254.001 84.3969 254.666 83.156 254.666 82.1269C254.666 81.673 254.515 81.1282 254.122 81.1282C254.001 81.1282 253.85 81.1887 253.698 81.2795L246.503 85.4259C245.747 85.8799 245.082 87.1208 245.082 88.1498C245.112 88.6038 245.263 89.1486 245.656 89.1486Z" stroke="#55CBDC" stroke-miterlimit="10"/>
<path d="M233.502 96.7758L240.667 92.6294C241.574 92.1149 242.3 90.7226 242.3 89.5423C242.3 88.3619 241.574 87.7869 240.667 88.3316L233.502 92.4478C232.595 92.9623 231.869 94.3545 231.869 95.5349C231.899 96.7455 232.625 97.2903 233.502 96.7758Z" stroke="#55CBDC" stroke-miterlimit="10"/>
<path d="M232.867 96.5333C232.988 96.5333 233.139 96.4728 233.29 96.382L240.456 92.2356C241.212 91.7816 241.877 90.5407 241.877 89.5117C241.877 89.0577 241.726 88.5129 241.333 88.5129C241.212 88.5129 241.061 88.5735 240.909 88.6643L233.744 92.8106C232.988 93.2646 232.323 94.5055 232.323 95.5346C232.323 95.9885 232.474 96.5333 232.867 96.5333Z" stroke="#55CBDC" stroke-miterlimit="10"/>
<path d="M176.571 31.6439L180.743 29.2227C180.471 29.1016 180.199 28.9503 179.927 28.7384L175.603 31.2505C175.875 31.4018 176.147 31.5531 176.48 31.6136C176.51 31.6439 176.54 31.6439 176.571 31.6439Z" fill="#55CBDC"/>
<path d="M269.692 53.1625L212.398 20.0519C211.673 19.6281 210.917 19.2952 210.07 18.9926C210.735 19.5071 248.014 41.2378 248.226 41.3286C249.284 41.8432 250.282 42.4787 251.37 42.9025C251.703 43.0235 251.763 43.417 251.643 43.6591L269.269 53.8284C271.416 55.0693 272.595 56.7036 272.595 58.3985C272.595 60.0934 271.416 61.6975 269.299 62.9081L126.684 145.412C124.507 146.684 121.574 147.38 118.46 147.38C115.316 147.38 112.353 146.684 110.146 145.382L80.9093 128.494C80.6372 128.645 80.3349 128.797 80.0627 128.948L109.723 146.078C112.051 147.44 115.165 148.167 118.46 148.167C121.726 148.167 124.779 147.44 127.107 146.109L269.753 63.6647C272.141 62.3028 273.441 60.4263 273.441 58.4288C273.441 56.4312 272.111 54.5548 269.692 53.1625Z" fill="#55CBDC"/>
<path d="M166.049 82.6716L156.797 77.3448L154.651 78.5857L163.872 83.9125L166.049 82.6716ZM161.846 86.0008L150.841 79.645L148.695 80.8859L159.7 87.2417L161.846 86.0008ZM175.361 88.0892L167.803 83.7309L165.656 84.9718L173.215 89.3301L175.361 88.0892ZM180.108 90.8131L177.175 89.1182L175.029 90.3591L177.961 92.054L180.108 90.8131ZM131.038 70.6864L133.245 71.9575L135.391 70.7167L133.124 69.4152L131.038 70.6864ZM163.63 87.0299L161.484 88.2708L164.386 89.9354L166.533 88.6945L163.63 87.0299ZM150.599 73.7432L138.596 66.8124L136.45 68.0533L148.453 74.9841L150.599 73.7432ZM155.044 76.3158L152.383 74.7723L150.237 76.0132L152.897 77.5567L155.044 76.3158ZM149.057 78.616L143.283 75.2868L141.136 76.5277L146.911 79.8569L149.057 78.616ZM137.175 71.7457L135.029 72.9866L139.352 75.4986L141.499 74.2577L137.175 71.7457ZM166.14 90.9644L174.031 95.5345L176.178 94.2936L168.286 89.7235L166.14 90.9644ZM191.597 97.4715L181.862 91.8421L179.715 93.083L189.45 98.7124L191.597 97.4715ZM197.886 101.103L193.381 98.5006L191.234 99.7415L195.739 102.344L197.886 101.103ZM146.306 92.2356L153.562 96.4122L155.165 95.474L147.908 91.2973L146.306 92.2356ZM160.486 96.1701L167.531 100.286L169.133 99.348L162.088 95.2319L160.486 96.1701ZM153.532 100.68L163.63 106.582L165.233 105.643L155.134 99.7415L153.532 100.68ZM154.893 97.1689L165.868 103.585L167.47 102.647L156.495 96.2307L154.893 97.1689ZM137.871 95.8675L146.094 100.649L147.697 99.7112L139.413 94.899L137.871 95.8675ZM125.354 75.8013L134.273 80.9767L135.875 80.0385L126.956 74.863L125.354 75.8013ZM147.092 88.3918L159.156 95.4135L160.758 94.4752L148.695 87.4536L147.092 88.3918ZM147.818 105.916L149.42 104.977L140.773 99.9533L139.171 100.892L147.818 105.916ZM163.842 109.124L149.027 100.498L147.425 101.436L162.24 110.062L163.842 109.124ZM147.394 86.697L140.531 82.7321L138.929 83.6704L145.792 87.6352L147.394 86.697ZM133.819 97.8045L137.871 100.135L139.473 99.1967L135.391 96.836L133.819 97.8045ZM130.07 99.9231L131.249 100.619L132.852 99.6809L131.794 99.0756L130.07 99.9231ZM132.58 101.346L138.445 104.735L140.048 103.797L134.182 100.407L132.58 101.346ZM178.657 104.856L177.054 105.795L183.857 109.669L185.459 108.73L178.657 104.856ZM171.28 110.97L176.45 113.906L178.052 112.968L172.882 110.032L171.28 110.97ZM163.691 110.879L172.761 116.055L174.364 115.116L165.293 109.941L163.691 110.879ZM162.179 114.269L168.982 118.143L170.584 117.205L163.781 113.361L162.179 114.269ZM149.148 106.703L160.879 113.512L162.481 112.574L150.75 105.764L149.148 106.703ZM168.861 101.043L175.724 105.008L177.326 104.069L170.463 100.105L168.861 101.043ZM135.603 81.7334L137.599 82.8835L139.201 81.9452L137.206 80.7951L135.603 81.7334ZM181.62 110.788L168.528 103.283L166.926 104.221L180.017 111.727L181.62 110.788ZM171.824 109.457L166.563 106.4L164.961 107.338L170.252 110.395L171.824 109.457ZM153.804 98.9848L144.794 93.7186L143.192 94.6568L152.202 99.9231L153.804 98.9848Z" stroke="#55CBDC" stroke-miterlimit="10"/>
<path d="M246.956 59.7302L255.18 64.4819C255.512 64.6635 256.057 64.6938 256.419 64.4819C256.752 64.3003 256.752 63.9674 256.419 63.7858L248.196 59.0341C247.863 58.8525 247.319 58.8223 246.956 59.0341C246.593 59.2157 246.593 59.5486 246.956 59.7302ZM254.333 64.9662L246.11 60.2145C245.777 60.0329 245.233 60.0026 244.87 60.2145C244.537 60.3961 244.537 60.729 244.87 60.9106L253.094 65.6623C253.426 65.8439 253.971 65.8742 254.333 65.6623C254.666 65.4807 254.666 65.1781 254.333 64.9662ZM252.277 66.1768L244.054 61.4251C243.721 61.2435 243.177 61.2132 242.814 61.4251C242.481 61.6067 242.481 61.9396 242.814 62.1212L251.038 66.8729C251.37 67.0545 251.915 67.0848 252.277 66.8729C252.61 66.6913 252.61 66.3584 252.277 66.1768Z" fill="#55CBDC"/>
<path d="M210.917 68.8406L191.506 66.4193L192.293 68.5379" stroke="#55CBDC" stroke-miterlimit="10"/>
<path d="M223.615 70.4134L216.359 69.5063" stroke="#55CBDC" stroke-miterlimit="10"/>
<path d="M196.495 79.6757L203.479 98.1983L246.382 73.2593L229.148 71.1105" stroke="#55CBDC" stroke-miterlimit="10"/>
<path d="M159.458 62.4242L147.667 60.9412" stroke="#55CBDC" stroke-miterlimit="10"/>
<path d="M190.72 67.5993L190.206 66.2676L187.757 65.965" stroke="#55CBDC" stroke-miterlimit="10"/>
<path d="M142.89 63.786L202.179 98.0468L195.376 79.9782" stroke="#55CBDC" stroke-miterlimit="10"/>
<path d="M227.546 70.2023L246.079 72.5025L186.699 38.1812" stroke="#55CBDC" stroke-miterlimit="10"/>
<path d="M214.817 68.5983L222.013 69.5053" stroke="#55CBDC" stroke-miterlimit="10"/>
<path d="M187.274 55.1907L191.234 65.6626L211.552 68.2049" stroke="#55CBDC" stroke-miterlimit="10"/>
<path d="M184.522 47.8663L186.76 53.7984" stroke="#55CBDC" stroke-miterlimit="10"/>
<path d="M181.952 41.0261L183.313 44.6883" stroke="#55CBDC" stroke-miterlimit="10"/>
<path d="M181.741 43.7805L180.924 41.6316" stroke="#55CBDC" stroke-miterlimit="10"/>
<path d="M184.492 51.1049L182.95 46.9585" stroke="#55CBDC" stroke-miterlimit="10"/>
<path d="M186.306 65.0574L189.934 65.5114L185.097 52.709" stroke="#55CBDC" stroke-miterlimit="10"/>
<path d="M148.725 60.3661L159.065 61.6675" stroke="#55CBDC" stroke-miterlimit="10"/>
<path d="M126.684 123.561L94.6658 123.5L126.775 142.053L126.684 123.561Z" stroke="#55CBDC" stroke-miterlimit="10"/>
<path d="M127.773 104.372L127.863 122.865L159.881 122.925L127.773 104.372Z" stroke="#55CBDC" stroke-miterlimit="10"/>
<path d="M126.684 122.865L126.593 104.372L94.6659 122.804L126.684 122.865Z" stroke="#55CBDC" stroke-miterlimit="10"/>
<path d="M159.881 123.621L127.893 123.561L127.984 142.053L159.881 123.621Z" stroke="#55CBDC" stroke-miterlimit="10"/>
<g opacity="0.15">
<g opacity="0.15">
<path opacity="0.15" d="M208.77 62.6966L210.917 61.4557L201.695 56.129L199.549 57.3699L208.77 62.6966ZM195.739 58.4292L193.593 59.6701L204.598 66.0259L206.745 64.785L195.739 58.4292ZM218.113 68.1142L220.259 66.8733L212.701 62.515L210.554 63.7559L218.113 68.1142ZM222.043 67.8721L219.897 69.113L228.967 74.3187L231.113 73.0778L222.043 67.8721ZM208.498 65.814L206.352 67.0549L209.254 68.7195L211.401 67.4786L208.498 65.814ZM194.832 52.1339L178.959 43.0239L176.813 44.2648L192.686 53.3748L194.832 52.1339ZM197.765 56.3408L199.912 55.0999L196.586 53.1629L194.439 54.4038L197.765 56.3408ZM188.181 54.0709L186.034 55.3118L191.809 58.641L193.955 57.4001L188.181 54.0709ZM180.138 49.4403L177.992 50.6811L184.25 54.2525L186.397 53.0116L180.138 49.4403ZM211.038 69.7485L218.929 74.3187L221.076 73.0778L213.185 68.5076L211.038 69.7485Z" fill="#55CBDC"/>
</g>
</g>
<path d="M208.77 61.849L210.917 60.6081L201.695 55.2813L199.549 56.5222L208.77 61.849ZM195.739 57.5815L193.593 58.8224L204.598 65.1782L206.745 63.9373L195.739 57.5815ZM218.113 67.2665L220.259 66.0256L212.701 61.6674L210.554 62.9083L218.113 67.2665ZM222.043 67.0244L219.897 68.2653L228.967 73.471L231.113 72.2301L222.043 67.0244ZM208.498 64.9663L206.352 66.2072L209.254 67.8719L211.401 66.631L208.498 64.9663ZM194.832 51.2862L178.959 42.1763L176.813 43.4172L192.686 52.5271L194.832 51.2862ZM197.765 55.4932L199.912 54.2523L196.586 52.3153L194.439 53.5562L197.765 55.4932ZM188.181 53.2233L186.034 54.4641L191.809 57.7934L193.955 56.5525L188.181 53.2233ZM180.138 48.5926L177.992 49.8335L184.25 53.4048L186.397 52.164L180.138 48.5926ZM211.038 68.9009L218.929 73.471L221.076 72.2301L213.185 67.66L211.038 68.9009Z" stroke="#55CBDC" stroke-miterlimit="10"/>
<path d="M188.15 79.403L160.909 63.6649C158.158 62.0608 158.491 59.3066 161.665 57.4604C164.84 55.6142 169.647 55.4326 172.398 57.0064L199.639 72.7446C202.391 74.3487 202.058 77.1028 198.884 78.949C195.709 80.7953 190.902 81.0071 188.15 79.403Z" stroke="#55CBDC" stroke-miterlimit="10"/>
<path d="M187.697 71.7154L187.001 69.2941L185.853 69.96L178.475 65.7228L177.326 66.3584L184.704 70.6258L183.555 71.2917L187.697 71.7154Z" stroke="#55CBDC" stroke-miterlimit="10"/>
<path d="M195.588 75.7406L195.558 75.7103L196.616 75.105C197.311 74.7116 197.311 74.076 196.616 73.6523L195.77 73.168C195.074 72.7746 193.955 72.7746 193.29 73.168L192.232 73.7733L192.202 73.7431C191.869 73.5615 191.355 73.5615 191.053 73.7431L188.392 75.2866C188.06 75.4682 188.09 75.7709 188.392 75.9524L191.779 77.95C192.111 78.1316 192.625 78.1316 192.927 77.95L195.588 76.4064C195.921 76.2248 195.921 75.9222 195.588 75.7406ZM191.869 76.1643L191.234 76.5275L190.811 76.2854L191.446 75.9222C191.355 75.7709 191.416 75.6195 191.597 75.4985C191.869 75.3471 192.323 75.3471 192.595 75.4985C192.867 75.6498 192.867 75.9222 192.595 76.0735C192.414 76.1946 192.111 76.2248 191.869 76.1643ZM194.832 75.3169L192.927 74.2273L193.774 73.7431C194.167 73.5312 194.802 73.5312 195.195 73.7431L195.679 74.0154C196.072 74.2273 196.072 74.6208 195.679 74.8326L194.832 75.3169Z" fill="#55CBDC"/>
<path d="M154.923 122.169C154.107 121.684 152.958 121.563 151.93 121.745C152.232 121.139 151.99 120.474 151.174 120.02C149.995 119.354 148.12 119.354 146.971 120.02C144.855 121.23 146.215 125.044 146.215 125.044C146.215 125.044 152.807 125.831 154.923 124.62C156.072 123.954 156.072 122.865 154.923 122.169Z" fill="#55CBDC"/>
<path d="M123.086 75.4383L147.818 89.8448L69.0272 135.274L1 95.7163L70.5389 55.6143" stroke="#55CBDC" stroke-miterlimit="10"/>
<path d="M69.0272 134.457L2.17914 95.0204L1 95.7165L69.0272 135.274L147.757 89.8449L146.578 89.7239L69.0272 134.457Z" stroke="#55CBDC" stroke-miterlimit="10"/>
<path opacity="0.5" d="M57.9009 108.035L52.3075 104.796L50.7051 105.704L56.2985 108.943L57.9009 108.035ZM59.6545 106.642L65.4897 110.032L67.0921 109.124L61.2569 105.734L59.6545 106.642ZM68.4527 107.46L70.9923 108.943L72.5948 108.035L70.0551 106.552L68.4527 107.46ZM61.4988 111.969L67.0921 115.208L68.6945 114.3L63.1012 111.061L61.4988 111.969ZM66.82 110.789L69.3294 112.242L70.9319 111.334L68.4224 109.881L66.82 110.789ZM34.2274 91.9636L37.4322 93.8098L39.0347 92.9018L35.8298 91.0556L34.2274 91.9636ZM42.8442 99.3484L40.879 98.1983L39.2765 99.1063L41.2418 100.256L42.8442 99.3484ZM44.628 96.11L40.3347 93.6282L38.7323 94.5361L43.0256 97.0179L44.628 96.11ZM54.0914 101.588L45.9281 96.8666L44.3257 97.7746L52.4889 102.496L54.0914 101.588ZM55.6938 111.031L49.8586 107.641L48.2561 108.549L54.0914 111.939L55.6938 111.031ZM39.8812 90.9648L48.7701 96.11L50.3725 95.202L41.4836 90.0568L39.8812 90.9648ZM61.529 103.465L67.1223 106.703L68.7248 105.795L63.1314 102.557L61.529 103.465ZM55.8147 117.205L57.4171 116.297L55.2403 115.026L53.6378 115.934L55.8147 117.205ZM67.3038 117.75L57.0241 111.788L55.4217 112.696L65.7013 118.658L67.3038 117.75ZM61.8011 101.8L54.9681 97.8654L53.3657 98.7733L60.1987 102.708L61.8011 101.8ZM41.4534 102.799L34.5298 98.8036L32.9273 99.7116L39.851 103.707L41.4534 102.799ZM59.9266 104.978L55.3914 102.375L53.789 103.283L58.3242 105.886L59.9266 104.978ZM33.2297 98.047L28.9364 95.5652L27.334 96.4732L31.6273 98.9549L33.2297 98.047ZM29.0573 93.2347L37.9462 98.3799L39.5486 97.4719L30.6598 92.3268L29.0573 93.2347ZM35.5577 103.646L26.6688 98.501L25.0664 99.4089L33.9553 104.554L35.5577 103.646ZM50.9772 104.04L44.1443 100.105L42.5418 101.013L49.3748 104.948L50.9772 104.04ZM53.9099 114.269L48.3166 111.031L46.7142 111.939L52.3075 115.177L53.9099 114.269ZM38.5812 107.217L45.4141 111.152L47.0165 110.244L40.1836 106.31L38.5812 107.217ZM48.5282 106.885L42.7535 103.555L41.1511 104.463L46.9258 107.793L48.5282 106.885ZM35.2856 105.341L37.2508 106.491L38.8533 105.583L36.888 104.433L35.2856 105.341ZM82.0581 113.513L80.4557 114.421L87.591 118.507L89.1934 117.599L82.0581 113.513ZM74.7112 119.596L80.244 122.774L81.8465 121.866L76.3136 118.688L74.7112 119.596ZM67.1526 119.505L76.5554 124.923L78.1579 124.015L68.755 118.597L67.1526 119.505ZM40.1533 89.2699L31.8691 84.5485L30.2667 85.4564L38.5509 90.1779L40.1533 89.2699ZM72.3226 109.699L79.1556 113.634L80.758 112.726L73.9251 108.791L72.3226 109.699ZM50.0702 96.8666L52.0354 98.0167L53.6378 97.1087L51.6726 95.9586L50.0702 96.8666ZM85.3839 119.657L71.9901 111.939L70.3876 112.847L83.7814 120.565L85.3839 119.657ZM75.2554 118.083L69.9946 115.056L68.3922 115.964L73.653 118.991L75.2554 118.083ZM61.7709 110.274L59.2312 108.791L57.6288 109.699L60.1685 111.182L61.7709 110.274ZM34.4995 90.2687L28.2108 86.6671L26.6084 87.575L32.8971 91.1767L34.4995 90.2687ZM25.3385 97.7443L17.145 93.0531L15.5426 93.9611L23.7361 98.6523L25.3385 97.7443ZM27.6363 94.8085L20.8336 90.9345L19.2312 91.8425L26.0339 95.7165L27.6363 94.8085ZM29.3295 91.5399L24.5222 88.8159L22.9198 89.7239L27.727 92.4478L29.3295 91.5399Z" stroke="#55CBDC" stroke-miterlimit="10"/>
<path opacity="0.7" d="M135.664 90.8435L128.831 86.8787L127.228 87.8169L134.061 91.7514L135.664 90.8435Z" stroke="#55CBDC" stroke-miterlimit="10"/>
<path opacity="0.7" d="M114.56 80.4321L115.679 81.0677L117.281 80.1597L115.951 79.4031" stroke="#55CBDC" stroke-miterlimit="10"/>
<path opacity="0.7" d="M116.223 83.8219L108.604 79.4031L107.001 80.3111L114.62 84.7299L116.223 83.8219Z" stroke="#55CBDC" stroke-miterlimit="10"/>
<path opacity="0.7" d="M127.47 86.0618L118.581 80.9166L116.979 81.8549L125.898 86.9698L127.47 86.0618Z" stroke="#55CBDC" stroke-miterlimit="10"/>
<path opacity="0.7" d="M126.352 89.6633L122.058 87.1815L120.486 88.1197L124.749 90.5713L126.352 89.6633Z" stroke="#55CBDC" stroke-miterlimit="10"/>
<path opacity="0.7" d="M117.553 84.5787L115.951 85.4867L119.156 87.3632L120.758 86.425L117.553 84.5787Z" stroke="#55CBDC" stroke-miterlimit="10"/>
<g opacity="0.7">
<path opacity="0.7" d="M101.529 88.6041L104.734 90.4504L106.336 89.5424L103.101 87.6659L101.529 88.6041Z" stroke="#55CBDC" stroke-miterlimit="10"/>
<path opacity="0.7" d="M110.146 95.9888L108.15 94.8387L106.548 95.777L108.544 96.8968L110.146 95.9888Z" stroke="#55CBDC" stroke-miterlimit="10"/>
<path opacity="0.7" d="M111.93 92.7809L107.636 90.2991L106.034 91.207L110.327 93.6888L111.93 92.7809Z" stroke="#55CBDC" stroke-miterlimit="10"/>
<path opacity="0.7" d="M107.183 87.6051L116.072 92.7503L117.674 91.8423L108.755 86.6971L107.183 87.6051Z" stroke="#55CBDC" stroke-miterlimit="10"/>
<path opacity="0.7" d="M96.3589 89.875L105.248 95.0202L106.85 94.082L97.9614 88.9368L96.3589 89.875Z" stroke="#55CBDC" stroke-miterlimit="10"/>
<path opacity="0.7" d="M107.455 85.9404L102.376 83.0046L100.773 83.9126L105.853 86.8484L107.455 85.9404Z" stroke="#55CBDC" stroke-miterlimit="10"/>
<path opacity="0.7" d="M117.372 93.5069L119.367 94.6569L120.939 93.7187L118.974 92.5989L117.372 93.5069Z" stroke="#55CBDC" stroke-miterlimit="10"/>
<path opacity="0.7" d="M101.801 86.9088L98.6871 85.1232L97.1149 86.0311L100.199 87.8471L101.801 86.9088Z" stroke="#55CBDC" stroke-miterlimit="10"/>
<path opacity="0.7" d="M96.6312 88.1803L95.0287 87.2421L93.4263 88.1803L95.0287 89.1185L96.6312 88.1803Z" stroke="#55CBDC" stroke-miterlimit="10"/>
</g>
<path d="M78.3394 75.711L48.2562 75.6505L78.4301 93.0836L78.3394 75.711Z" stroke="#55CBDC" stroke-miterlimit="10"/>
<path d="M79.3674 60.6992L79.4581 75.0754L104.311 75.1057" stroke="#55CBDC" stroke-miterlimit="10"/>
<path d="M75.9509 59.004L48.2563 75.0146L78.3394 75.0751L78.2487 60.0028" stroke="#55CBDC" stroke-miterlimit="10"/>
<path d="M105.187 75.7717L79.458 75.7112L79.5487 93.0837L107.455 76.9521" stroke="#55CBDC" stroke-miterlimit="10"/>
<path d="M96.6311 93.7795C95.8148 93.2952 94.6659 93.1742 93.6379 93.3558C93.9402 92.7504 93.6984 92.0846 92.882 91.6306C91.7029 90.9648 89.8284 90.9648 88.6795 91.6306C86.5631 92.8412 87.9236 96.6547 87.9236 96.6547C87.9236 96.6547 94.5147 97.4416 96.6311 96.231C97.8102 95.5349 97.8102 94.4453 96.6311 93.7795Z" fill="#55CBDC"/>
<path d="M85.2933 76.0137L78.8836 79.7061L72.4739 75.9834L67.6364 78.7981L78.9441 85.3052L90.161 78.8284L85.2933 76.0137Z" fill="#55CBDC"/>
<path d="M78.8836 78.2831L84.0536 75.3171L78.8533 72.2905L73.6833 75.2868L78.8836 78.2831Z" fill="#55CBDC"/>
<path d="M78.8533 70.8985L91.3703 78.1321L96.8125 74.9844L78.8231 64.6033L60.9546 74.9239L66.427 78.0715L78.8533 70.8985Z" fill="#55CBDC"/>
<path d="M113.774 80.6135L49.4354 43.4169L120.093 2.52795L184.432 39.7245L113.774 80.6135Z" stroke="#55CBDC" stroke-miterlimit="10"/>
<path d="M174.182 45.6265L109.813 8.42995L122.995 0.833252L187.364 38.0298L174.182 45.6265Z" stroke="#55CBDC" stroke-miterlimit="10"/>
<path d="M148.211 50.4387L100.773 23.018L110.66 17.4491L158.098 44.8698L148.211 50.4387Z" stroke="#55CBDC" stroke-miterlimit="10"/>
<path d="M134.182 58.6709L86.7747 31.2502L96.6614 25.6813L144.099 53.102L134.182 58.6709Z" stroke="#55CBDC" stroke-miterlimit="10"/>
<path d="M110.569 70.6863L86.0189 56.4614C83.6304 55.0692 83.9327 52.6782 86.684 51.0741C89.4353 49.47 93.6077 49.3187 95.9962 50.6806L120.577 64.8753C122.965 66.2675 122.663 68.6585 119.912 70.2626C117.13 71.8969 112.958 72.0482 110.569 70.6863Z" stroke="#55CBDC" stroke-miterlimit="10"/>
<path d="M132.731 66.9939L72.474 32.1883L73.0484 31.9462L133.275 66.7517L132.731 66.9939Z" fill="#55CBDC"/>
<path opacity="0.5" d="M174.031 37.7572H177.327C177.599 37.7572 177.841 37.6362 177.841 37.4546C177.841 37.3032 177.599 37.1519 177.327 37.1519H174.031V35.2452C174.031 35.0938 173.789 34.9425 173.517 34.9425C173.245 34.9425 173.003 35.0636 173.003 35.2452V37.1519H169.708C169.436 37.1519 169.194 37.273 169.194 37.4546C169.194 37.5454 169.254 37.6059 169.345 37.6664C169.436 37.7269 169.556 37.7572 169.708 37.7572H173.003V39.6639C173.003 39.7547 173.064 39.8153 173.154 39.8758C173.245 39.9363 173.366 39.9666 173.517 39.9666C173.789 39.9666 174.031 39.8455 174.031 39.6639V37.7572Z" fill="#55CBDC"/>
<path d="M113.774 79.9175L50.4029 42.842L49.4354 43.4171L113.774 80.6136L187.243 38.06L186.246 37.939L113.774 79.9175Z" stroke="#55CBDC" stroke-miterlimit="10"/>
<path opacity="0.8" d="M109.481 63.8765L108.785 61.4855L107.636 62.1514L100.259 57.8839L99.1104 58.5497L106.488 62.7869L105.339 63.4528L109.481 63.8765Z" stroke="#55CBDC" stroke-miterlimit="10"/>
<path opacity="0.8" d="M115.981 66.9637L114.167 67.9928L112.353 66.9335L110.992 67.7204L114.167 69.5666L117.342 67.7506L115.981 66.9637Z" fill="#55CBDC"/>
<path opacity="0.8" d="M114.167 67.5993L115.618 66.7519L114.167 65.9044L112.686 66.7519L114.167 67.5993Z" fill="#55CBDC"/>
<path opacity="0.8" d="M114.167 65.5113L117.674 67.5391L119.216 66.6614L114.137 63.7256L109.088 66.6311L110.63 67.5391L114.167 65.5113Z" fill="#55CBDC"/>
<path d="M111.809 25.0153C111.537 24.7732 111.386 24.4706 111.386 24.1982C111.386 24.0166 111.627 23.8955 111.93 23.8955C112.323 23.8955 112.746 23.8652 113.109 23.7745C113.321 23.835 113.683 23.8652 113.865 23.7745C114.076 23.6534 114.137 23.5021 114.046 23.4113C114.832 22.8967 115.195 22.3217 114.076 21.6559C112.958 20.99 111.9 21.2321 111.023 21.6861C110.841 21.6256 110.569 21.6559 110.388 21.7769C110.206 21.898 110.237 22.1098 110.358 22.2006C110.206 22.4125 110.146 22.6546 110.146 22.8665C110.146 23.0481 109.904 23.1994 109.602 23.1691C109.118 23.1691 108.604 23.0783 108.15 22.927C107.576 22.7152 106.79 22.7454 106.276 23.0481L105.399 23.5626C105.218 23.6534 105.218 23.835 105.399 23.9258L110.085 26.6497C110.267 26.7405 110.539 26.7405 110.69 26.6497L111.567 26.1352C112.081 25.8022 112.172 25.3483 111.809 25.0153Z" fill="#55CBDC"/>
<path d="M99.7453 32.1282L99.715 32.0979L100.773 31.4926C101.469 31.0991 101.469 30.4636 100.773 30.0398L99.9267 29.5556C99.2313 29.1621 98.1126 29.1621 97.4475 29.5556L96.3893 30.1609L96.359 30.1306C96.0265 29.949 95.5125 29.949 95.2101 30.1306L92.5495 31.6742C92.2169 31.8558 92.2472 32.1584 92.5495 32.34L95.9962 34.3376C96.3288 34.5192 96.8428 34.5192 97.1451 34.3376L99.8057 32.794C100.048 32.6124 100.048 32.3098 99.7453 32.1282ZM95.9962 32.5519L95.3613 32.9151L94.938 32.673L95.5729 32.3098C95.4822 32.1585 95.5427 32.0071 95.7241 31.8861C95.9962 31.7347 96.4497 31.7347 96.7219 31.8861C96.994 32.0374 96.994 32.3098 96.7219 32.4611C96.5404 32.5519 96.2683 32.6124 95.9962 32.5519ZM98.9592 31.7045L97.0544 30.6149L97.901 30.1306C98.294 29.9188 98.929 29.9188 99.322 30.1306L99.8057 30.403C100.199 30.6149 100.199 31.0083 99.8057 31.2202L98.9592 31.7045Z" fill="#55CBDC"/>
<path opacity="0.2" d="M67.7574 11.8802L64.9759 12.092H64.9456L67.0923 13.0605L66.2457 13.5448L64.5526 12.3039H64.5224L64.22 13.8777L62.9804 13.6658L63.9782 12.2131H63.9479L61.3478 12.7579L61.0757 12.092L63.7967 11.9104H63.827L61.7106 10.9722L62.5571 10.4879L64.1898 11.6986H64.22L64.5526 10.1248L65.762 10.3064L64.7945 11.7591H64.8247L67.3644 11.1841L67.7574 11.8802Z" fill="#55CBDC"/>
<path opacity="0.4" d="M72.9879 14.9068L70.2064 15.1186H70.1761L72.3228 16.0872L71.4762 16.5714L69.7831 15.3305H69.7529L69.4505 16.9043L68.2109 16.6925L69.2086 15.2397H69.1784L66.5783 15.7845L66.3062 15.1186L69.0272 14.937H69.0575L66.9411 13.9988L67.7876 13.5146L69.4203 14.7252H69.4505L69.7831 13.1514L70.9925 13.333L70.025 14.7857H70.0552L72.5949 14.2107L72.9879 14.9068Z" fill="#55CBDC"/>
<path opacity="0.6" d="M78.2488 17.9334L75.4672 18.1452H75.437L77.5836 19.1138L76.7371 19.598L75.0439 18.3571H75.0137L74.7114 19.9309L73.4717 19.7191L74.4695 18.2663H74.4392L71.8391 18.8111L71.567 18.1452L74.2881 17.9637H74.3183L72.2019 17.0254L73.0485 16.5412L74.6811 17.7518H74.7114L75.0439 16.178L76.2533 16.3596L75.2858 17.8123H75.316L77.8557 17.2373L78.2488 17.9334Z" fill="#55CBDC"/>
<path opacity="0.8" d="M83.4793 20.96L80.6977 21.1719H80.6675L82.8141 22.1404L81.9675 22.6246L80.2744 21.3837H80.2442L79.9418 22.9575L78.7022 22.7457L79.7 21.2929H79.6697L77.0696 21.8377L76.7975 21.1719L79.5186 20.9903H79.5488L77.4324 20.052L78.279 19.5678L79.9116 20.7784H79.9418L80.2744 19.2046L81.4838 19.3862L80.5163 20.8389H80.5465L83.0862 20.2639L83.4793 20.96Z" fill="#55CBDC"/>
<path d="M88.7098 23.9866L85.9282 24.1985H85.8979L88.0446 25.167L87.198 25.6512L85.5049 24.4103H85.4747L85.1723 25.9841L83.9327 25.7723L84.9305 24.3195H84.9002L82.3001 24.8643L82.028 24.1985L84.749 24.0169H84.7793L82.6629 23.0786L83.5094 22.5944L85.1421 23.805H85.1723L85.5049 22.2312L86.7143 22.4128L85.7468 23.8655H85.777L88.3167 23.2905L88.7098 23.9866Z" fill="#55CBDC"/>
<path d="M63.9782 90.541L55.8149 85.8499L54.2125 86.7578L62.3758 91.4793L63.9782 90.541Z" fill="#55CBDC"/>
<path d="M44.3863 79.2216L33.5321 73.0171L31.96 73.9251L42.7838 80.1598L44.3863 79.2216Z" fill="#55CBDC"/>
<path d="M65.2783 91.2976L63.6759 92.2359L65.8225 93.4767L67.4249 92.5385L65.2783 91.2976Z" fill="#55CBDC"/>
<path d="M54.4844 85.0629L50.2214 82.6113L48.619 83.5193L52.9123 86.0011L54.4844 85.0629Z" fill="#55CBDC"/>
<path d="M45.6863 79.9781L44.0839 80.9164L47.319 82.7626L48.8912 81.8546L45.6863 79.9781Z" fill="#55CBDC"/>
<path d="M67.1526 94.2333L72.9879 97.623L74.5903 96.6848L68.7551 93.295L67.1526 94.2333Z" fill="#55CBDC"/>
<g opacity="0.15">
<path opacity="0.15" d="M69.0575 98.3796L60.9245 93.6582L59.3221 94.5662L67.4551 99.2876L69.0575 98.3796Z" fill="#55CBDC"/>
<path opacity="0.15" d="M49.4656 87.0299L38.6418 80.8254L37.0393 81.7637L47.8632 87.9681L49.4656 87.0299Z" fill="#55CBDC"/>
<path opacity="0.15" d="M70.3877 99.1361L68.7853 100.044L70.9319 101.285L72.5041 100.377L70.3877 99.1361Z" fill="#55CBDC"/>
<path opacity="0.15" d="M59.5942 92.9015L55.3009 90.4197L53.7287 91.3276L57.9917 93.8094L59.5942 92.9015Z" fill="#55CBDC"/>
<path opacity="0.15" d="M50.7959 87.8169L49.1935 88.7249L52.3983 90.5711L54.0007 89.6631L50.7959 87.8169Z" fill="#55CBDC"/>
<path opacity="0.15" d="M72.232 102.042L78.0974 105.432L79.6696 104.493L73.8344 101.134L72.232 102.042Z" fill="#55CBDC"/>
</g>
<path d="M228.664 56.9459L160.637 17.3584L184.069 3.89014L252.066 43.4474L228.664 56.9459Z" stroke="#55CBDC" stroke-miterlimit="10"/>
<path d="M228.664 56.0987L161.847 16.6927L160.637 17.3586L228.664 56.9461L252.036 43.4779L250.826 43.3266L228.664 56.0987Z" stroke="#55CBDC" stroke-miterlimit="10"/>
<path d="M229.904 48.8955L174.817 16.9954L184.734 11.4265L239.791 43.3266L229.904 48.8955Z" stroke="#55CBDC" stroke-miterlimit="10"/>
<path d="M230.962 46.7163V44.8701C230.962 44.6885 230.72 44.5069 230.418 44.4767V43.9319C232.051 43.8108 233.29 42.9936 233.29 42.0251C233.29 40.9658 231.779 40.0881 229.934 40.0881C228.09 40.0881 226.578 40.9356 226.578 42.0251C226.578 42.9936 227.848 43.8108 229.481 43.9622V44.5069C229.178 44.5675 228.937 44.7188 228.937 44.9004V46.7466C228.937 46.9887 229.269 47.1703 229.662 47.1703H230.206C230.63 47.14 230.962 46.9584 230.962 46.7163ZM229.934 43.266C228.725 43.266 227.727 42.691 227.727 41.9949C227.727 41.2988 228.695 40.7237 229.934 40.7237C231.144 40.7237 232.141 41.2988 232.141 41.9949C232.141 42.7213 231.144 43.266 229.934 43.266Z" fill="#55CBDC"/>
</g>
</svg>
