<svg width="59" height="58" viewBox="0 0 59 58" fill="none" xmlns="http://www.w3.org/2000/svg">
<path fill-rule="evenodd" clip-rule="evenodd" d="M24.6452 42.0552C25.1663 44.8403 26.6951 47.2773 28.8145 48.8787C29.3009 49.2617 29.7526 49.6794 30.0306 50.3061C30.3433 49.7143 30.7602 49.2965 31.2814 48.9135C33.4702 47.3469 34.9295 44.8751 35.4507 42.09H42.1564V12.6374C38.5082 14.4477 36.1108 18.4861 35.5897 22.6638L34.5821 30.9495L35.1032 30.8799C36.2151 30.8799 37.1532 31.9243 37.1532 32.9339C37.1532 33.9087 36.4235 34.7094 35.4854 34.9183L34.2346 35.1968C32.1847 31.3325 31.0034 27.5029 31.0034 23.7778C31.0034 22.1196 31.1317 20.4529 31.261 18.7733L31.261 18.7732L31.261 18.7732C31.3923 17.0676 31.5246 15.3487 31.5246 13.6122C31.5246 12.0803 30.9339 10.6878 29.9958 9.57373C29.0577 10.6878 28.4671 12.0803 28.4671 13.6122C28.499 15.1814 28.6118 16.7434 28.7244 18.3013V18.3013V18.3013V18.3013V18.3013V18.3014V18.3014V18.3014V18.3014C28.8565 20.1305 28.9882 21.9542 28.9882 23.7778C28.9882 27.5029 27.8069 31.3325 25.757 35.1968L24.5062 34.9183C23.5681 34.6746 22.8385 33.8739 22.8385 32.9339C22.8385 31.8895 23.7766 30.8799 24.8884 30.8799L25.4095 30.9495L24.402 22.6638C24.124 18.4861 21.4834 14.4825 17.8353 12.6374V42.0552H24.6452ZM23.186 29.2437C22.1784 29.8356 21.3445 30.7755 21.0666 31.8896V31.8548H19.8852V16.8499C21.2055 18.3818 22.1089 20.2965 22.3868 22.4202L23.186 29.2437ZM24.5062 40.0361C24.5062 39.0264 24.6452 38.0517 24.8884 37.1117L23.9503 36.9028C22.5605 36.4502 21.4487 35.371 21.1012 33.9784H19.9199V40.0709H24.5062V40.0361ZM26.8342 37.5294C28.085 37.7035 29.0231 38.7827 29.0231 40.036H26.452C26.452 39.1309 26.6257 38.3302 26.8342 37.5294ZM29.0233 42.0901H26.765C27.1471 43.6915 27.9463 45.1537 29.0233 46.407V42.0901ZM30.0654 30.671C30.5866 32.4117 31.3857 34.1175 32.2543 35.719C31.351 35.9279 30.6213 36.5197 30.0654 37.1812C29.4748 36.5197 28.7451 35.9279 27.8765 35.719C28.7451 34.1175 29.5443 32.4117 30.0654 30.671ZM33.6443 40.036C33.6443 39.1657 33.5053 38.365 33.2621 37.5294C32.0113 37.6687 31.0732 38.7827 31.0732 40.036H33.6443ZM31.0732 42.0901H33.3316C32.9841 43.6915 32.1503 45.1537 31.0732 46.407V42.0901ZM40.2111 40.0014V33.9437H39.0298C38.6476 35.3363 37.5705 36.4503 36.1807 36.8681L35.2426 37.077C35.4511 38.017 35.6248 38.9918 35.6248 40.0014H40.2111ZM40.2107 16.8846V31.8895V31.9243H39.0294C38.7515 30.8102 37.9176 29.8702 36.91 29.2784L37.7091 22.4549C37.9523 20.3312 38.8904 18.4164 40.2107 16.8846Z" fill="black"/>
<path fill-rule="evenodd" clip-rule="evenodd" d="M5.46614 4.59545C10.0524 0 17.1055 0 29.7525 0C42.3994 0 49.4526 0 54.0388 4.59545C58.6251 9.19089 58.6251 16.2581 58.6251 28.9304C58.6251 41.6027 58.6251 48.67 54.0388 53.2654C49.4526 57.8608 42.3994 57.8608 29.7525 57.8608C17.1055 57.8608 10.0524 57.8608 5.46614 53.2654C0.879883 48.67 0.879883 41.6027 0.879883 28.9304C0.879883 16.2581 0.879883 9.19089 5.46614 4.59545ZM53.4135 5.25694C49.0705 0.905188 42.2258 0.905188 29.7526 0.905188C17.2794 0.905188 10.4347 0.905188 6.09166 5.22212C1.74861 9.57387 1.74861 16.467 1.74861 28.9304C1.74861 41.4287 1.74861 48.287 6.09166 52.6736C10.4347 57.0253 17.2794 57.0253 29.7526 57.0253C42.2258 57.0253 49.0705 57.0253 53.4135 52.6736C57.7566 48.3218 57.7566 41.4635 57.7566 28.9653V28.9653V28.9652C57.7566 16.467 57.7566 9.60868 53.4135 5.25694Z" fill="black"/>
</svg>
