<svg width="18" height="18" viewBox="0 0 18 18" fill="none" xmlns="http://www.w3.org/2000/svg">
<path fill-rule="evenodd" clip-rule="evenodd" d="M2.16112 4.1623C0.96809 4.1623 0 3.2151 0 2.07153C0 0.927951 0.96809 0 2.16112 0C3.35416 0 4.32224 0.927951 4.32224 2.07153C4.32224 3.2151 3.35416 4.1623 2.16112 4.1623ZM4.02911 17.25H0.297363V5.7334H4.02911V17.25ZM14.2723 17.2502H17.996H18.0001V10.924C18.0001 7.82823 17.3052 5.44482 13.5292 5.44482C11.7135 5.44482 10.4963 6.39972 9.99827 7.30457H9.94606V5.7336H6.36694V17.2502H10.0947V11.5477C10.0947 10.046 10.3919 8.5945 12.3321 8.5945C14.2442 8.5945 14.2723 10.3079 14.2723 11.644V17.2502Z" fill="#333333"/>
</svg>
