<svg width="50" height="56" viewBox="0 0 50 56" fill="none" xmlns="http://www.w3.org/2000/svg">
<path fill-rule="evenodd" clip-rule="evenodd" d="M38.742 26.8992C38.5598 26.7591 38.3675 26.619 38.1752 26.4789C37.9829 26.3388 37.7906 26.1987 37.6085 26.0586C37.2846 24.0572 36.5154 22.2159 35.3819 20.6147C35.3819 21.3352 35.301 22.6162 35.0986 24.2974C35.081 24.4189 35.0634 24.5443 35.0454 24.6726C34.9805 25.1357 34.9103 25.6372 34.8152 26.1387C34.5723 27.4596 34.2484 28.9006 33.8031 30.4618L33.8031 30.4619L33.8031 30.462L33.803 30.4621L33.803 30.4622L33.8029 30.4623L33.8029 30.4624L33.8029 30.4625L33.8028 30.4626L33.8028 30.4627L33.8028 30.4628C33.6814 30.9028 33.5601 31.3427 33.3983 31.7827V31.3024V30.7019C33.4388 29.7813 33.4388 28.8606 33.4388 27.94C33.4388 27.0193 33.4388 26.0986 33.3983 25.218C33.3983 24.5375 33.3578 23.817 33.3173 23.1365C33.2364 21.3753 33.0744 19.6941 32.9125 18.0529C32.9125 18.0529 32.872 17.6926 32.8315 17.5325L32.7101 16.6919L35.3414 15.8113C36.1511 17.2523 37.6489 18.2931 39.3897 18.4532C39.4706 18.4532 39.5617 18.4632 39.6528 18.4732L39.6528 18.4732C39.7439 18.4832 39.835 18.4932 39.9159 18.4932C42.4258 18.4932 44.5309 16.772 45.0572 14.4503C45.1382 14.0901 45.1786 13.6898 45.1786 13.2895C45.1786 12.9292 45.1382 12.569 45.0572 12.2487C44.6929 10.4475 43.3569 8.9664 41.5757 8.36598C41.0494 8.20586 40.4827 8.08578 39.8755 8.08578C36.9607 8.08578 34.6128 10.4074 34.6128 13.2895C34.6128 13.6097 34.6532 13.9299 34.6937 14.2502C34.1633 14.425 33.6329 14.621 33.0869 14.8228L33.0867 14.8229C32.8827 14.8983 32.6764 14.9745 32.4672 15.0508C31.0503 6.12437 28.1761 0 24.897 0C21.618 0 18.7437 6.08435 17.3268 15.0107C8.82555 11.7684 2.06501 11.168 0.405238 13.97C-1.25454 16.772 2.63176 22.2559 9.75664 27.98C2.63176 33.664 -1.25454 39.1079 0.364755 41.95C2.02453 44.792 8.78507 44.1916 17.3268 40.9492C18.7437 49.8756 21.618 56 24.897 56C28.1761 56 31.0503 49.9157 32.4672 40.9893C40.9685 44.2316 47.729 44.832 49.3888 42.03C51.1295 39.148 47.2028 33.664 40.1184 27.98C47.2432 22.2959 51.1295 16.852 49.5102 14.01C48.9435 13.0493 47.81 12.4889 46.2312 12.2888C46.3121 12.6891 46.3931 13.0893 46.3931 13.5297C46.3931 14.01 46.3121 14.4903 46.1907 14.9307C46.4741 15.0908 46.6765 15.2909 46.7979 15.5711C48.0529 17.7727 44.7333 22.1758 38.742 26.8992ZM9.95906 28.1401C9.91857 28.1001 9.83761 28.02 9.75664 27.98C9.79713 28.02 9.87809 28.1001 9.95906 28.1401ZM24.8565 27.2595H25.4638C25.9091 27.2595 26.2329 27.1794 26.3949 26.9793C26.5568 26.7791 26.6782 26.4589 26.7187 25.9385C26.7187 25.8329 26.73 25.7384 26.7407 25.6492C26.7502 25.5693 26.7592 25.4938 26.7592 25.4182V25.178C26.7592 24.9778 26.6378 24.8177 26.5163 24.7377C26.3544 24.6176 26.1115 24.5776 25.7876 24.5776H25.1399L24.8565 27.2595ZM38.1752 12.0086L37.9323 14.2902C37.9323 14.4904 37.9323 14.6505 38.0942 14.7705V14.9707C38.0942 15.2109 38.1347 15.411 38.2157 15.5711C38.2562 15.7312 38.3776 15.8914 38.4991 16.0114C38.661 16.1315 38.8229 16.2116 39.0253 16.2916C39.2277 16.3717 39.4706 16.4117 39.754 16.4117C40.0779 16.4117 40.4017 16.3317 40.6446 16.2516C40.8875 16.1716 41.0899 16.0515 41.2519 15.8513C41.4138 15.6912 41.5352 15.4911 41.6162 15.2509C41.6972 15.0107 41.7376 14.7305 41.7781 14.4503L41.8186 13.9299H40.5637L40.4827 14.5304C40.4422 14.6104 40.4422 14.7305 40.4422 14.7705C40.4422 14.7871 40.4353 14.8106 40.4271 14.838C40.4156 14.8769 40.4017 14.9238 40.4017 14.9707C40.384 15.0058 40.374 15.0409 40.365 15.0726C40.3535 15.1133 40.3435 15.1484 40.3208 15.1708C40.2803 15.2509 40.2398 15.2909 40.1993 15.331C40.1677 15.3935 40.1361 15.4072 40.0852 15.4292L40.0851 15.4293C40.0709 15.4354 40.0551 15.4423 40.0374 15.451C39.9564 15.4911 39.8755 15.4911 39.7945 15.4911C39.5516 15.4911 39.4302 15.411 39.3492 15.2509C39.3087 15.1708 39.2682 15.0107 39.2682 14.8506V14.5304L39.5516 11.6883C39.5516 11.6483 39.5617 11.6083 39.5718 11.5683C39.582 11.5282 39.5921 11.4882 39.5921 11.4482C39.5921 11.3681 39.5921 11.2881 39.6326 11.208C39.6503 11.1729 39.6603 11.1378 39.6693 11.1061C39.6808 11.0654 39.6908 11.0303 39.7135 11.0079C39.754 10.9278 39.7945 10.8878 39.835 10.8477C39.8666 10.7852 39.8982 10.7715 39.9491 10.7495C39.9634 10.7433 39.9792 10.7364 39.9969 10.7277C40.0779 10.6876 40.1588 10.6876 40.2398 10.6876H40.4017C40.422 10.6876 40.4422 10.6976 40.4625 10.7076C40.4827 10.7177 40.5029 10.7277 40.5232 10.7277L40.6041 10.8077C40.6041 10.8277 40.6143 10.8377 40.6244 10.8477C40.6345 10.8578 40.6446 10.8678 40.6446 10.8878C40.6851 10.9278 40.6851 10.9678 40.6851 11.0079V11.1279V11.2881V11.4482V11.6083L40.6041 12.2087H41.8996L41.9805 11.6483V11.2881C41.9805 11.1279 41.9805 11.0079 41.9401 10.8878C41.8996 10.6876 41.8186 10.4875 41.6972 10.3274C41.5757 10.1272 41.4138 10.0071 41.1709 9.92709C40.928 9.84703 40.6446 9.807 40.3208 9.807C39.9564 9.807 39.6326 9.88706 39.3897 9.96712C39.1063 10.0872 38.9039 10.2073 38.742 10.4074C38.58 10.6076 38.4586 10.8477 38.3776 11.0879C38.2562 11.3681 38.2157 11.6483 38.1752 12.0086ZM3.19851 15.451C4.49395 13.2895 9.99954 13.8899 17.1649 16.6519C17.0839 17.1322 17.0435 17.5726 17.003 18.0529C15.4646 19.2938 14.2097 20.8549 13.3596 22.6562C14.0073 22.2959 15.1408 21.7355 16.7196 21.0951C17.0546 20.9422 17.4224 20.8055 17.8021 20.6644L17.8022 20.6644L17.8022 20.6644L17.8023 20.6644L17.8028 20.6642C18.0194 20.5837 18.2399 20.5018 18.4603 20.4146C19.7153 19.9743 21.1726 19.4939 22.7515 19.0936C22.9741 19.0336 23.1968 18.9836 23.4194 18.9335C23.6421 18.8835 23.8647 18.8335 24.0874 18.7734C24.0874 18.7734 24.3707 18.6133 24.978 18.3331C24.3707 18.6533 23.7635 18.9736 23.1158 19.2938C22.9888 19.3566 22.8618 19.4255 22.7323 19.4958L22.7322 19.4959L22.7322 19.4959L22.7321 19.4959L22.7321 19.4959L22.7321 19.4959L22.732 19.496L22.7318 19.4961C22.5314 19.6049 22.325 19.7169 22.1037 19.8142C22.0228 19.8542 21.9418 19.8942 21.8204 19.9743C21.618 20.0743 21.4257 20.1844 21.2334 20.2945L21.2333 20.2945L21.2333 20.2945L21.2333 20.2945L21.2333 20.2946L21.2332 20.2946L21.2332 20.2946L21.2332 20.2946C21.041 20.4047 20.8487 20.5147 20.6464 20.6147C20.3326 20.8009 20.0189 20.981 19.7075 21.1598C19.2153 21.4423 18.729 21.7215 18.2579 22.0157C18.096 22.0958 17.9745 22.1758 17.8126 22.2959L17.4483 22.5361L16.4767 23.1365C15.1408 23.9771 13.6834 24.9778 12.2665 26.0186L12.2665 26.0186C11.9831 26.2187 11.6998 26.4189 11.4569 26.619C11.4367 26.619 11.4265 26.629 11.4164 26.639C11.4063 26.649 11.3962 26.659 11.3759 26.659C11.3355 26.6991 11.295 26.7291 11.2545 26.7591C11.214 26.7891 11.1735 26.8192 11.133 26.8592C5.22263 22.0958 1.90308 17.6526 3.19851 15.451ZM28.5809 25.4182C28.5809 25.5783 28.5809 25.7784 28.5404 25.9786C28.4999 26.4589 28.3785 26.8992 28.2166 27.2194C28.0546 27.5797 27.8522 27.8199 27.5688 28.02C27.2855 28.2202 27.0021 28.3803 26.6782 28.4603C26.3544 28.5404 25.99 28.5804 25.5852 28.5804H24.6946L24.2493 32.7434H22.3062L23.3182 23.2166H26.2734C27.8522 23.2166 28.5809 23.9371 28.5809 25.4182ZM16.5172 25.158C16.5273 25.148 16.5374 25.138 16.5577 25.138C16.5172 25.138 16.4767 25.178 16.4767 25.178C16.3957 25.218 16.3553 25.258 16.3148 25.2981C16.3957 25.258 16.4362 25.218 16.4767 25.178L16.4767 25.178C16.4969 25.178 16.5071 25.168 16.5172 25.158ZM24.978 52.8377C22.4276 52.8377 20.2011 47.7541 19.0271 40.2688C19.2295 40.1887 19.4421 40.0986 19.6546 40.0086L19.6547 40.0085L19.6549 40.0084C19.8673 39.9184 20.0797 39.8284 20.282 39.7484C21.7394 40.3088 23.3182 40.629 24.978 40.629C25.3828 40.629 25.7876 40.629 26.1925 40.589C25.5447 40.1887 24.4517 39.5082 23.1158 38.5075C22.924 38.3523 22.7171 38.1971 22.5016 38.0355L22.5012 38.0351L22.5009 38.0349L22.5008 38.0348C22.2164 37.8215 21.9172 37.597 21.618 37.3467C20.6059 36.5061 19.4724 35.5054 18.3389 34.3445C18.015 34.0243 17.6912 33.7041 17.4078 33.3438C17.4078 33.3438 17.7317 33.544 18.3389 33.9042C18.3794 33.9242 18.4097 33.9442 18.4401 33.9643C18.4705 33.9843 18.5008 34.0043 18.5413 34.0243C18.9637 34.2946 19.4013 34.5497 19.8449 34.8083L19.845 34.8084C20.1241 34.9711 20.4055 35.1352 20.6869 35.3052C21.4965 35.7856 22.3062 36.2259 23.1158 36.6262C23.4194 36.7863 23.7332 36.9464 24.047 37.1065C24.3607 37.2666 24.6744 37.4267 24.978 37.5868C25.909 38.0672 26.84 38.5074 27.7711 38.9477L27.7713 38.9478C28.0748 39.0879 28.3885 39.228 28.7022 39.368L28.7024 39.3681C29.0161 39.5082 29.3298 39.6483 29.6334 39.7884C29.7468 39.8333 29.8634 39.8781 29.9823 39.9239C30.2877 40.0414 30.6083 40.1647 30.9289 40.3088C29.7549 47.7941 27.5284 52.8377 24.978 52.8377ZM20.282 39.7484C20.1294 39.6855 19.9768 39.6226 19.8242 39.5573C19.9716 39.6239 20.1231 39.688 20.282 39.7484ZM19.8242 39.5573C19.491 39.4146 19.1578 39.2601 18.8247 39.0679C18.9225 39.1163 19.0186 39.1646 19.1141 39.2126C19.3498 39.3311 19.5815 39.4477 19.8242 39.5573ZM17.9131 38.8867L17.9129 38.8868C17.6405 38.9978 17.3824 39.1029 17.1244 39.188C9.95905 41.9099 4.41298 42.5504 3.11755 40.3488C1.8626 38.1472 5.18215 33.7441 11.1735 29.0207C11.3557 29.1608 11.548 29.3009 11.7403 29.441C11.9326 29.5811 12.1249 29.7212 12.307 29.8613C12.7928 33.0636 14.4931 35.9056 16.9625 37.827C17.3673 38.1472 17.8126 38.4675 18.2579 38.7477C18.1401 38.7943 18.0257 38.8409 17.9137 38.8865L17.9131 38.8867ZM31.0098 16.2516L31.0099 16.2517C31.0402 16.4518 31.0706 16.6519 31.0908 16.852C31.0908 16.888 31.099 16.924 31.108 16.9636C31.119 17.0122 31.1313 17.0661 31.1313 17.1322C31.1313 17.0122 31.1313 16.9321 31.0908 16.852C31.0503 16.4119 31.0099 16.0118 30.9694 15.6117L30.9694 15.6112C29.7954 8.1258 27.5688 3.04217 25.0185 3.04217C22.4681 3.04217 20.2416 8.08578 19.0676 15.5711C18.9866 15.9714 18.9056 16.3717 18.8652 16.812C19.3509 16.5718 19.8367 16.3317 20.363 16.1315C21.7799 15.6112 23.3587 15.2909 24.978 15.2909C26.6378 15.2909 28.2166 15.6112 29.6739 16.1716C29.8763 16.0915 30.0889 16.0014 30.3014 15.9114C30.5139 15.8213 30.7265 15.7312 30.9289 15.6512C30.9491 15.8513 30.9795 16.0515 31.0098 16.2516ZM46.7574 40.4289C45.462 42.5904 39.9564 41.99 32.7911 39.228C32.872 38.7477 32.9125 38.3074 32.953 37.827C35.3819 35.9056 37.0822 33.1036 37.6085 29.9014C37.6894 29.381 37.7299 28.8206 37.7704 28.2602C37.9985 28.4575 38.2467 28.635 38.4866 28.8067L38.4867 28.8067C38.5874 28.8787 38.6867 28.9497 38.7824 29.0207C44.7333 33.8242 48.0529 38.2273 46.7574 40.4289Z" fill="#232F3C"/>
</svg>
