<svg width="281" height="241" viewBox="0 0 281 241" fill="none" xmlns="http://www.w3.org/2000/svg">
<g opacity="0.1">
<path d="M144.962 38.8337H148.436" stroke="#55CBDC" stroke-miterlimit="10"/>
<path d="M139.263 38.8337H142.737" stroke="#55CBDC" stroke-miterlimit="10"/>
<path d="M133.564 38.8337H137.038" stroke="#55CBDC" stroke-miterlimit="10"/>
<path d="M127.865 38.8337H131.339" stroke="#55CBDC" stroke-miterlimit="10"/>
<path d="M150.63 38.8337H152.763V50.4186H123.508V38.8337H125.641" stroke="#55CBDC" stroke-miterlimit="10"/>
<path d="M127.865 38.2849H125.641V48.8637H127.865V38.2849Z" stroke="#55CBDC" stroke-miterlimit="10"/>
<path d="M133.564 38.2849H131.339V48.8637H133.564V38.2849Z" stroke="#55CBDC" stroke-miterlimit="10"/>
<path d="M139.263 38.2849H137.038V48.8637H139.263V38.2849Z" stroke="#55CBDC" stroke-miterlimit="10"/>
<path d="M144.962 38.2849H142.737V48.8637H144.962V38.2849Z" stroke="#55CBDC" stroke-miterlimit="10"/>
<path d="M150.661 38.2849H148.436V48.8637H150.661V38.2849Z" stroke="#55CBDC" stroke-miterlimit="10"/>
<path d="M203.747 83.0695L207.831 79.0453L204.966 74.6247C206.276 72.4602 207.252 70.1432 207.892 67.7348L213.072 66.7287L213.133 60.9973L213.194 55.2658L208.044 54.1683C207.434 51.7599 206.52 49.4124 205.24 47.2174L208.196 42.8578L204.174 38.8336L202.071 36.6691L200.182 34.7484L195.763 37.6142C193.599 36.3032 191.253 35.3277 188.875 34.6875L187.87 29.5048L182.141 29.4438L176.411 29.3828L175.314 34.535C172.907 35.1448 170.56 36.0594 168.366 37.3398L164.008 34.3826L159.955 38.4068L155.872 42.431L158.736 46.8516C158.614 47.0345 158.523 47.2174 158.401 47.4308M170.774 52.0952C171.139 51.6075 171.566 51.1502 172.023 50.7233C177.569 45.2968 186.438 45.3882 191.862 50.9063C192.136 51.1806 192.38 51.455 192.624 51.7294C196.738 56.6377 196.982 63.7106 193.325 68.8628" stroke="#55CBDC" stroke-miterlimit="10"/>
<path d="M197.012 73.2529C197.469 72.8261 198.201 72.8566 198.627 73.3139C199.054 73.7712 199.024 74.5028 198.566 74.9297L197.012 73.2529ZM201.431 69.0153C201.309 69.0153 201.157 68.9848 201.035 68.9543C200.425 68.7409 200.121 68.0702 200.334 67.491C201.126 65.3264 201.522 63.0704 201.522 60.7534V60.6925C201.522 60.0523 202.04 59.534 202.68 59.534C203.32 59.534 203.839 60.0523 203.839 60.6925V60.7534C203.839 63.3448 203.381 65.8752 202.528 68.2836C202.345 68.7409 201.888 69.0153 201.431 69.0153ZM163.307 48.9552C163.825 48.1625 164.374 47.3699 165.014 46.6382C165.41 46.1504 166.141 46.0895 166.629 46.4858C167.117 46.8821 167.178 47.6138 166.781 48.1016C166.324 48.6503 165.928 49.1991 165.532 49.7783L163.307 48.9552ZM201.401 54.7171C200.943 54.7171 200.486 54.4428 200.303 53.955C199.511 51.7904 198.353 49.8088 196.86 48.0406C196.464 47.5528 196.525 46.8211 196.982 46.4248C197.469 46.0285 198.201 46.0895 198.597 46.5772C200.243 48.5589 201.553 50.7539 202.437 53.1623C202.65 53.772 202.345 54.4123 201.766 54.6562C201.675 54.6866 201.522 54.7171 201.401 54.7171ZM171.414 43.8639C171.017 43.8639 170.621 43.6505 170.408 43.2847C170.103 42.7359 170.286 42.0348 170.835 41.6994C173.059 40.419 175.467 39.5349 177.996 39.0776C178.636 38.9556 179.215 39.3824 179.337 40.0227C179.459 40.6629 179.032 41.2421 178.392 41.3641C176.137 41.7604 173.973 42.553 171.993 43.7115C171.81 43.8335 171.627 43.8639 171.414 43.8639ZM192.228 43.8335C192.045 43.8335 191.832 43.7725 191.649 43.681C189.668 42.5225 187.504 41.7604 185.219 41.3641C184.579 41.2421 184.182 40.6629 184.274 40.0227C184.396 39.3824 184.975 38.9861 185.615 39.0776C188.144 39.5044 190.552 40.3885 192.776 41.6689C193.325 41.9738 193.508 42.7055 193.203 43.2542C193.02 43.6201 192.624 43.8335 192.228 43.8335Z" stroke="#55CBDC" stroke-miterlimit="10"/>
<path d="M233.643 12.9202C233.368 11.7617 232.911 10.6337 232.302 9.59718L233.734 7.49362L231.814 5.54248L230.808 4.50594L229.894 3.59135L227.761 4.96324C226.725 4.32302 225.597 3.86573 224.439 3.56086L223.952 1.06097L221.209 1.03049L218.466 1L217.948 3.4694C216.79 3.74378 215.663 4.20108 214.626 4.81081L212.524 3.37794L210.573 5.29859L208.623 7.21924L209.994 9.35329C209.354 10.3898 208.897 11.5178 208.592 12.6763L206.094 13.1641L206.063 15.9079L206.033 18.6517L208.501 19.1699C208.775 20.3284 209.232 21.4564 209.842 22.493L208.41 24.5965L210.33 26.5477L212.249 28.4988L214.352 27.1269C214.87 27.4623 215.449 27.7366 215.998 27.95C216.546 28.1634 217.095 28.3768 217.643 28.5293L218.131 31.0292L220.874 31.0597L223.616 31.0901L224.134 28.6207C225.293 28.3464 226.42 27.8891 227.456 27.2793L229.559 28.7122L231.509 26.7915L233.46 24.8709L232.088 22.7369C232.728 21.7003 233.185 20.5723 233.49 19.4138L235.989 18.926L236.02 16.1823L236.05 13.4385L233.643 12.9202ZM225.811 20.8772C224.074 22.5844 221.636 23.1637 219.441 22.6149C218.283 22.31 217.186 21.7308 216.272 20.7857C213.651 18.1334 213.712 13.8653 216.363 11.2435C219.015 8.62161 223.281 8.68259 225.902 11.3349C226.024 11.4569 226.146 11.6093 226.268 11.7312C228.492 14.3836 228.34 18.3773 225.811 20.8772Z" stroke="#55CBDC" stroke-miterlimit="10"/>
<path d="M221.087 26.6085C220.477 26.6085 219.868 26.5476 219.258 26.4561C218.954 26.3951 218.74 26.1207 218.801 25.8159C218.862 25.511 219.137 25.2976 219.441 25.3586C220.508 25.5415 221.636 25.5415 222.733 25.3586C223.037 25.2976 223.312 25.511 223.373 25.8159C223.433 26.1207 223.22 26.3951 222.915 26.4561C222.336 26.5476 221.696 26.6085 221.087 26.6085ZM216.089 25.2671C215.998 25.2671 215.906 25.2366 215.815 25.2062C214.748 24.5964 213.804 23.8038 213.011 22.8587C212.828 22.6148 212.859 22.2795 213.072 22.066C213.316 21.8831 213.651 21.9136 213.864 22.127C214.565 22.9806 215.419 23.6818 216.363 24.2306C216.638 24.383 216.729 24.7184 216.577 24.9928C216.485 25.1757 216.302 25.2671 216.089 25.2671ZM226.085 25.2671C225.902 25.2671 225.719 25.1757 225.597 24.9928C225.445 24.7184 225.536 24.383 225.811 24.2306C226.755 23.6818 227.609 22.9806 228.309 22.127C228.492 21.8831 228.858 21.8526 229.102 22.066C229.346 22.249 229.376 22.6148 229.163 22.8587C228.37 23.8038 227.426 24.5964 226.359 25.2062C226.268 25.2366 226.176 25.2671 226.085 25.2671ZM211.701 20.0539C211.487 20.0539 211.274 19.9015 211.183 19.6881C210.756 18.5296 210.543 17.3102 210.543 16.0907C210.543 15.7858 210.787 15.5419 211.091 15.5419C211.396 15.5419 211.64 15.7858 211.64 16.0907C211.64 17.1882 211.823 18.2857 212.219 19.3223C212.31 19.5966 212.188 19.932 211.884 20.0235C211.823 20.0235 211.762 20.0539 211.701 20.0539ZM230.473 20.0235C230.412 20.0235 230.351 20.0235 230.29 19.993C230.016 19.9015 229.864 19.5662 229.955 19.2918C230.321 18.2552 230.534 17.1577 230.534 16.0602V16.0297C230.534 15.7249 230.778 15.481 231.083 15.481C231.387 15.481 231.631 15.7249 231.631 16.0297V16.0602C231.631 17.3102 231.418 18.5296 230.991 19.6881C230.93 19.9015 230.717 20.0235 230.473 20.0235ZM211.701 13.1945C211.64 13.1945 211.579 13.1945 211.518 13.164C211.244 13.0725 211.091 12.7372 211.183 12.4628C211.609 11.3043 212.219 10.2373 213.011 9.29222C213.194 9.04833 213.56 9.01784 213.804 9.23125C214.047 9.41416 214.078 9.78 213.864 10.0239C213.164 10.8775 212.615 11.8226 212.219 12.8591C212.127 13.0725 211.914 13.1945 211.701 13.1945ZM230.473 13.164C230.26 13.164 230.046 13.0116 229.955 12.7982C229.589 11.7616 229.01 10.8165 228.309 9.96292C228.127 9.71903 228.127 9.38368 228.37 9.17027C228.614 8.98735 228.949 8.98735 229.163 9.23125C229.955 10.1763 230.595 11.2434 230.991 12.4018C231.083 12.6762 230.961 13.0116 230.656 13.103C230.595 13.164 230.534 13.164 230.473 13.164ZM216.059 7.95081C215.876 7.95081 215.693 7.85935 215.571 7.67643C215.419 7.40206 215.51 7.0667 215.784 6.91427C216.851 6.30454 218.009 5.87773 219.228 5.66433C219.533 5.60336 219.807 5.81676 219.868 6.12163C219.929 6.42649 219.716 6.70087 219.411 6.76184C218.314 6.94476 217.278 7.34108 216.333 7.88984C216.272 7.92032 216.181 7.95081 216.059 7.95081ZM226.054 7.92033C225.963 7.92033 225.871 7.88984 225.78 7.85935C224.835 7.3106 223.799 6.94476 222.702 6.73136C222.397 6.67038 222.184 6.396 222.245 6.09114C222.306 5.78627 222.58 5.57287 222.885 5.63384C224.104 5.84725 225.262 6.27406 226.329 6.88379C226.603 7.03622 226.694 7.37157 226.542 7.64595C226.45 7.82887 226.268 7.92033 226.054 7.92033Z" stroke="#55CBDC" stroke-miterlimit="10"/>
<path d="M63.1681 120.385H32.6935C38.5751 104.685 38.6361 82.3075 38.6361 82.3075H73.1332" stroke="#55CBDC" stroke-miterlimit="10"/>
<path d="M56.3418 108.343C55.8542 108.343 55.4581 107.946 55.4581 107.458V95.2333C55.4581 94.7456 55.8542 94.3492 56.3418 94.3492C56.8294 94.3492 57.2256 94.7456 57.2256 95.2333V107.458C57.2256 107.946 56.8294 108.343 56.3418 108.343Z" fill="#55CBDC"/>
<path d="M62.4672 102.245H50.2469C49.7593 102.245 49.3632 101.849 49.3632 101.361C49.3632 100.873 49.7593 100.477 50.2469 100.477H62.4672C62.9548 100.477 63.351 100.873 63.351 101.361C63.351 101.849 62.9548 102.245 62.4672 102.245Z" fill="#55CBDC"/>
<path d="M181.104 181.145C168.945 189.681 154.135 194.681 138.166 194.681C121.618 194.681 106.32 189.315 93.9473 180.23C75.2664 166.572 63.168 144.53 63.168 119.653C63.168 83.2221 89.1019 52.8576 123.508 46.0591" stroke="#55CBDC" stroke-miterlimit="10"/>
<path d="M152.763 46.0591C164.435 48.3761 175.101 53.3758 184.152 60.4182C201.766 74.1371 213.103 95.5691 213.103 119.653C213.103 137.061 207.16 153.097 197.226 165.84" stroke="#55CBDC" stroke-miterlimit="10"/>
<path d="M182.11 169.529C170.408 179.864 155.018 186.145 138.135 186.145C101.414 186.145 71.6705 156.359 71.6705 119.623C71.6705 82.8868 101.444 53.1016 138.135 53.1016C174.857 53.1016 204.6 82.8868 204.6 119.623C204.6 137.549 197.5 153.829 185.98 165.81" stroke="#55CBDC" stroke-miterlimit="10"/>
<path d="M139.05 59.9304H137.221V66.6374H139.05V59.9304Z" fill="#55CBDC"/>
<path d="M139.05 172.669H137.221V179.376H139.05V172.669Z" fill="#55CBDC"/>
<path d="M197.823 120.575V118.716H191.119V120.575H197.823Z" fill="#55CBDC"/>
<path d="M85.1764 120.588V118.729H78.472V120.588H85.1764Z" fill="#55CBDC"/>
<path d="M179.692 162.544L181.007 161.229L176.265 156.487L174.951 157.802L179.692 162.544Z" fill="#55CBDC"/>
<path d="M100.034 82.8232L101.348 81.5081L96.6066 76.7662L95.2923 78.0813L100.034 82.8232Z" fill="#55CBDC"/>
<path d="M95.2984 161.225L96.6127 162.54L101.354 157.798L100.04 156.483L95.2984 161.225Z" fill="#55CBDC"/>
<path d="M174.958 81.5034L176.272 82.8186L181.014 78.0767L179.699 76.7616L174.958 81.5034Z" fill="#55CBDC"/>
<path d="M178.027 79.7467C167.36 69.0764 153.22 63.223 138.135 63.223C123.081 63.223 108.91 69.1069 98.2442 79.7467C87.5781 90.417 81.727 104.593 81.727 119.653C81.727 123.159 82.0317 126.604 82.6717 129.958C82.7326 129.927 82.7936 129.897 82.8545 129.897C82.2451 126.574 81.9098 123.159 81.9098 119.653C81.9098 88.6183 107.143 63.3755 138.135 63.3755C169.128 63.3755 194.361 88.6183 194.361 119.653C194.361 150.689 169.128 175.932 138.135 175.932C112.567 175.932 90.9303 158.768 84.1345 135.324C84.0735 135.354 84.0126 135.354 83.9516 135.354C86.5724 144.409 91.4179 152.701 98.2747 159.56C108.941 170.231 123.081 176.084 138.166 176.084C153.22 176.084 167.391 170.2 178.057 159.56C188.723 148.89 194.574 134.714 194.574 119.653C194.574 104.593 188.693 90.3865 178.027 79.7467Z" fill="#55CBDC"/>
<path d="M139.111 70.814H137.191L136.215 130.354H140.116L139.111 70.814ZM138.592 129.257H137.678C137.404 129.257 137.221 129.043 137.221 128.799L137.678 88.9839C137.678 88.74 137.892 88.5266 138.135 88.5266C138.379 88.5266 138.592 88.74 138.592 88.9839L139.05 128.799C139.08 129.043 138.867 129.257 138.592 129.257Z" fill="#55CBDC"/>
<path d="M174.979 110.782L130.243 120.72L130.943 123.647L175.314 112.215L174.979 110.782ZM161.631 115.111L131.949 122.61C131.766 122.671 131.553 122.55 131.522 122.336L131.37 121.635C131.309 121.452 131.431 121.239 131.644 121.208L161.509 114.41C161.692 114.379 161.906 114.471 161.936 114.684C161.936 114.897 161.845 115.08 161.631 115.111Z" fill="#55CBDC"/>
<path d="M142.158 119.653C142.158 121.879 140.36 123.678 138.135 123.678C135.911 123.678 134.113 121.879 134.113 119.653C134.113 117.428 135.911 115.629 138.135 115.629C140.36 115.629 142.158 117.428 142.158 119.653Z" fill="#55CBDC"/>
<path d="M140.574 119.653C140.574 120.995 139.476 122.062 138.166 122.062C136.825 122.062 135.759 120.964 135.759 119.653C135.759 118.312 136.856 117.245 138.166 117.245C139.476 117.245 140.574 118.312 140.574 119.653Z" fill="#55CBDC"/>
<path d="M247.387 66.3936C246.259 66.3936 245.162 66.546 244.187 66.8509C242.876 63.6498 239.616 61.3938 235.776 61.3938C231.509 61.3938 227.974 64.1986 226.999 67.9484C226.268 67.674 225.475 67.5216 224.622 67.5216C221.087 67.5216 218.222 70.2654 218.222 73.6189H227.609H231.052H238.397H243.973H256.437C256.437 69.6251 252.384 66.3936 247.387 66.3936Z" stroke="#55CBDC" stroke-miterlimit="10"/>
<path d="M108.392 128.129C107.265 128.129 106.168 128.281 105.193 128.586C103.882 125.385 100.621 123.129 96.7815 123.129C92.5151 123.129 88.9801 125.934 88.0049 129.683C87.2735 129.409 86.4812 129.257 85.6279 129.257C82.0928 129.257 79.2282 132 79.2282 135.354H88.6144H92.0275H99.3719H104.949H117.413C117.413 131.391 113.39 128.129 108.392 128.129Z" stroke="#55CBDC" stroke-miterlimit="10"/>
<path d="M214.626 165.841C214.626 165.841 214.596 180.84 211.091 193.583L203.595 198.278H177.173C182.202 184.895 182.232 165.841 182.232 165.841H214.626Z" stroke="#55CBDC" stroke-miterlimit="10"/>
<path d="M203.595 198.248V193.461H211.091" stroke="#55CBDC" stroke-miterlimit="10"/>
<path d="M194.727 186.358L189.241 180.078C188.936 179.742 188.967 179.224 189.333 178.919C189.668 178.614 190.186 178.645 190.491 179.011L194.909 184.071L204.052 176.175C204.387 175.87 204.905 175.931 205.21 176.267C205.514 176.602 205.454 177.12 205.118 177.425L194.727 186.358Z" fill="#55CBDC"/>
<path d="M194.422 230.35L194.391 229.679C195.915 229.588 197.439 229.466 198.993 229.344L199.054 230.014C197.5 230.136 195.946 230.258 194.422 230.35ZM206.276 229.1L206.185 228.46C207.678 228.216 209.202 227.972 210.726 227.667L210.848 228.307C209.324 228.581 207.77 228.856 206.276 229.1ZM217.948 226.691L217.796 226.051C219.289 225.685 220.782 225.258 222.215 224.832L222.397 225.472C220.935 225.899 219.411 226.325 217.948 226.691ZM229.315 223.216L229.102 222.606C230.534 222.088 231.997 221.539 233.399 220.96L233.643 221.57C232.21 222.118 230.778 222.698 229.315 223.216ZM240.286 218.612L240.012 218.033C241.383 217.362 242.785 216.661 244.095 215.96L244.4 216.539C243.09 217.21 241.688 217.942 240.286 218.612ZM250.708 212.82L250.343 212.271C251.653 211.448 252.933 210.594 254.152 209.71L254.518 210.259C253.329 211.113 252.019 211.997 250.708 212.82ZM260.338 205.778L259.912 205.29C261.1 204.284 262.228 203.247 263.325 202.211L263.782 202.698C262.685 203.735 261.527 204.772 260.338 205.778ZM268.749 197.363L268.231 196.937C269.237 195.748 270.182 194.528 271.035 193.309L271.583 193.705C270.73 194.924 269.755 196.144 268.749 197.363ZM275.454 187.486L274.875 187.181C275.606 185.839 276.246 184.437 276.825 183.035L277.435 183.279C276.855 184.711 276.185 186.114 275.454 187.486ZM279.751 176.389L279.111 176.236C279.476 174.773 279.751 173.249 279.964 171.755L280.604 171.846C280.391 173.34 280.116 174.864 279.751 176.389ZM280.36 164.529C280.33 163.036 280.208 161.481 280.025 159.956L280.665 159.865C280.848 161.42 280.97 162.975 281 164.499L280.36 164.529ZM278.684 152.884C278.288 151.451 277.831 149.957 277.313 148.494L277.922 148.28C278.44 149.743 278.897 151.237 279.293 152.701L278.684 152.884ZM274.509 141.847C273.839 140.476 273.107 139.104 272.315 137.823L272.894 137.488C273.686 138.799 274.418 140.171 275.118 141.573L274.509 141.847ZM268.201 131.909C267.256 130.72 266.22 129.561 265.184 128.464L265.671 128.007C266.738 129.104 267.774 130.263 268.749 131.482L268.201 131.909ZM259.79 123.678C258.601 122.763 257.321 121.879 256.011 121.086L256.346 120.537C257.657 121.361 258.936 122.245 260.155 123.159L259.79 123.678ZM249.672 117.702C248.301 117.092 246.869 116.513 245.436 115.964L245.65 115.355C247.112 115.903 248.575 116.483 249.946 117.092L249.672 117.702ZM238.519 113.861C237.086 113.495 235.562 113.16 234.039 112.885L234.161 112.245C235.715 112.55 237.239 112.885 238.671 113.251L238.519 113.861ZM163.033 113.708V113.038C164.435 113.038 165.959 113.007 167.635 112.916L167.665 113.587C165.959 113.647 164.465 113.678 163.033 113.708ZM155.75 113.343C154.195 113.16 152.641 112.916 151.179 112.58L151.331 111.94C152.794 112.245 154.317 112.489 155.841 112.672L155.75 113.343ZM174.918 113.16L174.857 112.489C176.35 112.367 177.905 112.245 179.459 112.123L179.52 112.794C177.935 112.916 176.411 113.038 174.918 113.16ZM186.742 112.184L186.681 111.513C188.205 111.391 189.729 111.27 191.283 111.148L191.344 111.818C189.79 111.94 188.266 112.062 186.742 112.184ZM226.877 111.757C225.384 111.574 223.86 111.452 222.306 111.331L222.367 110.66C223.921 110.782 225.475 110.934 226.969 111.087L226.877 111.757ZM198.597 111.361L198.566 110.69C200.151 110.599 201.705 110.538 203.168 110.477L203.199 111.148C201.736 111.178 200.182 111.27 198.597 111.361ZM215.053 110.995C213.56 110.965 212.006 110.965 210.451 110.965V110.294C212.006 110.294 213.56 110.294 215.084 110.324L215.053 110.995ZM144.169 110.446C142.737 109.867 141.305 109.196 139.994 108.434L140.33 107.855C141.64 108.587 143.011 109.257 144.444 109.837L144.169 110.446ZM133.991 104.227C132.833 103.221 131.705 102.093 130.7 100.935L131.187 100.508C132.193 101.636 133.259 102.733 134.418 103.739L133.991 104.227ZM126.494 94.9593C125.732 93.5874 125.092 92.1545 124.574 90.7217L125.184 90.5083C125.702 91.9106 126.342 93.313 127.073 94.6544L126.494 94.9593ZM123.081 83.5269C123.081 83.3134 123.081 83.1 123.081 82.9171C123.081 81.3318 123.325 79.9295 123.782 78.8624L124.391 79.1368C123.965 80.1124 123.751 81.4233 123.751 82.9171C123.751 83.1 123.751 83.3134 123.751 83.5269H123.081Z" fill="#55CBDC"/>
<path d="M154.531 240.166L185.554 232.453L176.472 229.313L154.531 240.166Z" stroke="#55CBDC" stroke-miterlimit="10" stroke-linejoin="bevel"/>
<path d="M154.531 240.166L166.446 229.1L173.455 230.807L154.531 240.166Z" stroke="#55CBDC" stroke-miterlimit="10" stroke-linejoin="bevel"/>
<path d="M178.423 234.222L178.026 237.758L154.531 240.167L178.423 234.222Z" stroke="#55CBDC" stroke-miterlimit="10" stroke-linejoin="bevel"/>
<path d="M26.9643 131.391L1 112.764L10.5995 113.19L26.9643 131.391Z" stroke="#55CBDC" stroke-miterlimit="10" stroke-linejoin="bevel"/>
<path d="M26.9642 131.39L19.9855 116.695L12.8545 115.689L26.9642 131.39Z" stroke="#55CBDC" stroke-miterlimit="10" stroke-linejoin="bevel"/>
<path d="M6.97297 117.032L6.02826 120.477L26.9643 131.391L6.97297 117.032Z" stroke="#55CBDC" stroke-miterlimit="10" stroke-linejoin="bevel"/>
<path d="M8.2835 106.88C7.70449 105.355 7.12547 103.831 6.6074 102.337L7.21689 102.124C7.73496 103.618 8.2835 105.111 8.86252 106.636L8.2835 106.88ZM4.47419 95.3862C4.04754 93.7704 3.65137 92.1241 3.31615 90.5693L3.95612 90.4474C4.29134 92.0022 4.65703 93.618 5.11415 95.2338L4.47419 95.3862ZM2.1886 83.344C2.00575 81.6673 1.91432 79.9905 1.88385 78.3747H2.55429C2.58476 79.96 2.70666 81.6063 2.85904 83.2831L2.1886 83.344ZM2.88951 71.1799L2.24954 71.0885C2.46287 69.4117 2.76761 67.7654 3.16378 66.2106L3.80375 66.3631C3.40758 67.9179 3.10283 69.5337 2.88951 71.1799ZM6.15028 59.5951L5.54079 59.3207C6.24171 57.8269 7.03405 56.3635 7.94828 54.9611L8.49682 55.327C7.64354 56.6684 6.8512 58.1317 6.15028 59.5951ZM12.9766 49.687L12.489 49.2297C13.6165 48.0712 14.866 46.9432 16.1459 45.8762L16.5726 46.3944C15.3231 47.431 14.1041 48.559 12.9766 49.687ZM22.5151 42.3092L22.1799 41.73C23.5817 40.9069 25.0445 40.1447 26.5682 39.413L26.8425 40.0227C25.3492 40.7239 23.9169 41.5166 22.5151 42.3092ZM33.5469 37.279L33.3336 36.6692C34.8573 36.151 36.442 35.6327 38.0571 35.1754L38.24 35.8156C36.6553 36.2424 35.0706 36.7302 33.5469 37.279ZM118.114 35.3278V34.6571C119.759 34.6266 121.405 34.5657 123.02 34.4437L123.081 35.1144C121.435 35.2059 119.759 35.2973 118.114 35.3278ZM110.8 35.1144C109.185 34.9925 107.509 34.84 105.863 34.6571L105.954 34.0169C107.6 34.2303 109.246 34.3828 110.861 34.4742L110.8 35.1144ZM130.304 34.1693L130.182 33.5291C131.827 33.2243 133.442 32.8889 134.966 32.4621L135.119 33.1023C133.564 33.4986 131.949 33.8645 130.304 34.1693ZM45.2796 34.0779L45.1577 33.4377C46.7424 33.1023 48.388 32.8279 50.0336 32.5536L50.125 33.1938C48.4794 33.4682 46.8643 33.7425 45.2796 34.0779ZM98.671 33.5291C97.1168 33.2852 95.5016 33.0413 93.795 32.8279L93.8865 32.1877C95.593 32.4011 97.2387 32.645 98.7929 32.9194L98.671 33.5291ZM57.3475 32.2792L57.2866 31.6085C58.9017 31.456 60.5778 31.3036 62.2234 31.2122L62.2539 31.8829C60.6083 31.9743 58.9322 32.0963 57.3475 32.2792ZM86.6031 32.0658C84.9879 31.9438 83.3118 31.8219 81.6967 31.7304L81.7271 31.0597C83.3728 31.1512 85.0489 31.2426 86.664 31.3951L86.6031 32.0658ZM69.5068 31.5475V30.8768C71.1525 30.8463 72.8286 30.8463 74.4742 30.8463V31.517C72.7981 31.517 71.122 31.517 69.5068 31.5475ZM142.067 30.7853L141.823 30.1756C144.688 28.9866 146.181 28.0111 146.181 27.9806L146.546 28.5293C146.486 28.5598 144.992 29.5659 142.067 30.7853Z" fill="#55CBDC"/>
<path d="M61.1263 35.6022C63.7776 21.1211 63.8081 7.3717 63.8081 7.3717H107.813C107.813 7.3717 107.783 27.7367 102.998 45.0225L92.8198 51.3942H56.9208C58.2008 47.9492 59.2674 44.2603 60.0902 40.5105" stroke="#55CBDC" stroke-miterlimit="10"/>
<path d="M92.7892 51.3939V44.9003H102.968" stroke="#55CBDC" stroke-miterlimit="10"/>
<path d="M82.0318 34.3218L76.0283 27.4318C75.6931 27.066 75.7541 26.4867 76.1197 26.1819C76.4854 25.8465 77.0645 25.9075 77.3692 26.2733L82.2147 31.8219L92.2103 23.1942C92.576 22.8588 93.155 22.9198 93.4598 23.2856C93.795 23.6515 93.734 24.2307 93.3683 24.5356L82.0318 34.3218Z" fill="#55CBDC"/>
<path d="M60.9129 35.6023C60.151 35.6023 59.4196 35.7242 58.7187 35.9376C57.835 33.7731 55.6103 32.2183 53.02 32.2183C50.1249 32.2183 47.7174 34.1084 47.047 36.6693C46.5594 36.4864 46.0109 36.3644 45.4318 36.3644C43.0243 36.3644 41.074 38.2241 41.074 40.5106H47.4432H49.7897H54.757H58.5664H67.0383C67.0383 37.7973 64.2956 35.6023 60.9129 35.6023Z" stroke="#55CBDC" stroke-miterlimit="10"/>
</g>
</svg>
