<svg width="268" height="53" viewBox="0 0 268 53" fill="none" xmlns="http://www.w3.org/2000/svg">
<g clip-path="url(#clip0_162_1699)">
<path d="M46.1157 13.25C45.5913 12.3225 44.5426 11.7925 43.1005 11.6158C43.1879 12.0133 43.2316 12.3667 43.2316 12.8083C43.2316 13.25 43.1442 13.7358 43.0568 14.1333C43.319 14.2658 43.4938 14.4867 43.6249 14.7517C44.7611 16.8275 41.7458 21.0233 36.2398 25.4842C35.9776 25.2633 35.4532 24.91 35.1036 24.6008C34.9288 23.4967 34.6229 22.4367 34.1422 21.465C33.8364 20.8467 33.5305 20.2283 33.1372 19.6542C33.1372 20.3608 33.0498 21.5092 32.875 22.9667C32.7876 23.4967 32.7439 24.115 32.6128 24.6892C32.3943 25.9258 32.0884 27.295 31.6951 28.7967C31.564 29.1942 31.4766 29.6358 31.3018 30.0333C31.3018 30.0333 31.3018 29.9008 31.3018 29.5917C31.3018 29.415 31.3018 29.1942 31.3018 29.0175C31.3455 28.1342 31.3455 27.295 31.3455 26.4117C31.3455 25.5283 31.3455 24.6892 31.3018 23.85C31.3018 23.1875 31.2581 22.525 31.2144 21.8625C31.127 20.2283 30.9959 18.6825 30.8648 17.1808C30.8648 17.1367 30.8648 17.0925 30.8648 17.0483C30.8648 17.0483 30.8211 16.695 30.7774 16.5625C30.7337 16.2975 30.69 16.0325 30.6463 15.7675L33.0498 14.9283C33.2246 15.2375 33.4868 15.5467 33.7053 15.8117C33.8364 15.9442 33.9675 16.0767 34.0985 16.2092C34.9288 16.9158 36.0213 17.3575 37.2012 17.3575C39.8668 17.3575 42.008 15.1492 42.008 12.455C42.008 10.9533 41.3526 9.62833 40.3038 8.745C39.4735 7.99417 38.381 7.5525 37.2012 7.5525C34.5355 7.5525 32.3943 9.76083 32.3943 12.455C32.3943 12.7642 32.438 13.0733 32.4817 13.3825V13.4267C31.8262 13.6475 31.127 13.9125 30.4278 14.1775C29.1606 5.78583 26.4949 0 23.4797 0C20.4645 0 17.8426 5.74167 16.5316 14.2217C8.70952 11.1742 2.50428 10.6 0.974818 13.25C-0.554642 15.9 3.02866 21.1117 9.58349 26.5C3.02866 31.8442 -0.510943 37.0117 0.974818 39.7058C2.50428 42.4 8.70952 41.8258 16.5753 38.7783C17.8863 47.2142 20.5082 53.0442 23.5234 53.0442C26.5386 53.0442 29.1606 47.3025 30.4715 38.8225C38.2936 41.87 44.4989 42.4442 46.0283 39.7942C47.6452 37.0558 44.0182 31.8883 37.5071 26.5C44.0182 21.1117 47.6015 15.9442 46.1157 13.25ZM35.4532 13.6033L35.628 11.4392C35.6717 10.7767 35.8465 10.2908 36.1524 9.9375C36.4146 9.58417 36.8953 9.4075 37.5071 9.4075C38.0751 9.4075 38.4684 9.54 38.6869 9.84917C38.9054 10.1583 38.9928 10.5558 38.9491 11.13L38.9054 11.6158H37.8566L37.9004 11.0858C37.9004 10.865 37.9441 10.6883 37.9004 10.6C37.9004 10.4675 37.8567 10.3792 37.7693 10.2908C37.6819 10.2025 37.5945 10.1583 37.4197 10.1583C37.2449 10.1583 37.1138 10.2025 37.0264 10.2908C36.939 10.3792 36.8516 10.4675 36.8079 10.6C36.7642 10.7325 36.7205 10.9092 36.7205 11.13L36.502 13.7358C36.4583 14.0892 36.502 14.31 36.5894 14.4867C36.6768 14.6192 36.8079 14.7075 37.0264 14.7075C37.2012 14.7075 37.3323 14.6633 37.4197 14.575C37.5071 14.4867 37.5508 14.3983 37.5945 14.2658C37.6382 14.1333 37.6382 13.9567 37.6819 13.7358L37.7256 13.2058H38.7743L38.7306 13.6917C38.6869 14.2658 38.5121 14.7075 38.2499 15.0167C37.9877 15.3258 37.5508 15.5025 36.9827 15.5025C36.3709 15.5025 35.9339 15.3258 35.7154 14.9725C35.4969 14.7075 35.4095 14.2217 35.4532 13.6033ZM3.55305 14.6192C4.73292 12.5875 9.80199 13.1617 16.4005 15.7675C16.3568 16.165 16.3131 16.7392 16.2694 17.1808C15.2643 17.9758 14.4341 18.9475 13.7349 20.0517C13.429 20.4933 13.2105 20.9792 12.9483 21.465C13.5601 21.1117 14.5652 20.6258 16.0072 20.0075C16.4879 19.7867 17.056 19.61 17.6241 19.345C18.7603 18.9475 20.1149 18.4617 21.557 18.1083C21.9503 17.9758 22.3873 17.9317 22.7805 17.7992C22.4747 17.9317 22.1688 18.1525 21.9066 18.285C21.6007 18.4175 21.2948 18.6383 20.9889 18.7708C20.9015 18.815 20.8578 18.8592 20.7267 18.9033C20.3334 19.08 20.0275 19.3008 19.6342 19.5217C18.8913 19.9633 18.1485 20.405 17.4493 20.8467C17.3182 20.935 17.1871 20.9792 17.056 21.1117C16.9249 21.2 16.8375 21.2442 16.7064 21.3325C16.4005 21.5092 16.0946 21.73 15.8324 21.9067C14.6526 22.7017 13.3416 23.585 12.0743 24.5567C12.0306 24.6008 12.0306 24.6008 11.9869 24.645C11.7247 24.8217 11.4625 25.0425 11.244 25.2192C11.2004 25.2192 11.2004 25.2633 11.1567 25.2633C11.0693 25.3517 11.0256 25.3958 10.9382 25.44C5.4321 20.8908 2.37318 16.695 3.55305 14.6192ZM24.6596 21.995C26.1891 21.995 26.8445 22.8342 26.7134 24.5567C26.5823 26.1908 25.7084 26.9858 24.1352 26.9858H23.2612L22.9116 31.005H21.2948L22.0814 21.995H24.6596V21.995ZM16.3568 37.1C9.75829 39.6617 4.68922 40.28 3.50935 38.2042C2.37318 36.1283 5.3884 31.9325 10.8945 27.4717C11.2004 27.6925 11.6373 28.0458 11.9869 28.3108C12.3365 30.5192 13.2542 32.5508 14.5652 34.185C14.6526 34.3175 14.74 34.4058 14.8274 34.4942C14.9585 34.6267 15.0895 34.8033 15.2643 34.9358C15.3517 35.0242 15.4828 35.1567 15.5702 35.245C15.745 35.4217 15.9635 35.5983 16.182 35.775C16.182 35.775 16.182 35.775 16.2257 35.8192C16.2257 35.8192 16.2257 35.8192 16.2694 35.8192C16.6627 36.1283 17.056 36.3933 17.4493 36.6583C17.056 36.835 16.6627 36.9675 16.3568 37.1ZM23.5671 49.9967C21.2074 49.9967 19.1972 45.1825 18.1048 38.1158C18.4107 37.9833 18.8913 37.7625 19.2846 37.63C20.2897 38.0275 21.3822 38.2925 22.5184 38.3808C22.8679 38.425 23.2175 38.425 23.5671 38.425C23.9167 38.425 24.31 38.425 24.6596 38.3808C24.0478 37.9833 23.0864 37.365 21.9066 36.4375C21.5133 36.0842 21.0326 35.775 20.5519 35.3333C19.6342 34.5383 18.5855 33.6108 17.5367 32.5067C17.2308 32.1975 16.9249 31.8883 16.6627 31.5792C16.6627 31.5792 16.9686 31.7558 17.5367 32.1092C17.6241 32.1533 17.6678 32.1975 17.7115 32.2417C18.3233 32.6392 19.0224 33.0367 19.6779 33.4342C20.4208 33.8758 21.1637 34.3175 21.9066 34.6708C22.4747 34.98 23.0427 35.2892 23.6108 35.5983C24.4848 36.04 25.3151 36.4817 26.1891 36.8792C26.7134 37.1442 27.2815 37.365 27.8059 37.63C27.8496 37.63 27.8496 37.6742 27.8933 37.6742C28.2866 37.8067 28.6799 37.9833 29.0732 38.16C27.937 45.2267 25.9269 49.9967 23.5671 49.9967ZM27.7622 15.37C26.4513 14.84 25.0092 14.575 23.5234 14.575C21.5133 14.575 19.5905 15.105 17.93 16.0325C17.9737 15.5467 18.1048 15.0167 18.1485 14.7517C19.2409 7.685 21.2511 2.915 23.6108 2.915C25.9706 2.915 27.9807 7.72917 29.0732 14.7958C28.7673 14.8842 28.1555 15.1933 27.7622 15.37ZM43.5812 38.2483C42.4013 40.3242 37.3323 39.75 30.7337 37.1442C30.7774 36.7908 30.8211 36.2167 30.8648 35.8192C32.2632 34.6708 33.3994 33.2133 34.1422 31.535C34.6666 30.3867 35.0162 29.15 35.1473 27.825C35.191 27.4717 35.191 27.0742 35.191 26.6767C35.4969 26.9417 35.9339 27.295 36.1961 27.5158C41.7022 32.0208 44.7611 36.1725 43.5812 38.2483ZM46.1157 13.25C45.5913 12.3225 44.5426 11.7925 43.1005 11.6158C43.1879 12.0133 43.2316 12.3667 43.2316 12.8083C43.2316 13.25 43.1442 13.7358 43.0568 14.1333C43.319 14.2658 43.4938 14.4867 43.6249 14.7517C44.7611 16.8275 41.7458 21.0233 36.2398 25.4842C35.9776 25.2633 35.4532 24.91 35.1036 24.6008C34.9288 23.4967 34.6229 22.4367 34.1422 21.465C33.8364 20.8467 33.5305 20.2283 33.1372 19.6542C33.1372 20.3608 33.0498 21.5092 32.875 22.9667C32.7876 23.4967 32.7439 24.115 32.6128 24.6892C32.3943 25.9258 32.0884 27.295 31.6951 28.7967C31.564 29.1942 31.4766 29.6358 31.3018 30.0333C31.3018 30.0333 31.3018 29.9008 31.3018 29.5917C31.3018 29.415 31.3018 29.1942 31.3018 29.0175C31.3455 28.1342 31.3455 27.295 31.3455 26.4117C31.3455 25.5283 31.3455 24.6892 31.3018 23.85C31.3018 23.1875 31.2581 22.525 31.2144 21.8625C31.127 20.2283 30.9959 18.6825 30.8648 17.1808C30.8648 17.1367 30.8648 17.0925 30.8648 17.0483C30.8648 17.0483 30.8211 16.695 30.7774 16.5625C30.7337 16.2975 30.69 16.0325 30.6463 15.7675L33.0498 14.9283C33.2246 15.2375 33.4868 15.5467 33.7053 15.8117C33.8364 15.9442 33.9675 16.0767 34.0985 16.2092C34.9288 16.9158 36.0213 17.3575 37.2012 17.3575C39.8668 17.3575 42.008 15.1492 42.008 12.455C42.008 10.9533 41.3526 9.62833 40.3038 8.745C39.4735 7.99417 38.381 7.5525 37.2012 7.5525C34.5355 7.5525 32.3943 9.76083 32.3943 12.455C32.3943 12.7642 32.438 13.0733 32.4817 13.3825V13.4267C31.8262 13.6475 31.127 13.9125 30.4278 14.1775C29.1606 5.78583 26.4949 0 23.4797 0C20.4645 0 17.8426 5.74167 16.5316 14.2217C8.70952 11.1742 2.50428 10.6 0.974818 13.25C-0.554642 15.9 3.02866 21.1117 9.58349 26.5C3.02866 31.8442 -0.510943 37.0117 0.974818 39.7058C2.50428 42.4 8.70952 41.8258 16.5753 38.7783C17.8863 47.2142 20.5082 53.0442 23.5234 53.0442C26.5386 53.0442 29.1606 47.3025 30.4715 38.8225C38.2936 41.87 44.4989 42.4442 46.0283 39.7942C47.6452 37.0558 44.0182 31.8883 37.5071 26.5C44.0182 21.1117 47.6015 15.9442 46.1157 13.25ZM35.4532 13.6033L35.628 11.4392C35.6717 10.7767 35.8465 10.2908 36.1524 9.9375C36.4146 9.58417 36.8953 9.4075 37.5071 9.4075C38.0751 9.4075 38.4684 9.54 38.6869 9.84917C38.9054 10.1583 38.9928 10.5558 38.9491 11.13L38.9054 11.6158H37.8566L37.9004 11.0858C37.9004 10.865 37.9441 10.6883 37.9004 10.6C37.9004 10.4675 37.8567 10.3792 37.7693 10.2908C37.6819 10.2025 37.5945 10.1583 37.4197 10.1583C37.2449 10.1583 37.1138 10.2025 37.0264 10.2908C36.939 10.3792 36.8516 10.4675 36.8079 10.6C36.7642 10.7325 36.7205 10.9092 36.7205 11.13L36.502 13.7358C36.4583 14.0892 36.502 14.31 36.5894 14.4867C36.6768 14.6192 36.8079 14.7075 37.0264 14.7075C37.2012 14.7075 37.3323 14.6633 37.4197 14.575C37.5071 14.4867 37.5508 14.3983 37.5945 14.2658C37.6382 14.1333 37.6382 13.9567 37.6819 13.7358L37.7256 13.2058H38.7743L38.7306 13.6917C38.6869 14.2658 38.5121 14.7075 38.2499 15.0167C37.9877 15.3258 37.5508 15.5025 36.9827 15.5025C36.3709 15.5025 35.9339 15.3258 35.7154 14.9725C35.4969 14.7075 35.4095 14.2217 35.4532 13.6033ZM3.55305 14.6192C4.73292 12.5875 9.80199 13.1617 16.4005 15.7675C16.3568 16.165 16.3131 16.7392 16.2694 17.1808C15.2643 17.9758 14.4341 18.9475 13.7349 20.0517C13.429 20.4933 13.2105 20.9792 12.9483 21.465C13.5601 21.1117 14.5652 20.6258 16.0072 20.0075C16.4879 19.7867 17.056 19.61 17.6241 19.345C18.7603 18.9475 20.1149 18.4617 21.557 18.1083C21.9503 17.9758 22.3873 17.9317 22.7805 17.7992C22.4747 17.9317 22.1688 18.1525 21.9066 18.285C21.6007 18.4175 21.2948 18.6383 20.9889 18.7708C20.9015 18.815 20.8578 18.8592 20.7267 18.9033C20.3334 19.08 20.0275 19.3008 19.6342 19.5217C18.8913 19.9633 18.1485 20.405 17.4493 20.8467C17.3182 20.935 17.1871 20.9792 17.056 21.1117C16.9249 21.2 16.8375 21.2442 16.7064 21.3325C16.4005 21.5092 16.0946 21.73 15.8324 21.9067C14.6526 22.7017 13.3416 23.585 12.0743 24.5567C12.0306 24.6008 12.0306 24.6008 11.9869 24.645C11.7247 24.8217 11.4625 25.0425 11.244 25.2192C11.2004 25.2192 11.2004 25.2633 11.1567 25.2633C11.0693 25.3517 11.0256 25.3958 10.9382 25.44C5.4321 20.8908 2.37318 16.695 3.55305 14.6192ZM24.6596 21.995C26.1891 21.995 26.8445 22.8342 26.7134 24.5567C26.5823 26.1908 25.7084 26.9858 24.1352 26.9858H23.2612L22.9116 31.005H21.2948L22.0814 21.995H24.6596V21.995ZM16.3568 37.1C9.75829 39.6617 4.68922 40.28 3.50935 38.2042C2.37318 36.1283 5.3884 31.9325 10.8945 27.4717C11.2004 27.6925 11.6373 28.0458 11.9869 28.3108C12.3365 30.5192 13.2542 32.5508 14.5652 34.185C14.6526 34.3175 14.74 34.4058 14.8274 34.4942C14.9585 34.6267 15.0895 34.8033 15.2643 34.9358C15.3517 35.0242 15.4828 35.1567 15.5702 35.245C15.745 35.4217 15.9635 35.5983 16.182 35.775C16.182 35.775 16.182 35.775 16.2257 35.8192C16.2257 35.8192 16.2257 35.8192 16.2694 35.8192C16.6627 36.1283 17.056 36.3933 17.4493 36.6583C17.056 36.835 16.6627 36.9675 16.3568 37.1ZM23.5671 49.9967C21.2074 49.9967 19.1972 45.1825 18.1048 38.1158C18.4107 37.9833 18.8913 37.7625 19.2846 37.63C20.2897 38.0275 21.3822 38.2925 22.5184 38.3808C22.8679 38.425 23.2175 38.425 23.5671 38.425C23.9167 38.425 24.31 38.425 24.6596 38.3808C24.0478 37.9833 23.0864 37.365 21.9066 36.4375C21.5133 36.0842 21.0326 35.775 20.5519 35.3333C19.6342 34.5383 18.5855 33.6108 17.5367 32.5067C17.2308 32.1975 16.9249 31.8883 16.6627 31.5792C16.6627 31.5792 16.9686 31.7558 17.5367 32.1092C17.6241 32.1533 17.6678 32.1975 17.7115 32.2417C18.3233 32.6392 19.0224 33.0367 19.6779 33.4342C20.4208 33.8758 21.1637 34.3175 21.9066 34.6708C22.4747 34.98 23.0427 35.2892 23.6108 35.5983C24.4848 36.04 25.3151 36.4817 26.1891 36.8792C26.7134 37.1442 27.2815 37.365 27.8059 37.63C27.8496 37.63 27.8496 37.6742 27.8933 37.6742C28.2866 37.8067 28.6799 37.9833 29.0732 38.16C27.937 45.2267 25.9269 49.9967 23.5671 49.9967ZM27.7622 15.37C26.4513 14.84 25.0092 14.575 23.5234 14.575C21.5133 14.575 19.5905 15.105 17.93 16.0325C17.9737 15.5467 18.1048 15.0167 18.1485 14.7517C19.2409 7.685 21.2511 2.915 23.6108 2.915C25.9706 2.915 27.9807 7.72917 29.0732 14.7958C28.7673 14.8842 28.1555 15.1933 27.7622 15.37ZM43.5812 38.2483C42.4013 40.3242 37.3323 39.75 30.7337 37.1442C30.7774 36.7908 30.8211 36.2167 30.8648 35.8192C32.2632 34.6708 33.3994 33.2133 34.1422 31.535C34.6666 30.3867 35.0162 29.15 35.1473 27.825C35.191 27.4717 35.191 27.0742 35.191 26.6767C35.4969 26.9417 35.9339 27.295 36.1961 27.5158C41.7022 32.0208 44.7611 36.1725 43.5812 38.2483ZM23.9604 25.8375H23.3486L23.5671 23.1433H24.2226C24.5285 23.1433 24.7907 23.1875 24.9218 23.2758C25.0529 23.3642 25.1403 23.4967 25.184 23.7175C25.2277 23.8942 25.2277 24.1592 25.184 24.5567C25.1403 25.0425 25.0529 25.3958 24.8781 25.5725C24.7033 25.7492 24.3974 25.8375 23.9604 25.8375ZM23.9604 25.8375H23.3486L23.5671 23.1433H24.2226C24.5285 23.1433 24.7907 23.1875 24.9218 23.2758C25.0529 23.3642 25.1403 23.4967 25.184 23.7175C25.2277 23.8942 25.2277 24.1592 25.184 24.5567C25.1403 25.0425 25.0529 25.3958 24.8781 25.5725C24.7033 25.7492 24.3974 25.8375 23.9604 25.8375ZM69.582 16.7833C70.9367 17.4017 72.0292 18.3292 72.772 19.4775C73.5149 20.6258 73.9082 21.995 73.9082 23.585C73.9082 25.1308 73.5149 26.5 72.772 27.6925C72.0292 28.8408 70.9804 29.7683 69.582 30.3867C68.2274 31.005 66.5668 31.3142 64.7314 31.3142H60.4927V37.1883H55.5984V15.8117H64.7314C66.6105 15.8117 68.2274 16.1208 69.582 16.7833ZM67.7904 26.3233C68.5332 25.6608 68.9265 24.7775 68.9265 23.585C68.9265 22.3925 68.5332 21.465 67.7904 20.8025C67.0475 20.14 65.9113 19.8308 64.4256 19.8308H60.4927V27.2508H64.4693C65.9113 27.2508 67.0475 26.9417 67.7904 26.3233ZM81.9488 36.1283C80.2008 35.1567 78.8025 33.8758 77.8411 32.1975C76.836 30.5192 76.3553 28.62 76.3553 26.5442C76.3553 24.4683 76.836 22.5692 77.8411 20.8908C78.8462 19.2125 80.2008 17.8875 81.9488 16.96C83.6968 15.9883 85.6632 15.5467 87.8481 15.5467C90.0331 15.5467 91.9995 16.0325 93.7475 16.96C95.4954 17.9317 96.8501 19.2125 97.8552 20.8908C98.8603 22.5692 99.3409 24.4683 99.3409 26.5442C99.3409 28.62 98.8603 30.5192 97.8552 32.1975C96.8501 33.8758 95.4954 35.2008 93.7475 36.1283C91.9995 37.1 90.0331 37.5417 87.8481 37.5417C85.6632 37.5417 83.6968 37.0558 81.9488 36.1283ZM91.2567 32.4625C92.2617 31.8883 93.0483 31.0933 93.6164 30.0333C94.1845 29.0175 94.4904 27.825 94.4904 26.5C94.4904 25.175 94.1845 23.9825 93.6164 22.9667C93.0483 21.9508 92.2617 21.1117 91.2567 20.5375C90.2516 19.9633 89.1154 19.6542 87.8918 19.6542C86.6246 19.6542 85.5321 19.9633 84.527 20.5375C83.522 21.1117 82.7354 21.9067 82.1673 22.9667C81.5992 23.9825 81.2933 25.175 81.2933 26.5C81.2933 27.825 81.5992 29.0175 82.1673 30.0333C82.7354 31.0492 83.522 31.8883 84.527 32.4625C85.5321 33.0367 86.6683 33.3458 87.8918 33.3458C89.1154 33.3458 90.2516 33.0367 91.2567 32.4625ZM134.256 15.8117L127.352 37.1883H122.108L117.476 22.7458L112.669 37.1883H107.469L100.521 15.8558H105.59L110.353 30.8725L115.335 15.8558H119.836L124.643 31.005L129.537 15.8558H134.256V15.8117ZM153.309 33.2133V37.1883H136.966V15.8117H152.916V19.7867H141.816V24.4242H151.605V28.2667H141.816V33.2133H153.309ZM170.614 37.1883L166.55 31.2258H166.288H162.049V37.1883H157.155V15.8117H166.288C168.167 15.8117 169.784 16.1208 171.138 16.7392C172.493 17.3575 173.585 18.285 174.328 19.4333C175.071 20.5817 175.464 21.9508 175.464 23.5408C175.464 25.1308 175.071 26.5 174.328 27.6483C173.585 28.7967 172.493 29.68 171.138 30.2983L175.858 37.1883H170.614ZM169.39 20.8025C168.647 20.14 167.511 19.8308 166.025 19.8308H162.049V27.295H166.025C167.511 27.295 168.604 26.9858 169.39 26.3233C170.133 25.6608 170.526 24.7775 170.526 23.585C170.526 22.3925 170.177 21.465 169.39 20.8025ZM183.592 36.1283C181.844 35.2008 180.49 33.8758 179.485 32.1975C178.48 30.5192 177.999 28.62 177.999 26.5C177.999 24.38 178.48 22.4808 179.485 20.8025C180.49 19.1242 181.844 17.7992 183.592 16.8717C185.34 15.9442 187.263 15.4583 189.448 15.4583C191.283 15.4583 192.944 15.7675 194.386 16.43C195.872 17.0925 197.095 18.02 198.1 19.2567L194.954 22.1717C193.512 20.4933 191.764 19.6542 189.666 19.6542C188.356 19.6542 187.176 19.9633 186.171 20.5375C185.165 21.1117 184.335 21.9067 183.767 22.9667C183.199 23.9825 182.893 25.175 182.893 26.5C182.893 27.825 183.199 29.0175 183.767 30.0333C184.335 31.0492 185.122 31.8883 186.171 32.4625C187.176 33.0367 188.356 33.3458 189.666 33.3458C191.764 33.3458 193.556 32.5067 194.954 30.8283L198.1 33.7433C197.095 34.98 195.872 35.9075 194.342 36.57C192.856 37.2325 191.196 37.5417 189.361 37.5417C187.307 37.5417 185.34 37.0558 183.592 36.1283ZM205.267 36.1283C203.519 35.1567 202.121 33.8758 201.159 32.1975C200.154 30.5192 199.674 28.62 199.674 26.5442C199.674 24.4683 200.154 22.5692 201.159 20.8908C202.164 19.2125 203.519 17.8875 205.267 16.96C207.015 15.9883 208.981 15.5467 211.166 15.5467C213.351 15.5467 215.318 16.0325 217.066 16.96C218.814 17.9317 220.168 19.2125 221.173 20.8908C222.178 22.5692 222.659 24.4683 222.659 26.5442C222.659 28.62 222.178 30.5192 221.173 32.1975C220.168 33.8758 218.814 35.2008 217.066 36.1283C215.318 37.1 213.351 37.5417 211.166 37.5417C208.981 37.5417 207.015 37.0558 205.267 36.1283ZM214.575 32.4625C215.58 31.8883 216.366 31.0933 216.935 30.0333C217.503 29.0175 217.809 27.825 217.809 26.5C217.809 25.175 217.503 23.9825 216.935 22.9667C216.366 21.9508 215.58 21.1117 214.575 20.5375C213.57 19.9633 212.434 19.6542 211.21 19.6542C209.943 19.6542 208.85 19.9633 207.845 20.5375C206.84 21.1117 206.054 21.9067 205.485 22.9667C204.917 23.9825 204.611 25.175 204.611 26.5C204.611 27.825 204.917 29.0175 205.485 30.0333C206.054 31.0492 206.84 31.8883 207.845 32.4625C208.85 33.0367 209.986 33.3458 211.21 33.3458C212.434 33.3458 213.57 33.0367 214.575 32.4625ZM226.417 15.8117H235.987C238.26 15.8117 240.313 16.2533 242.061 17.1367C243.809 18.02 245.164 19.2567 246.169 20.8908C247.13 22.4808 247.611 24.38 247.611 26.5C247.611 28.62 247.13 30.5192 246.169 32.1092C245.208 33.6992 243.809 34.98 242.061 35.8633C240.313 36.7467 238.26 37.1883 235.987 37.1883H226.417V15.8117ZM235.725 33.125C237.823 33.125 239.527 32.5508 240.75 31.3583C242.018 30.1658 242.629 28.5758 242.629 26.5442C242.629 24.5125 242.018 22.8783 240.75 21.73C239.483 20.5375 237.823 19.9633 235.725 19.9633H231.268V33.2133H235.725V33.125ZM267.625 33.2133V37.1883H251.282V15.8117H267.232V19.7867H256.132V24.4242H265.921V28.2667H256.132V33.2133H267.625Z" fill="url(#paint0_linear_162_1699)"/>
</g>
<defs>
<linearGradient id="paint0_linear_162_1699" x1="60.3695" y1="99.8732" x2="206.925" y2="-45.1299" gradientUnits="userSpaceOnUse">
<stop stop-color="#123754"/>
<stop offset="0.9988" stop-color="#33788D"/>
</linearGradient>
<clipPath id="clip0_162_1699">
<rect width="267" height="53" fill="white" transform="translate(0.625)"/>
</clipPath>
</defs>
</svg>
