<svg width="40" height="48" viewBox="0 0 40 48" fill="none" xmlns="http://www.w3.org/2000/svg">
<path fill-rule="evenodd" clip-rule="evenodd" d="M40 19.6369C40 34.9096 20 48.0005 20 48.0005C20 48.0005 0 34.9096 0 19.6369C0 14.429 2.10713 9.43439 5.85787 5.75185C9.6086 2.06931 14.6957 0.000488281 20 0.000488281C25.3042 0.000488281 30.3913 2.06931 34.1422 5.75185C37.8929 9.43439 40 14.429 40 19.6369Z" fill="#55CBDC"/>
<path fill-rule="evenodd" clip-rule="evenodd" d="M26.6963 19.9919C26.4999 19.8375 26.3035 19.6831 26.0892 19.5287C26.0088 19.4687 25.924 19.4086 25.8392 19.3486C25.7544 19.2886 25.6695 19.2285 25.5892 19.1685C25.4463 18.3107 25.1071 17.5216 24.6071 16.8354C24.6071 17.1442 24.5714 17.6931 24.4821 18.4136C24.4743 18.4658 24.4666 18.5195 24.4586 18.5745C24.43 18.7729 24.399 18.9879 24.3571 19.2028C24.2499 19.7689 24.1071 20.3865 23.9106 21.0555C23.8571 21.2442 23.8035 21.4329 23.7321 21.6216V21.4158V21.1585C23.7499 20.7639 23.7499 20.3693 23.7499 19.9748C23.7499 19.5802 23.7499 19.1856 23.7321 18.8082C23.7321 18.5166 23.7142 18.2078 23.6964 17.9161C23.6607 17.1613 23.5892 16.4408 23.5178 15.7374C23.5178 15.7374 23.4999 15.583 23.4821 15.5144L23.4285 15.1542L24.5892 14.7768C24.9463 15.3943 25.607 15.8404 26.3749 15.909C26.4106 15.909 26.4508 15.9133 26.4909 15.9176L26.491 15.9176C26.5311 15.9219 26.5713 15.9261 26.607 15.9261C27.7142 15.9261 28.6427 15.1885 28.8749 14.1935C28.9106 14.0391 28.9284 13.8675 28.9284 13.696C28.9284 13.5416 28.9106 13.3872 28.8749 13.25C28.7141 12.478 28.1249 11.8432 27.3392 11.5859C27.107 11.5173 26.857 11.4658 26.5892 11.4658C25.3035 11.4658 24.2678 12.4608 24.2678 13.696C24.2678 13.8332 24.2856 13.9705 24.3035 14.1077L24.3035 14.1077C24.0695 14.1826 23.8356 14.2666 23.5947 14.3531C23.5047 14.3855 23.4137 14.4181 23.3214 14.4508C22.6964 10.6252 21.4285 8.00049 19.9821 8.00049C18.5357 8.00049 17.2679 10.6081 16.6429 14.4337C12.893 13.0441 9.91088 12.7868 9.17875 13.9876C8.44662 15.1885 10.1609 17.5387 13.3037 19.9919C10.1609 22.4279 8.44662 24.761 9.16089 25.979C9.89303 27.1971 12.8751 26.9397 16.6429 25.5502C17.2679 29.3758 18.5357 32.0005 19.9821 32.0005C21.4285 32.0005 22.6964 29.3929 23.3214 25.5673C27.0713 26.9569 30.0534 27.2142 30.7855 26.0134C31.5534 24.7782 29.8213 22.4279 26.6963 19.9919ZM19.9642 19.6831H20.2321C20.4285 19.6831 20.5714 19.6488 20.6428 19.563C20.7142 19.4772 20.7678 19.34 20.7856 19.117C20.7856 19.0717 20.7906 19.0312 20.7953 18.9929L20.7953 18.9929C20.7995 18.9587 20.8035 18.9263 20.8035 18.8939V18.791C20.8035 18.7052 20.7499 18.6366 20.6964 18.6023C20.6249 18.5508 20.5178 18.5337 20.3749 18.5337H20.0892L19.9642 19.6831ZM25.8392 13.1471L25.7321 14.125C25.7321 14.2108 25.7321 14.2794 25.8035 14.3308V14.4166C25.8035 14.5196 25.8213 14.6053 25.8571 14.6739C25.8749 14.7426 25.9285 14.8112 25.9821 14.8627C26.0535 14.9141 26.1249 14.9484 26.2142 14.9827C26.3035 15.0171 26.4106 15.0342 26.5356 15.0342C26.6785 15.0342 26.8213 14.9999 26.9285 14.9656C27.0356 14.9313 27.1249 14.8798 27.1963 14.794C27.2677 14.7254 27.3213 14.6396 27.357 14.5367C27.3927 14.4338 27.4106 14.3137 27.4285 14.1936L27.4463 13.9706H26.8927L26.857 14.2279C26.8392 14.2622 26.8392 14.3137 26.8392 14.3308C26.8392 14.338 26.8361 14.348 26.8325 14.3598C26.8274 14.3764 26.8213 14.3965 26.8213 14.4166C26.8135 14.4317 26.8091 14.4467 26.8051 14.4603C26.8 14.4777 26.7956 14.4928 26.7856 14.5024C26.7678 14.5367 26.7499 14.5539 26.732 14.571C26.7181 14.5978 26.7042 14.6037 26.6817 14.6131L26.6717 14.6174L26.6606 14.6225C26.6249 14.6396 26.5892 14.6396 26.5535 14.6396C26.4463 14.6396 26.3928 14.6053 26.357 14.5367C26.3392 14.5024 26.3213 14.4338 26.3213 14.3652V14.2279L26.4463 13.0099C26.4463 12.9928 26.4508 12.9756 26.4553 12.9585L26.4553 12.9584L26.4553 12.9584C26.4597 12.9413 26.4642 12.9241 26.4642 12.907C26.4642 12.8727 26.4642 12.8384 26.482 12.804C26.4899 12.789 26.4943 12.774 26.4982 12.7604L26.4982 12.7604C26.5033 12.7429 26.5077 12.7279 26.5178 12.7183C26.5356 12.684 26.5535 12.6668 26.5713 12.6496C26.5853 12.6229 26.5992 12.617 26.6217 12.6075L26.6217 12.6075L26.6217 12.6075C26.628 12.6049 26.6349 12.6019 26.6428 12.5982C26.6785 12.581 26.7142 12.581 26.7499 12.581H26.8213C26.8303 12.581 26.8392 12.5853 26.8481 12.5896C26.857 12.5939 26.866 12.5982 26.8749 12.5982L26.9106 12.6325C26.9106 12.6411 26.9151 12.6454 26.9195 12.6496C26.924 12.6539 26.9285 12.6582 26.9285 12.6668C26.9463 12.684 26.9463 12.7011 26.9463 12.7183V12.7697V12.8384V12.907V12.9756L26.9106 13.2329H27.482L27.5177 12.9927V12.8384C27.5177 12.7697 27.5177 12.7183 27.4999 12.6668C27.482 12.581 27.4463 12.4953 27.3927 12.4266C27.3392 12.3409 27.2677 12.2894 27.1606 12.2551C27.0535 12.2208 26.9285 12.2036 26.7856 12.2036C26.6249 12.2036 26.482 12.2379 26.3749 12.2722C26.2499 12.3237 26.1606 12.3752 26.0892 12.4609C26.0178 12.5467 25.9642 12.6496 25.9285 12.7526C25.8749 12.8727 25.8571 12.9927 25.8392 13.1471ZM10.4109 14.6222C10.9823 13.6959 13.4108 13.9532 16.5715 15.1369C16.5358 15.3428 16.5179 15.5315 16.5 15.7373C15.8215 16.2691 15.2679 16.9382 14.8929 17.7102C15.1786 17.5558 15.6786 17.3156 16.375 17.0411C16.5228 16.9756 16.6851 16.917 16.8526 16.8566L16.8527 16.8565C16.9483 16.822 17.0456 16.7869 17.1429 16.7495C17.6964 16.5608 18.3393 16.3549 19.0357 16.1834C19.1339 16.1576 19.2321 16.1362 19.3303 16.1147C19.4286 16.0933 19.5268 16.0719 19.625 16.0461C19.625 16.0461 19.75 15.9775 20.0178 15.8574L20.0178 15.8575C19.7499 15.9947 19.4821 16.1319 19.1964 16.2691C19.1404 16.2961 19.0843 16.3256 19.0272 16.3557C18.9387 16.4024 18.8477 16.4505 18.75 16.4922C18.7143 16.5093 18.6786 16.5265 18.625 16.5608C18.5357 16.6037 18.4509 16.6508 18.3661 16.698L18.3661 16.698C18.2813 16.7452 18.1964 16.7924 18.1072 16.8353C17.9688 16.915 17.8305 16.9922 17.6932 17.0688L17.693 17.0688C17.4759 17.1899 17.2614 17.3096 17.0536 17.4357C16.9822 17.47 16.9286 17.5043 16.8572 17.5558L16.6965 17.6587L16.2679 17.916C15.6786 18.2763 15.0358 18.7052 14.4108 19.1512C14.2858 19.237 14.1608 19.3228 14.0536 19.4085C14.0447 19.4085 14.0403 19.4128 14.0358 19.4171C14.0313 19.4214 14.0269 19.4257 14.0179 19.4257C14.0001 19.4428 13.9822 19.4557 13.9644 19.4686C13.9465 19.4814 13.9287 19.4943 13.9108 19.5115C11.3037 17.47 9.83943 15.5658 10.4109 14.6222ZM21.6072 18.8942C21.6072 18.9628 21.6072 19.0486 21.5893 19.1344C21.5715 19.3402 21.5179 19.529 21.4465 19.6662C21.375 19.8206 21.2857 19.9235 21.1607 20.0093C21.0357 20.0951 20.9107 20.1637 20.7679 20.198C20.625 20.2323 20.4643 20.2495 20.2858 20.2495H19.8929L19.6965 22.0336H18.8394L19.2858 17.9507H20.5893C21.2857 17.9507 21.6072 18.2595 21.6072 18.8942ZM16.2858 18.7825C16.2903 18.7782 16.2947 18.7739 16.3037 18.7739C16.2858 18.7739 16.268 18.7911 16.268 18.7911C16.2322 18.8082 16.2144 18.8254 16.1965 18.8425C16.2322 18.8254 16.2501 18.8082 16.268 18.7911C16.2769 18.7911 16.2814 18.7868 16.2858 18.7825ZM20.0179 30.6453C18.8929 30.6453 17.9108 28.4666 17.3929 25.2586C17.4822 25.2243 17.576 25.1857 17.6697 25.1471C17.7635 25.1085 17.8572 25.0699 17.9465 25.0356C18.5893 25.2757 19.2858 25.413 20.0179 25.413C20.1965 25.413 20.375 25.413 20.5536 25.3958C20.2679 25.2243 19.7858 24.9326 19.1965 24.5037C19.1118 24.4372 19.0204 24.3706 18.9253 24.3012L18.9252 24.3012C18.7998 24.2098 18.6678 24.1136 18.5358 24.0063C18.0894 23.646 17.5894 23.2171 17.0894 22.7196C16.9465 22.5824 16.8037 22.4451 16.6787 22.2907C16.6787 22.2907 16.8215 22.3765 17.0894 22.5309C17.1072 22.5395 17.1206 22.5481 17.134 22.5566C17.1474 22.5652 17.1608 22.5738 17.1787 22.5824C17.365 22.6982 17.558 22.8076 17.7536 22.9184L17.7537 22.9184C17.8768 22.9882 18.0009 23.0585 18.1251 23.1313C18.4822 23.3372 18.8393 23.5259 19.1965 23.6975C19.3304 23.7661 19.4688 23.8347 19.6072 23.9033C19.7456 23.9719 19.884 24.0406 20.0179 24.1092C20.4286 24.315 20.8393 24.5037 21.25 24.6925C21.3839 24.7525 21.5223 24.8125 21.6607 24.8726L21.6611 24.8728C21.7994 24.9327 21.9376 24.9927 22.0714 25.0527C22.1214 25.0719 22.1727 25.0911 22.225 25.1107L22.2253 25.1108C22.36 25.1611 22.5014 25.214 22.6428 25.2757C22.125 28.4837 21.1429 30.6453 20.0179 30.6453ZM17.9465 25.0356C17.8792 25.0086 17.8119 24.9817 17.7445 24.9536C17.8096 24.9822 17.8764 25.0097 17.9465 25.0356ZM17.7445 24.9536C17.5976 24.8925 17.4506 24.8263 17.3036 24.7439C17.3468 24.7647 17.3892 24.7854 17.4314 24.806C17.5353 24.8567 17.6375 24.9067 17.7445 24.9536ZM17.0537 24.6067C17.0015 24.6267 16.951 24.6467 16.9015 24.6663L16.9014 24.6664L16.9012 24.6664L16.9011 24.6665C16.7811 24.714 16.6674 24.759 16.5537 24.7954C13.393 25.9619 10.9466 26.2364 10.3752 25.2929C9.82163 24.3494 11.2859 22.4623 13.9287 20.438C14.0091 20.498 14.0939 20.5581 14.1787 20.6181C14.2635 20.6782 14.3483 20.7382 14.4287 20.7982C14.643 22.1707 15.393 23.3887 16.4822 24.2121C16.6608 24.3494 16.8572 24.4866 17.0537 24.6067ZM22.6786 14.9654C22.692 15.0512 22.7054 15.1369 22.7143 15.2227C22.7143 15.2381 22.7179 15.2536 22.7219 15.2705C22.7267 15.2913 22.7322 15.3145 22.7322 15.3428C22.7322 15.2913 22.7322 15.257 22.7143 15.2227C22.6964 15.034 22.6786 14.8625 22.6607 14.6909L22.6607 14.6909C22.1429 11.4829 21.1608 9.3042 20.0358 9.3042C18.9108 9.3042 17.9287 11.4657 17.4108 14.6737L17.4108 14.6738C17.3751 14.8453 17.3394 15.0169 17.3215 15.2056L17.3215 15.2056C17.5358 15.1026 17.7501 14.9997 17.9822 14.9139C18.6072 14.6909 19.3036 14.5537 20.0179 14.5537C20.75 14.5537 21.4465 14.6909 22.0893 14.9311C22.1786 14.8968 22.2723 14.8582 22.3661 14.8196L22.3661 14.8195C22.4599 14.781 22.5536 14.7424 22.6429 14.7081C22.6518 14.7938 22.6652 14.8796 22.6786 14.9654ZM29.6248 25.327C29.0534 26.2533 26.6249 25.996 23.4642 24.8123C23.4999 24.6065 23.5178 24.4177 23.5357 24.2119C24.6071 23.3884 25.3571 22.1876 25.5892 20.8152C25.6249 20.5922 25.6428 20.352 25.6606 20.1118C25.7612 20.1964 25.8707 20.2725 25.9766 20.346L25.9766 20.346C26.021 20.3769 26.0648 20.4073 26.107 20.4378C28.732 22.4964 30.1963 24.3834 29.6248 25.327ZM26.0892 19.5287C28.732 17.5044 30.1963 15.6173 29.6427 14.6738C29.5892 14.5537 29.4999 14.4679 29.3749 14.3993C29.4285 14.2106 29.4642 14.0048 29.4642 13.7989C29.4642 13.6102 29.4285 13.4387 29.3928 13.2671L29.3927 13.2671C30.0892 13.3529 30.5892 13.593 30.8392 14.0048C31.5534 15.2228 29.8392 17.5559 26.6964 19.9919C26.4999 19.8375 26.3035 19.6831 26.0892 19.5287Z" fill="white"/>
</svg>
