<svg width="119" height="13" viewBox="0 0 119 13" fill="none" xmlns="http://www.w3.org/2000/svg">
<path fill-rule="evenodd" clip-rule="evenodd" d="M8.96951 1.70435C9.83842 2.43844 10.2729 3.44779 10.2729 4.73244C10.2729 6.01709 9.83842 7.02358 8.96951 7.75193C8.10061 8.48028 6.90016 8.84445 5.36814 8.84445H2.14405V12.6468H0.875V0.60323H5.36814C6.90016 0.60323 8.10061 0.970268 8.96951 1.70435ZM8.06059 6.94329C8.68941 6.4214 9.00381 5.68446 9.00381 4.73244C9.00381 3.75749 8.68941 3.00907 8.06059 2.48718C7.43178 1.96529 6.52287 1.70435 5.33384 1.70435H2.14405V7.72612H5.33384C6.52287 7.72612 7.43178 7.46518 8.06059 6.94329ZM15.2033 11.95C14.2372 11.4166 13.4827 10.6854 12.9396 9.75632C12.3965 8.82724 12.125 7.78348 12.125 6.625C12.125 5.46652 12.3965 4.42276 12.9396 3.49368C13.4827 2.5646 14.2372 1.83339 15.2033 1.30004C16.1694 0.766676 17.2469 0.5 18.436 0.5C19.625 0.5 20.6968 0.763808 21.6515 1.29143C22.6061 1.81906 23.3578 2.55026 23.9066 3.48508C24.4554 4.41989 24.7298 5.46652 24.7298 6.625C24.7298 7.78348 24.4554 8.83011 23.9066 9.76492C23.3578 10.6997 22.6061 11.4309 21.6515 11.9586C20.6968 12.4862 19.625 12.75 18.436 12.75C17.2469 12.75 16.1694 12.4833 15.2033 11.95ZM21.0084 10.9693C21.7744 10.5391 22.3746 9.94271 22.8091 9.17995C23.2435 8.41719 23.4607 7.56555 23.4607 6.625C23.4607 5.68445 23.2435 4.83281 22.8091 4.07005C22.3746 3.30729 21.7744 2.71085 21.0084 2.28072C20.2424 1.85059 19.3849 1.63553 18.436 1.63553C17.487 1.63553 16.6267 1.85059 15.855 2.28072C15.0833 2.71085 14.4773 3.30729 14.0372 4.07005C13.597 4.83281 13.3769 5.68445 13.3769 6.625C13.3769 7.56555 13.597 8.41719 14.0372 9.17995C14.4773 9.94271 15.0833 10.5391 15.855 10.9693C16.6267 11.3994 17.487 11.6145 18.436 11.6145C19.3849 11.6145 20.2424 11.3994 21.0084 10.9693ZM43.697 0.60323L39.6498 12.6468H38.3121L34.7965 2.37535L31.2637 12.6468H29.9432L25.896 0.60323H27.1993L30.6635 10.9607L34.2477 0.60323H35.431L38.9638 11.0123L42.4794 0.60323H43.697ZM54.5011 11.5456V12.6468H46.0122V0.60323H54.2439V1.70435H47.2812V5.98841H53.4893V7.07233H47.2812V11.5456H54.5011ZM65.6825 12.6468L62.9386 8.77563C62.63 8.81004 62.3098 8.82725 61.9783 8.82725H58.7542V12.6468H57.4851V0.60323H61.9783C63.5103 0.60323 64.7107 0.970268 65.5797 1.70435C66.4486 2.43844 66.883 3.44779 66.883 4.73244C66.883 5.67299 66.6458 6.46728 66.1713 7.11534C65.6968 7.7634 65.0194 8.2308 64.1391 8.51756L67.0716 12.6468H65.6825ZM64.6707 6.9519C65.2995 6.42427 65.6139 5.68446 65.6139 4.73244C65.6139 3.75749 65.2995 3.00907 64.6707 2.48718C64.0419 1.96529 63.133 1.70435 61.944 1.70435H58.7542V7.74333H61.944C63.133 7.74333 64.0419 7.47952 64.6707 6.9519ZM71.882 11.9586C70.9274 11.4309 70.1786 10.6997 69.6355 9.76492C69.0924 8.83011 68.8209 7.78348 68.8209 6.625C68.8209 5.46652 69.0924 4.41989 69.6355 3.48508C70.1786 2.55026 70.9303 1.81906 71.8906 1.29143C72.851 0.763808 73.9257 0.5 75.1147 0.5C76.0065 0.5 76.8296 0.649109 77.5842 0.947331C78.3388 1.24555 78.979 1.68141 79.505 2.25492L78.6989 3.06355C77.7614 2.11154 76.5781 1.63553 75.149 1.63553C74.2001 1.63553 73.3369 1.85346 72.5594 2.28933C71.782 2.72519 71.1732 3.32163 70.733 4.07865C70.2929 4.83568 70.0728 5.68445 70.0728 6.625C70.0728 7.56555 70.2929 8.41432 70.733 9.17135C71.1732 9.92838 71.782 10.5248 72.5594 10.9607C73.3369 11.3965 74.2001 11.6145 75.149 11.6145C76.5896 11.6145 77.7729 11.1327 78.6989 10.1692L79.505 10.9779C78.979 11.5514 78.3359 11.9901 77.5756 12.2941C76.8154 12.598 75.9893 12.75 75.0976 12.75C73.9085 12.75 72.8367 12.4862 71.882 11.9586ZM83.9724 11.95C83.0063 11.4166 82.2517 10.6854 81.7087 9.75632C81.1656 8.82724 80.8941 7.78348 80.8941 6.625C80.8941 5.46652 81.1656 4.42276 81.7087 3.49368C82.2517 2.5646 83.0063 1.83339 83.9724 1.30004C84.9385 0.766676 86.016 0.5 87.205 0.5C88.3941 0.5 89.4659 0.763808 90.4205 1.29143C91.3752 1.81906 92.1269 2.55026 92.6757 3.48508C93.2245 4.41989 93.4989 5.46652 93.4989 6.625C93.4989 7.78348 93.2245 8.83011 92.6757 9.76492C92.1269 10.6997 91.3752 11.4309 90.4205 11.9586C89.4659 12.4862 88.3941 12.75 87.205 12.75C86.016 12.75 84.9385 12.4833 83.9724 11.95ZM89.7774 10.9693C90.5434 10.5391 91.1437 9.94271 91.5781 9.17995C92.0126 8.41719 92.2298 7.56555 92.2298 6.625C92.2298 5.68445 92.0126 4.83281 91.5781 4.07005C91.1437 3.30729 90.5434 2.71085 89.7774 2.28072C89.0114 1.85059 88.154 1.63553 87.205 1.63553C86.2561 1.63553 85.3958 1.85059 84.624 2.28072C83.8523 2.71085 83.2464 3.30729 82.8062 4.07005C82.366 4.83281 82.146 5.68445 82.146 6.625C82.146 7.56555 82.366 8.41719 82.8062 9.17995C83.2464 9.94271 83.8523 10.5391 84.624 10.9693C85.3958 11.3994 86.2561 11.6145 87.205 11.6145C88.154 11.6145 89.0114 11.3994 89.7774 10.9693ZM96.3457 0.60323H101.233C102.502 0.60323 103.623 0.858436 104.595 1.36886C105.566 1.87927 106.321 2.59041 106.858 3.50228C107.396 4.41415 107.664 5.45505 107.664 6.625C107.664 7.79495 107.396 8.83584 106.858 9.74772C106.321 10.6596 105.566 11.3707 104.595 11.8811C103.623 12.3916 102.502 12.6468 101.233 12.6468H96.3457V0.60323ZM101.165 11.5456C102.216 11.5456 103.137 11.3363 103.926 10.9177C104.715 10.499 105.326 9.91977 105.761 9.17995C106.195 8.44013 106.412 7.58849 106.412 6.625C106.412 5.66151 106.195 4.80987 105.761 4.07005C105.326 3.33023 104.715 2.751 103.926 2.33234C103.137 1.91368 102.216 1.70435 101.165 1.70435H97.6147V11.5456H101.165ZM119 11.5456V12.6468H110.511V0.60323H118.743V1.70435H111.78V5.98841H117.988V7.07233H111.78V11.5456H119Z" fill="#232F3C"/>
</svg>
