<svg width="74" height="74" viewBox="0 0 74 74" fill="none" xmlns="http://www.w3.org/2000/svg">
<g clip-path="url(#clip0_162_2204)">
<path d="M73.7134 66.2662L68.6899 51.6464C71.1061 46.7622 72.384 41.3182 72.3926 35.8403C72.4071 26.4072 68.7574 17.4876 62.1152 10.7252C55.4721 3.96142 46.6197 0.154286 37.1891 0.00464762C32.2481 -0.0746736 27.4537 0.835734 22.9317 2.70757C18.5702 4.5131 14.6588 7.12841 11.3065 10.4808C7.95397 13.8331 5.33865 17.7445 3.53327 22.106C1.66143 26.628 0.752027 31.4249 0.830205 36.3634C0.979557 45.794 4.78683 54.6464 11.5506 61.2897C18.2999 67.9188 27.1964 71.5674 36.6092 71.5673C36.6277 71.5673 36.6471 71.5673 36.6655 71.5673C42.1434 71.5587 47.5874 70.2808 52.4718 67.8646L67.0916 72.8882C67.6539 73.0814 68.2301 73.1756 68.8001 73.1756C70.1541 73.1756 71.4713 72.6436 72.47 71.6446C73.8891 70.2255 74.3657 68.1646 73.7134 66.2662ZM69.4022 68.5769C69.2583 68.7209 68.9502 68.9392 68.5012 68.7852L53.0094 63.4619C52.7803 63.3833 52.5421 63.3442 52.3046 63.3442C51.9544 63.3442 51.6058 63.4289 51.2901 63.596C46.8128 65.9646 41.7534 67.2209 36.6587 67.2286C19.5725 67.2562 5.4387 53.3781 5.168 36.2946C5.0318 27.6995 8.30127 19.6214 14.3741 13.5486C20.447 7.47585 28.5226 4.20696 37.1202 4.34288C54.2035 4.61371 68.0805 18.7405 68.0539 35.8336C68.0459 40.9284 66.7898 45.9878 64.4213 50.4648C64.1409 50.9948 64.0924 51.6172 64.2872 52.1842L69.6105 67.676C69.7647 68.1246 69.5463 68.4332 69.4022 68.5769Z" fill="#55CBDC"/>
<path d="M36.2558 51.8444C35.1211 51.8444 34.0341 52.8421 34.0865 54.0136C34.1391 55.1889 35.0397 56.1829 36.2558 56.1829C37.3905 56.1829 38.4775 55.1851 38.4251 54.0136C38.3725 52.8382 37.4719 51.8444 36.2558 51.8444Z" fill="#EF5B63"/>
<path d="M36.2563 18.2473C30.3052 18.2473 25.4636 23.0889 25.4636 29.04C25.4636 30.238 26.4349 31.2093 27.6329 31.2093C28.8308 31.2093 29.8021 30.238 29.8021 29.04C29.8021 25.4813 32.6976 22.5858 36.2563 22.5858C39.8151 22.5858 42.7105 25.4813 42.7105 29.04C42.7105 32.5987 39.8151 35.4942 36.2563 35.4942C35.0584 35.4942 34.0871 36.4655 34.0871 37.6634V46.511C34.0871 47.7089 35.0584 48.6802 36.2563 48.6802C37.4543 48.6802 38.4256 47.7091 38.4256 46.5108V39.6136C43.3405 38.6067 47.049 34.2483 47.049 29.04C47.049 23.0889 42.2074 18.2473 36.2563 18.2473Z" fill="#EF5B63"/>
</g>
<defs>
<clipPath id="clip0_162_2204">
<rect width="73.1758" height="73.1758" fill="white" transform="translate(0.824219)"/>
</clipPath>
</defs>
</svg>
