<svg width="19" height="17" viewBox="0 0 19 17" fill="none" xmlns="http://www.w3.org/2000/svg">
<g id="telegram">
<path id="XMLID_497_" fill-rule="evenodd" clip-rule="evenodd" d="M4.96549 9.60413L0.817933 8.05318C0.396673 7.89502 0.393013 7.29916 0.813073 7.13685L17.8348 0.557862C18.1956 0.418036 18.568 0.734779 18.4894 1.11446L15.4347 15.836C15.3627 16.1835 14.956 16.3412 14.6689 16.1321L10.499 13.0989C10.2457 12.9147 9.90055 12.9246 9.65821 13.1224L7.34629 15.0107C7.07791 15.2305 6.67357 15.1081 6.57085 14.7768L4.96549 9.60413ZM14.4181 3.77621L6.31226 8.77816C6.00159 8.97028 5.85531 9.34618 5.95569 9.69809L6.83211 12.7835C6.89433 13.0021 7.21107 12.9797 7.24125 12.7538L7.46912 11.0618C7.51208 10.7432 7.66376 10.4498 7.8989 10.2305L14.5886 4.0002C14.7137 3.88394 14.5638 3.68658 14.4181 3.77621Z" fill="#333333"/>
</g>
</svg>
