<svg width="18" height="18" viewBox="0 0 18 18" fill="none" xmlns="http://www.w3.org/2000/svg">
<g id="instagram">
<path id="Combined Shape" fill-rule="evenodd" clip-rule="evenodd" d="M12.375 0.000488281H5.625C2.51888 0.000488281 0 2.51936 0 5.62549V12.3755C0 15.4816 2.51888 18.0005 5.625 18.0005H12.375C15.4811 18.0005 18 15.4816 18 12.3755V5.62549C18 2.51936 15.4811 0.000488281 12.375 0.000488281ZM4.5 9.00049C4.5 6.51536 6.51487 4.50049 9 4.50049C11.4851 4.50049 13.5 6.51536 13.5 9.00049C13.5 11.4856 11.4851 13.5005 9 13.5005C6.51487 13.5005 4.5 11.4856 4.5 9.00049ZM6.1875 9.00049C6.1875 10.5507 7.44975 11.813 9 11.813C10.5503 11.813 11.8125 10.5507 11.8125 9.00049C11.8125 7.44911 10.5503 6.18799 9 6.18799C7.44975 6.18799 6.1875 7.44911 6.1875 9.00049ZM14.437 4.16298C14.437 4.49414 14.1686 4.7626 13.8374 4.7626C13.5063 4.7626 13.2378 4.49414 13.2378 4.16298C13.2378 3.83182 13.5063 3.56335 13.8374 3.56335C14.1686 3.56335 14.437 3.83182 14.437 4.16298Z" fill="white"/>
</g>
</svg>
