<svg width="19" height="17" viewBox="0 0 19 17" fill="none" xmlns="http://www.w3.org/2000/svg">
<g id="telegram">
<path id="XMLID_497_" fill-rule="evenodd" clip-rule="evenodd" d="M4.96549 9.60462L0.817933 8.05367C0.396673 7.89551 0.393013 7.29965 0.813073 7.13734L17.8348 0.55835C18.1956 0.418524 18.568 0.735267 18.4894 1.11495L15.4347 15.8365C15.3627 16.184 14.956 16.3417 14.6689 16.1326L10.499 13.0994C10.2457 12.9152 9.90055 12.925 9.65821 13.1229L7.34629 15.0112C7.07791 15.231 6.67357 15.1086 6.57085 14.7773L4.96549 9.60462ZM14.4181 3.7767L6.31226 8.77865C6.00159 8.97077 5.85531 9.34667 5.95569 9.69858L6.83211 12.784C6.89433 13.0026 7.21107 12.9802 7.24125 12.7543L7.46912 11.0623C7.51208 10.7437 7.66376 10.4503 7.8989 10.231L14.5886 4.00069C14.7137 3.88442 14.5638 3.68707 14.4181 3.7767Z" fill="white"/>
</g>
</svg>
