<svg width="18" height="13" viewBox="0 0 18 13" fill="none" xmlns="http://www.w3.org/2000/svg">
<g id="youtube">
<path id="Combined Shape" fill-rule="evenodd" clip-rule="evenodd" d="M15.138 0.103988C16.2169 0.164738 16.7467 0.324488 17.235 1.19299C17.7435 2.06036 18 3.55436 18 6.18574V6.18911V6.19474C18 8.81374 17.7435 10.319 17.2361 11.1774C16.7479 12.0459 16.218 12.2034 15.1391 12.2765C14.0602 12.3384 11.3501 12.3755 9.00225 12.3755C6.64988 12.3755 3.93863 12.3384 2.86088 12.2754C1.78425 12.2022 1.25437 12.0447 0.761625 11.1762C0.25875 10.3179 0 8.81261 0 6.19361V6.19136V6.18799V6.18461C0 3.55436 0.25875 2.06036 0.761625 1.19299C1.25437 0.323363 1.78537 0.164738 2.862 0.102863C3.93863 0.0308633 6.64988 0.000488281 9.00225 0.000488281C11.3501 0.000488281 14.0603 0.0308633 15.138 0.103988ZM12.375 6.18799L6.75 2.81299V9.56299L12.375 6.18799Z" fill="white"/>
</g>
</svg>
