<svg width="24" height="24" viewBox="0 0 24 24" fill="none" xmlns="http://www.w3.org/2000/svg">
<path fill-rule="evenodd" clip-rule="evenodd" d="M4 10.0005C4 5.58221 7.58172 2.00049 12 2.00049C16.4183 2.00049 20 5.58221 20 10.0005C20 13.7569 18.1763 15.2265 16.4762 16.5965C15.3613 17.495 14.2994 18.3507 13.84 19.7805L13.33 21.3205C13.187 21.7459 12.7782 22.0239 12.33 22.0005H11.77C11.3218 22.0239 10.913 21.7459 10.77 21.3205L10.26 19.7805C9.78216 18.3549 8.70547 17.5 7.57743 16.6044C5.84899 15.2322 4 13.7642 4 10.0005ZM9 10.0005C9 11.6573 10.3431 13.0005 12 13.0005C12.7956 13.0005 13.5587 12.6844 14.1213 12.1218C14.6839 11.5592 15 10.7961 15 10.0005C15 8.34363 13.6569 7.00049 12 7.00049C10.3431 7.00049 9 8.34363 9 10.0005Z" fill="white"/>
</svg>
