<svg width="120" height="58" viewBox="0 0 120 58" fill="none" xmlns="http://www.w3.org/2000/svg">
<path d="M28.9421 58C41.6238 58 48.6769 58 53.2632 53.4045C57.8842 48.7743 57.8842 41.707 57.8842 28.9999C57.8842 16.2928 57.8842 9.22556 53.2632 4.63012C48.6422 0.034668 41.6238 0.034668 28.9421 0.034668C16.2604 0.034668 9.20727 0.034668 4.62101 4.63012C0 9.22556 0 16.2928 0 28.9999C0 41.707 0 48.7743 4.62101 53.3697C9.20727 58 16.2604 58 28.9421 58Z" fill="black"/>
<path fill-rule="evenodd" clip-rule="evenodd" d="M35.995 27.0159C35.995 24.9619 37.628 23.256 39.8169 23.256H45.5497V35.1972H43.1176V30.7758H41.1372L38.4966 35.1972H35.6128L38.705 30.4277C37.1763 30.0447 35.995 28.7218 35.995 27.0159ZM38.5307 27.0853C38.5307 27.9905 39.1214 28.7564 40.129 28.7564H43.117V25.3446H40.129C39.0866 25.3446 38.5307 26.1802 38.5307 27.0853Z" fill="white"/>
<path d="M26.5444 23.2559L25.7453 25.484L29.046 25.4491L27.1003 32.6208C26.5444 34.7097 28.7333 36.2763 30.5748 35.0578L34.7788 32.2031L33.528 30.3579L29.324 33.2823L32.173 23.2559H26.5444V23.2559Z" fill="white"/>
<path d="M32.7638 20.2268C32.7638 21.0623 32.3816 21.7238 31.0961 21.7238C29.8453 21.7238 29.4283 21.0623 29.4283 20.2268C29.4283 19.3912 29.8453 18.7298 31.0961 18.7298C32.4164 18.695 32.7638 19.3912 32.7638 20.2268Z" fill="white"/>
<path fill-rule="evenodd" clip-rule="evenodd" d="M22.5494 20.4706V33.0036H24.2171V38.4694H21.8545V35.2317H13.0642V38.4694H10.7015V33.0036H11.8134C12.3693 32.2377 13.2726 30.2881 13.2726 27.1549V20.4706H22.5494ZM15.6359 22.6987V27.0156C15.6359 29.94 14.8367 32.1333 14.3156 33.0036H20.1526V22.6987H15.6359Z" fill="white"/>
<path fill-rule="evenodd" clip-rule="evenodd" d="M85.6452 42.0552C86.1663 44.8403 87.6951 47.2773 89.8145 48.8787C90.3009 49.2617 90.7526 49.6794 91.0306 50.3061C91.3433 49.7143 91.7602 49.2965 92.2814 48.9135C94.4702 47.3469 95.9295 44.8751 96.4507 42.09H103.156V12.6374C99.5082 14.4477 97.1108 18.4861 96.5897 22.6638L95.5821 30.9495L96.1032 30.8799C97.2151 30.8799 98.1532 31.9243 98.1532 32.9339C98.1532 33.9087 97.4235 34.7094 96.4854 34.9183L95.2346 35.1968C93.1847 31.3325 92.0034 27.5029 92.0034 23.7778C92.0034 22.1196 92.1317 20.4529 92.261 18.7733L92.261 18.7732L92.261 18.7732C92.3923 17.0676 92.5246 15.3487 92.5246 13.6122C92.5246 12.0803 91.9339 10.6878 90.9958 9.57373C90.0577 10.6878 89.4671 12.0803 89.4671 13.6122C89.499 15.1814 89.6118 16.7434 89.7244 18.3013V18.3013V18.3013V18.3013V18.3013V18.3014V18.3014V18.3014V18.3014C89.8565 20.1305 89.9882 21.9542 89.9882 23.7778C89.9882 27.5029 88.8069 31.3325 86.757 35.1968L85.5062 34.9183C84.5681 34.6746 83.8385 33.8739 83.8385 32.9339C83.8385 31.8895 84.7766 30.8799 85.8884 30.8799L86.4095 30.9495L85.402 22.6638C85.124 18.4861 82.4834 14.4825 78.8353 12.6374V42.0552H85.6452ZM84.186 29.2437C83.1784 29.8356 82.3445 30.7755 82.0666 31.8896V31.8548H80.8852V16.8499C82.2055 18.3818 83.1089 20.2965 83.3868 22.4202L84.186 29.2437ZM85.5062 40.0361C85.5062 39.0264 85.6452 38.0517 85.8884 37.1117L84.9503 36.9028C83.5605 36.4502 82.4487 35.371 82.1012 33.9784H80.9199V40.0709H85.5062V40.0361ZM87.8342 37.5294C89.085 37.7035 90.0231 38.7827 90.0231 40.036H87.452C87.452 39.1309 87.6257 38.3302 87.8342 37.5294ZM90.0233 42.0901H87.765C88.1471 43.6915 88.9463 45.1537 90.0233 46.407V42.0901ZM91.0654 30.671C91.5866 32.4117 92.3857 34.1175 93.2543 35.719C92.351 35.9279 91.6213 36.5197 91.0654 37.1812C90.4748 36.5197 89.7451 35.9279 88.8765 35.719C89.7451 34.1175 90.5443 32.4117 91.0654 30.671ZM94.6443 40.036C94.6443 39.1657 94.5053 38.365 94.2621 37.5294C93.0113 37.6687 92.0732 38.7827 92.0732 40.036H94.6443ZM92.0732 42.0901H94.3316C93.9841 43.6915 93.1503 45.1537 92.0732 46.407V42.0901ZM101.211 40.0014V33.9437H100.03C99.6476 35.3363 98.5705 36.4503 97.1807 36.8681L96.2426 37.077C96.4511 38.017 96.6248 38.9918 96.6248 40.0014H101.211ZM101.211 16.8846V31.8895V31.9243H100.029C99.7515 30.8102 98.9176 29.8702 97.91 29.2784L98.7091 22.4549C98.9523 20.3312 99.8904 18.4164 101.211 16.8846Z" fill="black"/>
<path fill-rule="evenodd" clip-rule="evenodd" d="M66.4661 4.59545C71.0524 0 78.1055 0 90.7525 0C103.399 0 110.453 0 115.039 4.59545C119.625 9.19089 119.625 16.2581 119.625 28.9304C119.625 41.6027 119.625 48.67 115.039 53.2654C110.453 57.8608 103.399 57.8608 90.7525 57.8608C78.1055 57.8608 71.0524 57.8608 66.4661 53.2654C61.8799 48.67 61.8799 41.6027 61.8799 28.9304C61.8799 16.2581 61.8799 9.19089 66.4661 4.59545ZM114.414 5.25694C110.07 0.905188 103.226 0.905188 90.7526 0.905188C78.2794 0.905188 71.4347 0.905188 67.0917 5.22212C62.7486 9.57387 62.7486 16.467 62.7486 28.9304C62.7486 41.4287 62.7486 48.287 67.0917 52.6736C71.4347 57.0253 78.2794 57.0253 90.7526 57.0253C103.226 57.0253 110.07 57.0253 114.414 52.6736C118.757 48.3218 118.757 41.4635 118.757 28.9653V28.9653V28.9652C118.757 16.467 118.757 9.60868 114.414 5.25694Z" fill="black"/>
</svg>
