<svg width="18" height="18" viewBox="0 0 18 18" fill="none" xmlns="http://www.w3.org/2000/svg">
<g id="instagram">
<path id="Combined Shape" fill-rule="evenodd" clip-rule="evenodd" d="M12.375 0H5.625C2.51888 0 0 2.51888 0 5.625V12.375C0 15.4811 2.51888 18 5.625 18H12.375C15.4811 18 18 15.4811 18 12.375V5.625C18 2.51888 15.4811 0 12.375 0ZM4.5 9C4.5 6.51487 6.51487 4.5 9 4.5C11.4851 4.5 13.5 6.51487 13.5 9C13.5 11.4851 11.4851 13.5 9 13.5C6.51487 13.5 4.5 11.4851 4.5 9ZM6.1875 9C6.1875 10.5503 7.44975 11.8125 9 11.8125C10.5503 11.8125 11.8125 10.5503 11.8125 9C11.8125 7.44863 10.5503 6.1875 9 6.1875C7.44975 6.1875 6.1875 7.44863 6.1875 9ZM14.437 4.16249C14.437 4.49365 14.1686 4.76212 13.8374 4.76212C13.5063 4.76212 13.2378 4.49365 13.2378 4.16249C13.2378 3.83133 13.5063 3.56287 13.8374 3.56287C14.1686 3.56287 14.437 3.83133 14.437 4.16249Z" fill="#333333"/>
</g>
</svg>
