<svg width="18" height="18" viewBox="0 0 18 18" fill="none" xmlns="http://www.w3.org/2000/svg">
<path fill-rule="evenodd" clip-rule="evenodd" d="M2.16112 4.16279C0.96809 4.16279 0 3.21559 0 2.07202C0 0.928439 0.96809 0.000488281 2.16112 0.000488281C3.35416 0.000488281 4.32224 0.928439 4.32224 2.07202C4.32224 3.21559 3.35416 4.16279 2.16112 4.16279ZM4.02911 17.2505H0.297363V5.73389H4.02911V17.2505ZM14.2723 17.2507H17.996H18.0001V10.9245C18.0001 7.82872 17.3052 5.44531 13.5292 5.44531C11.7135 5.44531 10.4963 6.40021 9.99827 7.30506H9.94606V5.73409H6.36694V17.2507H10.0947V11.5482C10.0947 10.0465 10.3919 8.59499 12.3321 8.59499C14.2442 8.59499 14.2723 10.3084 14.2723 11.6444V17.2507Z" fill="white"/>
</svg>
