<svg width="1270" height="103" viewBox="0 0 1270 103" fill="none" xmlns="http://www.w3.org/2000/svg">
<path d="M3.87 103C2.79933 103 1.92333 102.659 1.242 101.978C0.560667 101.297 0.22 100.421 0.22 99.35V4.45C0.22 3.37933 0.560667 2.50333 1.242 1.822C1.92333 1.14066 2.79933 0.799993 3.87 0.799993H22.704C23.7747 0.799993 24.6507 1.14066 25.332 1.822C26.0133 2.50333 26.354 3.37933 26.354 4.45V39.636H62.416V4.45C62.416 3.37933 62.7567 2.50333 63.438 1.822C64.1193 1.14066 64.9953 0.799993 66.066 0.799993H84.9C85.9707 0.799993 86.8467 1.14066 87.528 1.822C88.2093 2.50333 88.55 3.37933 88.55 4.45V99.35C88.55 100.421 88.2093 101.297 87.528 101.978C86.8467 102.659 85.9707 103 84.9 103H66.066C64.9953 103 64.1193 102.659 63.438 101.978C62.7567 101.297 62.416 100.421 62.416 99.35V62.996H26.354V99.35C26.354 100.421 26.0133 101.297 25.332 101.978C24.6507 102.659 23.7747 103 22.704 103H3.87ZM106.167 103C105.388 103 104.658 102.708 103.977 102.124C103.393 101.443 103.101 100.713 103.101 99.934C103.101 99.4473 103.15 99.0093 103.247 98.62L137.557 4.88799C137.849 3.81733 138.433 2.89266 139.309 2.11399C140.282 1.23799 141.596 0.799993 143.251 0.799993H164.859C166.514 0.799993 167.779 1.23799 168.655 2.11399C169.628 2.89266 170.261 3.81733 170.553 4.88799L204.717 98.62C204.912 99.0093 205.009 99.4473 205.009 99.934C205.009 100.713 204.668 101.443 203.987 102.124C203.403 102.708 202.673 103 201.797 103H183.839C182.379 103 181.26 102.659 180.481 101.978C179.8 101.199 179.362 100.518 179.167 99.934L173.473 85.042H134.491L128.943 99.934C128.748 100.518 128.31 101.199 127.629 101.978C126.948 102.659 125.78 103 124.125 103H106.167ZM140.477 64.018H167.633L153.909 25.474L140.477 64.018ZM223.167 103C222.096 103 221.22 102.659 220.539 101.978C219.858 101.297 219.517 100.421 219.517 99.35V4.45C219.517 3.37933 219.858 2.50333 220.539 1.822C221.22 1.14066 222.096 0.799993 223.167 0.799993H242.001C243.072 0.799993 243.948 1.14066 244.629 1.822C245.31 2.50333 245.651 3.37933 245.651 4.45V79.64H268.281V4.45C268.281 3.37933 268.622 2.50333 269.303 1.822C270.082 1.14066 270.958 0.799993 271.931 0.799993H290.765C291.836 0.799993 292.712 1.14066 293.393 1.822C294.172 2.50333 294.561 3.37933 294.561 4.45V79.64H317.045V4.45C317.045 3.37933 317.386 2.50333 318.067 1.822C318.846 1.14066 319.722 0.799993 320.695 0.799993H339.529C340.6 0.799993 341.476 1.14066 342.157 1.822C342.936 2.50333 343.325 3.37933 343.325 4.45V99.35C343.325 100.421 342.936 101.297 342.157 101.978C341.476 102.659 340.6 103 339.529 103H223.167ZM370.313 103C369.243 103 368.367 102.659 367.685 101.978C367.004 101.297 366.663 100.421 366.663 99.35V4.45C366.663 3.37933 367.004 2.50333 367.685 1.822C368.367 1.14066 369.243 0.799993 370.313 0.799993H389.877C390.948 0.799993 391.824 1.14066 392.505 1.822C393.187 2.50333 393.527 3.37933 393.527 4.45V99.35C393.527 100.421 393.187 101.297 392.505 101.978C391.824 102.659 390.948 103 389.877 103H370.313ZM454.731 103C453.661 103 452.785 102.659 452.103 101.978C451.422 101.297 451.081 100.421 451.081 99.35V4.45C451.081 3.37933 451.422 2.50333 452.103 1.822C452.785 1.14066 453.661 0.799993 454.731 0.799993H535.761C536.832 0.799993 537.708 1.14066 538.389 1.822C539.071 2.50333 539.411 3.37933 539.411 4.45V99.35C539.411 100.421 539.071 101.297 538.389 101.978C537.708 102.659 536.832 103 535.761 103H516.927C515.857 103 514.981 102.659 514.299 101.978C513.618 101.297 513.277 100.421 513.277 99.35V24.16H477.215V99.35C477.215 100.421 476.875 101.297 476.193 101.978C475.512 102.659 474.636 103 473.565 103H454.731ZM557.028 103C556.25 103 555.52 102.708 554.838 102.124C554.254 101.443 553.962 100.713 553.962 99.934C553.962 99.4473 554.011 99.0093 554.108 98.62L588.418 4.88799C588.71 3.81733 589.294 2.89266 590.17 2.11399C591.144 1.23799 592.458 0.799993 594.112 0.799993H615.72C617.375 0.799993 618.64 1.23799 619.516 2.11399C620.49 2.89266 621.122 3.81733 621.414 4.88799L655.578 98.62C655.773 99.0093 655.87 99.4473 655.87 99.934C655.87 100.713 655.53 101.443 654.848 102.124C654.264 102.708 653.534 103 652.658 103H634.7C633.24 103 632.121 102.659 631.342 101.978C630.661 101.199 630.223 100.518 630.028 99.934L624.334 85.042H585.352L579.804 99.934C579.61 100.518 579.172 101.199 578.49 101.978C577.809 102.659 576.641 103 574.986 103H557.028ZM591.338 64.018H618.494L604.77 25.474L591.338 64.018ZM674.028 103C672.958 103 672.082 102.659 671.4 101.978C670.719 101.297 670.378 100.421 670.378 99.35V4.45C670.378 3.37933 670.719 2.50333 671.4 1.822C672.082 1.14066 672.958 0.799993 674.028 0.799993H714.908C722.987 0.799993 729.995 2.06533 735.932 4.596C741.967 7.02933 746.639 10.728 749.948 15.692C753.355 20.656 755.058 26.934 755.058 34.526C755.058 42.0207 753.355 48.2013 749.948 53.068C746.639 57.9347 741.967 61.536 735.932 63.872C729.995 66.208 722.987 67.376 714.908 67.376H697.534V99.35C697.534 100.421 697.145 101.297 696.366 101.978C695.685 102.659 694.809 103 693.738 103H674.028ZM697.096 47.228H714.178C718.364 47.228 721.673 46.1573 724.106 44.016C726.637 41.8747 727.902 38.614 727.902 34.234C727.902 30.5353 726.832 27.4207 724.69 24.89C722.549 22.3593 719.045 21.094 714.178 21.094H697.096V47.228ZM798.176 103C797.106 103 796.23 102.659 795.548 101.978C794.867 101.297 794.526 100.421 794.526 99.35V23.722H768.538C767.468 23.722 766.592 23.3813 765.91 22.7C765.229 21.9213 764.888 21.0453 764.888 20.072V4.45C764.888 3.37933 765.229 2.50333 765.91 1.822C766.592 1.14066 767.468 0.799993 768.538 0.799993H847.086C848.157 0.799993 849.033 1.14066 849.714 1.822C850.396 2.50333 850.736 3.37933 850.736 4.45V20.072C850.736 21.0453 850.396 21.9213 849.714 22.7C849.033 23.3813 848.157 23.722 847.086 23.722H821.098V99.35C821.098 100.421 820.758 101.297 820.076 101.978C819.395 102.659 818.519 103 817.448 103H798.176ZM870.655 103C869.584 103 868.708 102.659 868.027 101.978C867.346 101.297 867.005 100.421 867.005 99.35V4.45C867.005 3.37933 867.346 2.50333 868.027 1.822C868.708 1.14066 869.584 0.799993 870.655 0.799993H889.489C890.56 0.799993 891.436 1.14066 892.117 1.822C892.798 2.50333 893.139 3.37933 893.139 4.45V39.636H929.201V4.45C929.201 3.37933 929.542 2.50333 930.223 1.822C930.904 1.14066 931.78 0.799993 932.851 0.799993H951.685C952.756 0.799993 953.632 1.14066 954.313 1.822C954.994 2.50333 955.335 3.37933 955.335 4.45V99.35C955.335 100.421 954.994 101.297 954.313 101.978C953.632 102.659 952.756 103 951.685 103H932.851C931.78 103 930.904 102.659 930.223 101.978C929.542 101.297 929.201 100.421 929.201 99.35V62.996H893.139V99.35C893.139 100.421 892.798 101.297 892.117 101.978C891.436 102.659 890.56 103 889.489 103H870.655ZM982.442 103C981.372 103 980.496 102.659 979.814 101.978C979.133 101.297 978.792 100.421 978.792 99.35V4.45C978.792 3.37933 979.133 2.50333 979.814 1.822C980.496 1.14066 981.372 0.799993 982.442 0.799993H1050.62C1051.69 0.799993 1052.57 1.14066 1053.25 1.822C1053.93 2.50333 1054.27 3.37933 1054.27 4.45V18.174C1054.27 19.2447 1053.93 20.1207 1053.25 20.802C1052.57 21.4833 1051.69 21.824 1050.62 21.824H1004.05V41.534H1047.41C1048.48 41.534 1049.36 41.9233 1050.04 42.702C1050.72 43.3833 1051.06 44.2593 1051.06 45.33V58.032C1051.06 59.0053 1050.72 59.8813 1050.04 60.66C1049.36 61.3413 1048.48 61.682 1047.41 61.682H1004.05V81.976H1051.79C1052.86 81.976 1053.74 82.3167 1054.42 82.998C1055.1 83.6793 1055.44 84.5553 1055.44 85.626V99.35C1055.44 100.421 1055.1 101.297 1054.42 101.978C1053.74 102.659 1052.86 103 1051.79 103H982.442ZM1078.69 103C1077.62 103 1076.74 102.659 1076.06 101.978C1075.38 101.297 1075.04 100.421 1075.04 99.35V4.45C1075.04 3.37933 1075.38 2.50333 1076.06 1.822C1076.74 1.14066 1077.62 0.799993 1078.69 0.799993H1119.57C1127.65 0.799993 1134.66 2.06533 1140.59 4.596C1146.63 7.02933 1151.3 10.728 1154.61 15.692C1158.02 20.656 1159.72 26.934 1159.72 34.526C1159.72 42.0207 1158.02 48.2013 1154.61 53.068C1151.3 57.9347 1146.63 61.536 1140.59 63.872C1134.66 66.208 1127.65 67.376 1119.57 67.376H1102.19V99.35C1102.19 100.421 1101.81 101.297 1101.03 101.978C1100.35 102.659 1099.47 103 1098.4 103H1078.69ZM1101.76 47.228H1118.84C1123.02 47.228 1126.33 46.1573 1128.77 44.016C1131.3 41.8747 1132.56 38.614 1132.56 34.234C1132.56 30.5353 1131.49 27.4207 1129.35 24.89C1127.21 22.3593 1123.71 21.094 1118.84 21.094H1101.76V47.228ZM1180.35 103C1179.28 103 1178.41 102.659 1177.72 101.978C1177.04 101.199 1176.7 100.323 1176.7 99.35V4.45C1176.7 3.37933 1177.04 2.50333 1177.72 1.822C1178.5 1.14066 1179.38 0.799993 1180.35 0.799993H1199.19C1200.26 0.799993 1201.13 1.14066 1201.81 1.822C1202.5 2.50333 1202.84 3.37933 1202.84 4.45V63.288L1244.45 3.57399C1244.93 2.79533 1245.57 2.16267 1246.34 1.676C1247.12 1.092 1248.15 0.799993 1249.41 0.799993H1266.35C1267.32 0.799993 1268.15 1.14066 1268.83 1.822C1269.61 2.50333 1270 3.37933 1270 4.45V99.35C1270 100.421 1269.61 101.297 1268.83 101.978C1268.15 102.659 1267.32 103 1266.35 103H1247.51C1246.44 103 1245.52 102.659 1244.74 101.978C1244.06 101.297 1243.72 100.421 1243.72 99.35V42.702L1202.25 100.226C1201.77 100.907 1201.13 101.54 1200.35 102.124C1199.67 102.708 1198.65 103 1197.29 103H1180.35Z" fill="#F5F6F9"/>
</svg>
