<svg width="18" height="13" viewBox="0 0 18 13" fill="none" xmlns="http://www.w3.org/2000/svg">
<g id="youtube">
<path id="Combined Shape" fill-rule="evenodd" clip-rule="evenodd" d="M15.138 0.1035C16.2169 0.16425 16.7467 0.324 17.235 1.1925C17.7435 2.05988 18 3.55387 18 6.18525V6.18863V6.19425C18 8.81325 17.7435 10.3185 17.2361 11.1769C16.7479 12.0454 16.218 12.2029 15.1391 12.276C14.0602 12.3379 11.3501 12.375 9.00225 12.375C6.64988 12.375 3.93863 12.3379 2.86088 12.2749C1.78425 12.2018 1.25437 12.0443 0.761625 11.1757C0.25875 10.3174 0 8.81213 0 6.19312V6.19088V6.1875V6.18412C0 3.55387 0.25875 2.05988 0.761625 1.1925C1.25437 0.322875 1.78537 0.16425 2.862 0.102375C3.93863 0.030375 6.64988 0 9.00225 0C11.3501 0 14.0603 0.030375 15.138 0.1035ZM12.375 6.1875L6.75 2.8125V9.5625L12.375 6.1875Z" fill="#333333"/>
</g>
</svg>
